<svg xmlns="http://www.w3.org/2000/svg" xmlns:xlink="http://www.w3.org/1999/xlink" viewBox="112.19 106.52 608.47 171.88">
	<path fill="#22141C" transform="scale(0.368652 0.368164)" d="M1707.71 364.769C1728.31 366.014 1724.88 368.879 1739.23 380.21C1741.87 382.3 1746.19 384.038 1748.29 386.497C1749.51 387.935 1749.5 388.275 1749.58 390.168C1740.46 388.22 1735.06 377.504 1722.79 377.894C1722.66 376.911 1722.23 376.082 1721.84 375.178C1717.43 371.406 1712.54 370.701 1706.93 369.943C1706.93 368.002 1707.05 366.605 1707.71 364.769Z"/>
	<path fill="#22141C" transform="scale(0.368652 0.368164)" d="M1494.08 334.78C1497.03 333.146 1500.32 332.676 1503.63 332.883C1512.4 334.059 1534.82 341.714 1540.41 348.577L1540.55 350.274C1538.34 351.525 1535.98 350.699 1533.58 350.055C1519.98 346.412 1507.58 338.683 1494.08 334.78Z"/>
	<path fill="#22141C" transform="scale(0.368652 0.368164)" d="M1638.68 312.982C1646.88 314.156 1695.84 350.629 1702.18 359.3C1702.8 360.156 1702.79 361.012 1702.97 362.039C1702.7 362.002 1702.43 361.974 1702.16 361.929C1692.66 360.335 1644.72 322.041 1638.68 312.982Z"/>
	<path fill="#32252B" transform="scale(0.368652 0.368164)" d="M1471.38 370.499C1488.73 369.635 1517.46 366.751 1533.07 373.212L1533.27 374.449C1522.68 378.298 1505.92 375.464 1494.75 374.887C1482.56 374.622 1445.89 380.183 1437.73 377.112L1437.41 375.847C1442.72 370.609 1464 370.947 1471.38 370.499Z"/>
	<path fill="#22141C" transform="scale(0.368652 0.368164)" d="M1523.49 414.499C1526.13 414.143 1528.43 413.874 1531.1 414.3L1532.18 415.791C1530.76 417.889 1529.06 418.546 1526.78 419.457C1508.77 426.674 1489.47 431.528 1471.05 437.637C1459.63 441.426 1448.81 446.684 1437.16 449.831C1437.05 449.928 1436.96 450.047 1436.83 450.122C1435.01 451.203 1434.23 451.02 1432.36 450.458L1432.06 448.637C1442.25 437.406 1505.05 423.08 1523.49 414.499Z"/>
	<path fill="#32252B" transform="scale(0.368652 0.368164)" d="M1494.08 334.78C1475.41 325.494 1408.31 312.666 1400.73 306.007L1401.98 305.037C1419.93 303.729 1486.09 323.828 1503.63 332.883C1500.32 332.676 1497.03 333.146 1494.08 334.78Z"/>
	<path fill="#32252B" transform="scale(0.368652 0.368164)" d="M1943.77 699.056C1947.92 701.217 1952.66 705.625 1954.18 710.14C1955.53 714.147 1954.67 718.332 1952.74 722.007C1946.12 734.581 1918.61 750.798 1905.13 754.704C1901.89 755.642 1898.4 755.573 1895.47 753.677C1893.71 752.535 1892.64 750.689 1892.28 748.652C1892.18 748.112 1892.13 747.565 1892.07 747.021C1891.96 746.068 1891.84 745.119 1891.75 744.163C1893.01 744.389 1894.38 744.765 1895.65 744.807C1901.17 745.49 1907.68 743.859 1912.58 741.301C1914.91 740.088 1916.6 738.58 1917.45 736.028C1917.11 732.977 1916.93 732.406 1915.11 729.948L1916.48 727.81C1915.11 724.951 1914.83 722.747 1914.69 719.608C1918.91 718.453 1923.39 717.416 1927.44 715.781C1933.11 713.497 1934.36 709.574 1936.64 704.377C1938.23 700.745 1940.45 700.405 1943.77 699.056Z"/>
	<path fill="#22141C" transform="scale(0.368652 0.368164)" d="M1831.83 641.126C1832.98 638.374 1833.9 635.027 1836.24 633.091C1846.73 643.009 1880.47 692.966 1887.01 706.256C1890.36 708.204 1892.9 709.1 1896.74 709.61C1896.14 710.988 1895.28 711.056 1893.95 711.682C1894.85 713.123 1895.04 713.636 1896.74 714.071C1905.22 716.243 1923.32 706.175 1930.26 701.48C1934.13 698.858 1939.31 695.724 1940.74 691.041C1939.52 685.852 1937.66 680.947 1935.82 675.958C1940.43 679.13 1944.46 686.057 1945.38 691.527C1945.83 694.21 1944.74 696.605 1943.77 699.056C1940.45 700.405 1938.23 700.745 1936.64 704.377C1934.36 709.574 1933.11 713.497 1927.44 715.781C1923.39 717.416 1918.91 718.453 1914.69 719.608C1914.83 722.747 1915.11 724.951 1916.48 727.81L1915.11 729.948C1916.93 732.406 1917.11 732.977 1917.45 736.028C1916.6 738.58 1914.91 740.088 1912.58 741.301C1907.68 743.859 1901.17 745.49 1895.65 744.807C1894.38 744.765 1893.01 744.389 1891.75 744.163C1891.87 744.026 1891.99 743.894 1892.09 743.751C1895.84 738.781 1901.78 728.069 1901.07 721.999L1899.06 719.759C1897.05 720.11 1895.27 720.445 1893.45 719.32C1882.08 712.29 1846.5 644.302 1835.96 640.218C1834.53 639.664 1833.22 640.595 1831.83 641.126ZM1895.65 744.807C1901.17 745.49 1907.68 743.859 1912.58 741.301C1914.91 740.088 1916.6 738.58 1917.45 736.028C1917.11 732.977 1916.93 732.406 1915.11 729.948C1914.39 728.001 1913.81 726.927 1912.17 725.628C1909.85 725.444 1908.81 725.712 1906.97 727.371C1901.67 732.158 1899.71 739.228 1895.65 744.807Z"/>
	<path fill="#32252B" transform="scale(0.368652 0.368164)" d="M1899.06 719.759L1898.67 718.372C1902.16 715.605 1907.42 713.428 1911.95 713.756C1912.97 713.829 1913.88 714.059 1914.82 714.419L1916.03 716.228L1915.76 717.241C1910.71 719.502 1905.34 718.05 1901.07 721.999L1899.06 719.759Z"/>
	<path fill="#32252B" transform="scale(0.368652 0.368164)" d="M1693.97 420.162C1697.13 417.689 1699.12 414.876 1700.95 411.312C1705.94 401.575 1712.93 384.463 1709.4 373.61Q1716.12 375.66 1722.79 377.894C1735.06 377.504 1740.46 388.22 1749.58 390.168C1751.98 392.205 1752.66 394.422 1752.9 397.468C1753.48 404.976 1750.94 414.54 1746.85 420.921L1745.06 422.06C1742.64 422.962 1740.16 427.369 1737.51 429.155C1726.83 428.761 1704.73 423.296 1693.97 420.162Z"/>
	<path fill="#22141C" transform="scale(0.368652 0.368164)" d="M1693.14 723.94C1691.72 721.575 1690.26 719.229 1689.95 716.428C1689.58 713.2 1690.76 711.573 1692.69 709.221C1704.18 703.398 1719.5 713.187 1731.41 714.033L1732.2 712.939L1729.66 709.999L1732.11 708.388C1742.89 712.063 1759.6 733.84 1771.72 728.127C1776.92 725.68 1779.21 716.666 1782.79 717.11C1781.92 721.626 1779.7 727.973 1775.7 730.627C1770.45 734.113 1766.02 733.523 1760.02 733.074C1760.52 738.071 1754.91 747.924 1751.68 751.899C1749.73 754.303 1746.51 755.897 1743.43 756.128C1726.19 757.424 1707.45 734.407 1694.62 725.15L1693.14 723.94ZM1693.14 723.94L1694.62 725.15C1695.72 725.258 1697.59 725.204 1698.6 725.539C1706.56 728.187 1734.96 759.401 1746.68 750.136C1748.55 748.661 1749.45 746.548 1749.66 744.206C1749.81 742.669 1749.99 741.419 1748.99 740.109C1746.26 736.518 1742.2 736.082 1739.83 731.5C1739.75 731.334 1739.65 731.175 1739.56 731.013L1737.89 728.989C1734.95 728.644 1730.08 724.675 1727.53 722.902L1727.6 721.158C1726.24 719.391 1724.56 718.695 1722.57 717.796C1716.86 715.219 1708.79 712.701 1702.72 714.999L1701.52 715.154C1701.36 714.962 1701.21 714.767 1701.04 714.577C1699.67 712.963 1698.76 711.977 1696.6 711.518C1694.26 712.642 1694.16 712.753 1692.99 715.075Q1693.91 718.407 1694.66 721.782L1693.14 723.94ZM1733.33 716.924C1736.61 720.843 1737.71 723.898 1737.89 728.989L1739.56 731.013C1743.24 732.368 1745.58 735.117 1749.78 735.507C1752.09 735.721 1753.24 735.563 1754.99 734.006C1755.05 732.887 1754.89 731.872 1754.3 730.895C1749.84 723.526 1741.39 718.982 1733.33 716.924Z"/>
	<path fill="#32252B" transform="scale(0.368652 0.368164)" d="M1693.14 723.94L1694.66 721.782Q1693.91 718.407 1692.99 715.075C1694.16 712.753 1694.26 712.642 1696.6 711.518C1698.76 711.977 1699.67 712.963 1701.04 714.577C1701.21 714.767 1701.36 714.962 1701.52 715.154L1702.72 714.999C1708.79 712.701 1716.86 715.219 1722.57 717.796C1724.56 718.695 1726.24 719.391 1727.6 721.158L1727.53 722.902C1730.08 724.675 1734.95 728.644 1737.89 728.989L1739.56 731.013C1739.65 731.175 1739.75 731.334 1739.83 731.5C1742.2 736.082 1746.26 736.518 1748.99 740.109C1749.99 741.419 1749.81 742.669 1749.66 744.206C1749.45 746.548 1748.55 748.661 1746.68 750.136C1734.96 759.401 1706.56 728.187 1698.6 725.539C1697.59 725.204 1695.72 725.258 1694.62 725.15L1693.14 723.94ZM1702.72 714.999C1705.47 720.062 1711.74 725.054 1717.24 726.784C1719.81 727.596 1722.91 727.754 1725.56 727.329C1727.32 725.41 1727.61 725.458 1727.53 722.902L1727.6 721.158C1726.24 719.391 1724.56 718.695 1722.57 717.796C1716.86 715.219 1708.79 712.701 1702.72 714.999Z"/>
	<path fill="#32252B" transform="scale(0.368652 0.368164)" d="M1767.72 306.825C1793.91 310.783 1818.77 313.692 1835.8 336.748C1840.49 343.088 1842.6 350.792 1841.41 358.63C1839.96 368.152 1834.4 375.752 1826.74 381.336C1824.36 383.076 1821.64 384.604 1818.95 385.837L1812.78 385.016L1813.05 386.792C1809.57 391.557 1799.5 396.828 1793.91 399.038L1793.02 398.72C1790.65 397.87 1790.01 392.755 1787.44 391.069C1781.77 387.368 1773.76 388.282 1768.65 384.42C1758.36 376.657 1765.73 356.803 1763.83 346.394C1763.8 346.214 1763.76 346.036 1763.72 345.857L1759.37 344.837C1759.39 344.676 1759.41 344.516 1759.42 344.355C1759.8 334.514 1744.08 326.391 1755.58 315.471C1759.09 312.144 1764.79 310.721 1767.72 306.825ZM1763.72 345.857C1763.76 346.036 1763.8 346.214 1763.83 346.394C1765.73 356.803 1758.36 376.657 1768.65 384.42C1773.76 388.282 1781.77 387.368 1787.44 391.069C1790.01 392.755 1790.65 397.87 1793.02 398.72L1793.91 399.038C1799.5 396.828 1809.57 391.557 1813.05 386.792L1812.78 385.016C1810.57 383.111 1809.23 381.867 1808.34 378.964C1809.79 371.117 1820.43 372.498 1825.16 366.49C1826.42 363.768 1826.21 360.568 1825.5 357.702C1824.88 355.19 1824.06 354.254 1821.92 352.955C1816.81 352.596 1812.62 357.108 1809.02 360.179C1808.58 360.557 1807.02 361.935 1806.37 361.861C1803.86 361.576 1790.2 341.387 1775.5 340.475C1770.29 340.151 1767.44 342.578 1763.72 345.857Z"/>
	<path fill="#32252B" transform="scale(0.368652 0.368164)" d="M1268.86 329.475C1278.74 328.651 1299.43 325.534 1307.67 330.99L1308.03 332.988C1302.73 350.005 1278.34 375.088 1266.42 388.939C1263.31 392.549 1261.24 396.496 1257.44 399.501C1257.42 399.752 1257.42 400.007 1257.37 400.255C1256.77 403.438 1251.22 407.643 1248.48 409.121C1250.43 414.788 1250.81 467.102 1249.67 474.164C1249.33 476.264 1249.09 476.912 1247.25 478.125C1241.31 482.049 1228.33 481.589 1221.51 480.187C1217.71 479.406 1215.57 477.955 1213.96 474.393C1208.62 462.51 1216.5 429.871 1213.33 413.817C1210.21 397.987 1173.36 360.941 1161.96 343.282C1159.38 339.28 1156.83 335.428 1157.86 330.585C1161.04 328.828 1166.3 328.907 1169.93 328.499C1177.71 328.561 1185.4 328.917 1193.16 329.474C1194.97 330.353 1196.67 331.658 1198.2 332.958C1203.94 337.824 1229.87 369.239 1230.37 375.085C1231.7 374.418 1232.96 373.688 1234.16 372.799C1240.42 368.13 1267.97 336.186 1268.86 329.475Z"/>
	<path fill="#32252B" transform="scale(0.368652 0.368164)" d="M801.996 529.271C808.879 528.91 817.366 527.837 824.098 529.274C843.061 533.319 858.32 564.32 868.605 579.993C881.351 563.347 892.274 544.885 907.582 530.423C917.111 528.711 928.448 528.025 938.05 529.243C941.026 529.621 943.787 530.19 945.633 532.63C944.574 544.16 909.234 587.404 900.903 598.607L887.424 616.301C888.034 626.334 890.066 675.508 885.408 681.3C883.724 683.394 879.483 684.391 876.949 684.681C870.981 685.362 857.065 686.163 852.573 681.885C846.898 676.481 849.848 627.14 850.08 616.572C837.515 599.531 825.449 582.263 813.253 564.965C806.663 555.618 799.033 546.296 793.565 536.296C792.857 535 793.358 534.411 793.755 533.027C796.162 530.545 798.749 530.063 801.996 529.271Z"/>
	<path fill="#32252B" transform="scale(0.368652 0.368164)" d="M1451.69 527.499C1454.63 527.314 1457.59 527.153 1460.54 527.167C1473.53 527.231 1503.78 531.646 1512.78 541.4C1514.4 543.163 1515.18 545.003 1514.96 547.392C1514.35 554.017 1502.78 570.909 1497.38 575.44C1496.93 574.765 1496.85 574.604 1496.36 574.026C1489.12 565.371 1473.41 560.589 1462.31 559.852C1457.43 559.528 1450.92 560.293 1447.17 563.755C1445.2 565.571 1443.99 567.839 1444.02 570.558C1444.16 583.745 1475.5 594.634 1485.69 600.215C1492.79 604.101 1499.71 608.689 1505.64 614.219C1512.65 620.749 1517.45 628.582 1517.67 638.357C1517.92 649.904 1512.62 662.998 1504.51 671.207C1491.28 684.601 1472.49 686.223 1454.75 686.216C1426.34 685.268 1420.18 674.96 1396.99 665.525L1396.09 665.163C1405.07 662.242 1410.37 646.166 1414.91 638.543C1424.02 636.865 1442.44 655.972 1459.67 655.454C1466.26 655.256 1473.75 652.323 1478.22 647.363C1479.67 645.765 1480.31 644.434 1480.03 642.207C1478.51 630.48 1435.69 613.328 1425.28 606.489Q1424.4 605.919 1423.56 605.306Q1422.71 604.693 1421.9 604.038Q1421.08 603.384 1420.3 602.689Q1419.52 601.994 1418.77 601.26Q1418.03 600.527 1417.32 599.757Q1416.62 598.988 1415.95 598.183Q1415.28 597.379 1414.65 596.542Q1414.03 595.706 1413.44 594.838Q1412.86 593.971 1412.32 593.076Q1411.78 592.181 1411.29 591.259Q1410.79 590.338 1410.35 589.393Q1409.9 588.448 1409.5 587.482Q1409.1 586.515 1408.75 585.53Q1408.41 584.545 1408.11 583.544Q1407.81 582.543 1407.56 581.528Q1407.31 580.512 1407.11 579.486Q1406.91 578.481 1406.76 577.468Q1406.61 576.455 1406.51 575.436Q1406.41 574.416 1406.36 573.393Q1406.32 572.37 1406.32 571.346Q1406.32 570.322 1406.37 569.299Q1406.42 568.276 1406.52 567.257Q1406.62 566.238 1406.77 565.225Q1406.93 564.212 1407.13 563.208Q1407.33 562.203 1407.58 561.21Q1407.83 560.217 1408.13 559.237Q1408.43 558.258 1408.77 557.294Q1409.12 556.33 1409.51 555.385Q1409.91 554.439 1410.35 553.514Q1410.78 552.589 1411.27 551.686Q1411.75 550.784 1412.28 549.906Q1412.81 549.029 1413.38 548.178C1422.25 535.077 1437 530.455 1451.69 527.499Z"/>
	<path fill="#32252B" transform="scale(0.368652 0.368164)" d="M1145.38 527.496C1153.58 526.608 1162.06 527.006 1170.22 527.98C1180.55 529.212 1199.27 532.029 1205.82 540.798C1207.64 543.224 1208.34 546.178 1207.89 549.171C1206.78 556.663 1197.82 569.328 1191.78 573.917C1186.46 568.036 1179.43 564.794 1171.81 562.917C1162.75 560.685 1148.58 558.187 1140.38 563.641C1138.06 565.182 1137.88 566.367 1137.4 568.914C1141.35 583.471 1182.94 599.264 1195.66 609.948C1204.42 617.311 1210.2 626.893 1211.05 638.45C1211.84 649.245 1207.83 662.076 1200.52 670.21C1188.73 683.341 1171.14 686.492 1154.42 687.501C1140.92 687.947 1126.45 683.663 1114.12 678.503C1108.5 676.149 1098.96 672.327 1096.9 666.105C1094.11 657.7 1109.98 647.047 1113.49 640.222C1113.56 640.08 1113.62 639.935 1113.69 639.792C1127.89 643.407 1138.45 655.652 1154.11 655.747C1160.1 655.783 1168.09 653.329 1172.21 648.761C1173.9 646.891 1174.86 644.783 1174.52 642.219C1172.83 629.67 1135.36 615.08 1124.87 608.39C1113.37 601.059 1103.4 590.687 1100.56 576.911C1098.48 566.774 1101.32 555.815 1107.02 547.276C1115.6 534.407 1131.13 530.405 1145.38 527.496Z"/>
	<path fill="#32252B" transform="scale(0.368652 0.368164)" d="M1609.26 528.499C1629.31 526.524 1649.96 531.954 1666.98 542.584C1672.01 545.727 1681.95 552.927 1683.31 558.826C1680.87 565.87 1663.85 577.456 1657.13 580.98C1656.49 579.059 1655.69 577.641 1654.26 576.217C1644.94 566.914 1629.4 562.094 1616.37 562.349Q1615.22 562.36 1614.07 562.429Q1612.92 562.499 1611.78 562.625Q1610.64 562.752 1609.5 562.936Q1608.37 563.121 1607.24 563.362Q1606.12 563.603 1605.01 563.9Q1603.9 564.198 1602.8 564.55Q1601.71 564.903 1600.63 565.311Q1599.56 565.718 1598.5 566.18Q1597.45 566.641 1596.42 567.154Q1595.39 567.668 1594.39 568.233Q1593.39 568.797 1592.42 569.412Q1591.45 570.026 1590.51 570.689Q1589.57 571.351 1588.66 572.06Q1587.75 572.769 1586.89 573.523Q1586.02 574.277 1585.19 575.073Q1584.36 575.87 1583.57 576.707C1575.34 585.387 1570.75 596.847 1571.25 608.848Q1571.3 609.995 1571.4 611.138Q1571.51 612.281 1571.67 613.417Q1571.83 614.553 1572.05 615.68Q1572.27 616.807 1572.55 617.921Q1572.82 619.036 1573.15 620.135Q1573.48 621.234 1573.87 622.315Q1574.25 623.396 1574.69 624.457Q1575.13 625.517 1575.62 626.555Q1576.12 627.592 1576.66 628.603Q1577.2 629.615 1577.79 630.598Q1578.39 631.58 1579.03 632.532Q1579.67 633.484 1580.36 634.403Q1581.05 635.322 1581.78 636.205Q1582.51 637.088 1583.29 637.933Q1584.07 638.778 1584.88 639.583Q1585.7 640.389 1586.56 641.152C1596.54 650.01 1609.73 653.828 1622.95 653.029C1637.86 652.128 1651.6 644.303 1661.28 633.194C1667.1 632.982 1672.45 637.63 1676.73 641.246C1679.98 643.99 1685.37 648.04 1685.76 652.499C1685.6 654.119 1685.34 655.495 1684.39 656.864C1674.63 670.928 1653.85 680.611 1637.51 683.759C1613.66 688.354 1587.76 683.422 1567.69 669.631Q1566.18 668.585 1564.72 667.467Q1563.26 666.348 1561.85 665.16Q1560.45 663.972 1559.11 662.716Q1557.76 661.461 1556.48 660.141Q1555.2 658.822 1553.98 657.441Q1552.77 656.061 1551.62 654.623Q1550.48 653.184 1549.4 651.692Q1548.33 650.2 1547.33 648.657Q1546.32 647.114 1545.4 645.523Q1544.48 643.933 1543.63 642.3Q1542.78 640.667 1542.02 638.994Q1541.25 637.321 1540.57 635.614Q1539.89 633.906 1539.29 632.166Q1538.69 630.427 1538.18 628.661Q1537.67 626.894 1537.24 625.105Q1536.82 623.316 1536.48 621.508C1532.83 601.61 1536.51 579.993 1548.14 563.275C1562.65 542.407 1584.92 532.817 1609.26 528.499Z"/>
	<path fill="#32252B" transform="scale(0.368652 0.368164)" d="M548.726 527.326C554.579 526.669 560.856 526.822 566.723 527.219C580.385 528.144 601.001 530.923 610.288 542.141C611.491 543.595 612 544.944 611.777 546.789C611.076 552.586 603.009 565.381 598.094 568.684C590.315 573.912 572.264 562.122 563.42 560.317C557.815 559.174 550.558 558.041 545.538 561.543C542.814 563.444 541.035 566.391 540.394 569.616C543.373 583.471 571.418 593.008 582.999 599.693C589.793 603.616 596.335 608.327 601.987 613.783C609.098 620.649 614.096 631.875 614.247 641.7C614.41 652.336 609.595 662.783 602.174 670.273C589.003 683.566 571.522 686.102 553.773 686.058C538.129 684.549 517.45 681.548 504.363 672.146C500.801 669.588 497.712 666.106 497.106 661.612C496.415 656.482 499.104 651.394 502.21 647.517C522.184 622.584 529.24 656.7 561.236 653.034C565.427 652.554 570.927 651.391 573.501 647.672C574.737 645.884 574.893 643.833 574.496 641.749C571.326 625.114 532.148 613.376 518.637 603.73C510.327 597.796 503.072 589.93 501.426 579.506C499.695 568.548 502.824 554.596 509.535 545.565C518.187 533.921 535.044 529.212 548.726 527.326Z"/>
	<path fill="#32252B" transform="scale(0.368652 0.368164)" d="M584.82 327.237C587.246 327.463 589.54 328.041 591.897 328.624C595.868 331.379 620.51 384.777 624.187 392.573C628.769 402.286 662.891 473.918 661.325 478.282C660.596 478.832 659.84 479.304 658.998 479.668C652.355 482.546 634.538 483.19 627.812 480.299C620.119 476.991 616.091 462.076 613.283 454.776L582.5 454.796L555.301 454.731C551.852 462.682 548.163 473.464 540.974 478.717C533.856 483.919 522.51 482.764 514.241 481.345C511.121 480.81 507.5 480.124 505.561 477.382C506.102 470.415 567.345 345.928 574.843 334.401C577.769 329.902 579.513 328.364 584.82 327.237ZM584.427 393.72C579.306 402.822 575.427 412.466 570.893 421.854L584.096 421.962L598.477 421.959C594.987 413.627 590.914 399.916 584.427 393.72Z"/>
	<path fill="#32252B" transform="scale(0.368652 0.368164)" d="M1006.15 528.968C1006.93 529.023 1007.71 529.086 1008.48 529.199C1011.13 529.582 1013.77 530.263 1015.36 532.583C1029.66 553.363 1039.6 581.88 1050.2 604.95C1060.55 627.458 1072.87 650.124 1081.27 673.389C1082.3 676.268 1083.31 679.276 1082.73 682.359C1078.87 686.235 1068.69 685.191 1063.59 685.192C1036.68 685.199 1047.83 672.756 1035.47 660.837C1027.63 653.285 1012.57 655.66 1002.5 655.865Q989.78 655.879 977.062 656.159C974.606 662.539 971.019 671.27 966.703 676.523C962.712 681.379 957.793 684.375 951.47 684.949C944.299 685.599 930.748 686.615 925.013 681.871C923.821 677.727 926.086 673.697 927.762 669.89C937.719 647.274 950.636 625.889 961.814 603.842C972.631 582.506 981.879 558.71 995.303 538.925C998.321 534.478 1001.01 530.964 1006.15 528.968ZM1007.14 593.539C1001.31 603.122 995.605 613.233 992.223 623.97L1007.79 623.944L1021.36 623.887C1016.14 613.963 1011.61 603.817 1007.14 593.539Z"/>
	<path fill="#32252B" transform="scale(0.368652 0.368164)" d="M852.632 328.304C865.365 328.182 941.638 325.332 947.732 331.137C950.851 334.109 950.624 338.204 950.689 342.186C950.761 346.602 951.297 356.138 947.884 359.276C940.878 365.717 892.085 362.191 880.487 362.139L880.42 387.038C895.037 387.26 921.088 383.361 933.788 389.063C935.586 389.871 937.273 390.883 937.848 392.861C939.255 397.701 939.112 412.026 936.725 416.561C928.418 423.885 893.545 419.065 880.951 420.545L880.791 430.75L880.778 448.049C897.428 448.188 914.084 446.635 930.739 447.269C935.851 447.464 945.731 447.395 949.252 451.434C951.699 454.241 951.134 463.454 950.975 467.276C950.799 471.48 950.635 476.213 947.325 479.246C937.957 483.428 860.42 483.277 849.933 480.04C847.986 479.439 845.634 478.396 844.817 476.428C842.566 471.009 843.628 336.647 845.146 332.643C847.209 329.899 849.484 329.299 852.632 328.304Z"/>
	<path fill="#32252B" transform="scale(0.368652 0.368164)" d="M643.069 529.134Q648.513 528.989 653.959 528.951C658.789 528.93 664.773 529.143 668.27 533.057C674.23 539.729 669.167 586.01 669.085 597.274C668.971 613.052 668.942 632.079 680.988 644.003C687.91 650.856 698.402 653.704 707.949 653.526Q708.862 653.508 709.772 653.445Q710.683 653.383 711.59 653.275Q712.496 653.167 713.396 653.014Q714.296 652.862 715.188 652.665Q716.079 652.468 716.96 652.227Q717.84 651.987 718.708 651.703Q719.576 651.419 720.428 651.093Q721.281 650.766 722.116 650.398Q722.951 650.03 723.767 649.62Q724.583 649.211 725.378 648.762Q726.173 648.313 726.945 647.826Q727.717 647.338 728.463 646.813Q729.21 646.287 729.93 645.726Q730.649 645.164 731.341 644.568Q732.032 643.971 732.692 643.342Q733.353 642.712 733.982 642.05C737.469 638.345 740.136 632.493 741.238 627.537C745.57 608.063 742.385 569.202 741.968 547.996C741.86 542.468 742.285 536.371 746.436 532.232C749.679 528.999 754.403 527.877 758.854 527.867C765.321 527.853 773.525 529.686 778.109 534.6C783.707 540.601 780.309 560.585 779.869 568.473C779.801 594.566 784.358 625.258 772.472 649.375C764.537 665.477 750.314 677.165 733.398 682.863C712.651 689.852 688.13 687.772 668.568 678.039C653.24 670.412 643.257 658.056 637.921 641.813Q635.972 635.78 634.73 629.563Q633.487 623.346 632.967 617.027C631.524 600.154 633.284 583.376 633.499 566.503C633.595 558.934 632.343 551.36 632.707 543.8C632.854 540.741 633.36 537.316 634.826 534.581C636.692 531.103 639.568 530.229 643.069 529.134Z"/>
	<path fill="#32252B" transform="scale(0.368652 0.368164)" d="M1270.11 588.044C1280.35 588.046 1331.74 589.756 1337.15 587.585C1349.26 582.722 1335.9 547.21 1341.96 536.191C1343.77 532.91 1346.36 531.138 1349.89 530.112C1355.52 528.475 1369.82 528.218 1374.84 531.075C1377.86 535.07 1378.31 541.058 1378.64 545.918C1380.64 575.623 1378.61 605.909 1378.49 635.67C1378.44 647.089 1380.6 659.413 1379.6 670.672C1379.31 673.887 1378.34 677.241 1376.05 679.618C1370.97 684.9 1363.44 683.851 1356.75 683.823C1354.45 683.795 1352.08 683.799 1349.8 683.491C1331.08 680.959 1348.75 634.006 1340.09 623.112C1334.68 619.457 1281 621.61 1270.38 621.661C1270.72 622.183 1271.01 622.564 1271.24 623.126C1274.32 630.391 1274.51 673.851 1271.57 681.375C1269.55 682.955 1267.6 683.448 1265.11 683.83C1258.25 684.883 1243.18 685.317 1237.67 680.945C1235.98 679.605 1236.05 677.757 1235.87 675.684C1234.68 662.333 1235.61 648.129 1235.56 634.659Q1235.16 594.497 1235.84 554.338C1236 548.078 1237.97 535.773 1237.26 530.726C1237.24 530.564 1237.21 530.404 1237.18 530.243L1250.58 529.5C1257.07 529.372 1264.9 528.438 1270.72 531.712C1271.74 532.933 1272.09 533.843 1272.33 535.39C1273.71 544.438 1274.77 581.849 1270.11 588.044Z"/>
	<path fill="#32252B" transform="scale(0.368652 0.368164)" d="M1570.45 331.914C1579.37 316.81 1587.36 300.717 1604.08 292.487C1610.43 289.362 1618.69 288.183 1625.48 290.624C1629.66 292.129 1633.59 295.265 1635.47 299.326C1635.86 299.973 1636.25 300.615 1636.61 301.285C1638.28 304.398 1639.77 309.522 1638.68 312.982C1644.72 322.041 1692.66 360.335 1702.16 361.929C1702.43 361.974 1702.7 362.002 1702.97 362.039L1707.71 364.769C1707.05 366.605 1706.93 368.002 1706.93 369.943C1704.73 380.864 1703.42 407.065 1693.22 413.585C1693.06 413.681 1692.9 413.753 1692.74 413.837C1692.67 415.804 1692.26 416.792 1691.26 418.475C1680.75 419.589 1667.69 416.884 1657.03 416.074C1641.32 414.881 1625.78 414.559 1610.04 414.837C1610.05 415.077 1610.07 415.316 1610.06 415.555C1610.03 418.521 1605.98 423.052 1604 425.049C1598.63 430.476 1591.15 433.963 1583.44 433.91C1576.75 433.864 1570.7 430.942 1566.16 426.083C1547.22 405.787 1557.3 367.772 1564.99 344.857C1566.57 340.157 1570.29 336.699 1570.45 331.914ZM1606.84 346.499C1599.89 352.074 1592.92 359.027 1591.84 368.366C1591.26 373.279 1592.94 377.578 1596 381.375C1598.51 384.49 1601.57 387.008 1605.2 388.7C1610.51 387.064 1612.18 384.329 1614.73 379.417C1618.65 371.898 1623.42 359.555 1620.95 351.243C1620.32 349.117 1619.15 347.555 1617.18 346.538C1614.23 345.013 1609.95 345.97 1606.84 346.499Z"/>
	<path fill="#22141C" transform="scale(0.368652 0.368164)" d="M1610.04 414.837C1610.05 415.077 1610.07 415.316 1610.06 415.555C1610.03 418.521 1605.98 423.052 1604 425.049C1598.63 430.476 1591.15 433.963 1583.44 433.91C1576.75 433.864 1570.7 430.942 1566.16 426.083C1547.22 405.787 1557.3 367.772 1564.99 344.857C1566.57 340.157 1570.29 336.699 1570.45 331.914L1573.5 337.087L1576.17 334.38C1577.44 336.558 1576.98 337.56 1576.4 339.917C1574.73 346.661 1571.69 353.188 1569.8 359.911C1565.08 376.713 1561.7 401.853 1570.89 417.7C1572.88 421.133 1575.77 425.083 1579.81 426.139C1583.53 427.109 1587.19 425.543 1590.29 423.58C1598.56 418.329 1608.57 402.318 1612.83 400.087C1613.47 401.107 1613.61 401.067 1613.62 402.343C1613.62 405.277 1613.74 407.045 1615.36 409.58C1616.75 410.82 1618.12 411.27 1619.92 411.537C1630.61 413.115 1642.15 412.361 1652.96 412.759C1665.48 413.221 1679.33 415.196 1691.79 413.968C1692.11 413.936 1692.42 413.88 1692.74 413.837C1692.67 415.804 1692.26 416.792 1691.26 418.475C1680.75 419.589 1667.69 416.884 1657.03 416.074C1641.32 414.881 1625.78 414.559 1610.04 414.837Z"/>
	<path fill="#32252B" transform="scale(0.368652 0.368164)" d="M333.708 326.973C347.9 329.546 394.242 369.41 410.663 380.111C426.069 371.078 471.539 330.353 483.966 328.783C486.191 328.502 488.416 328.995 490.126 330.466C491.733 331.849 492.339 333.914 492.485 335.977C493.26 346.932 493.421 474.896 490.644 477.848C486.791 481.944 478.388 482.085 473.099 482.087C468.405 482.089 461.099 482.18 457.789 478.494C451.75 471.768 455.108 454.599 455.536 446.036Q456.022 419.191 455.012 392.36C440.768 403.34 425.968 413.575 411.368 424.073C394.832 414.966 378.96 402.607 364.6 390.394C365.35 405.168 364.624 420.143 364.589 434.947C364.56 447.197 365.353 460.12 364.258 472.291C364.055 474.545 363.887 477.524 361.965 479.042C356.786 483.13 343.29 482.428 336.921 481.531C333.639 481.069 330.516 480.215 328.445 477.452C326.471 465.61 324.889 342.269 326.996 334.841C328.148 330.777 330.13 329.015 333.708 326.973Z"/>
	<path fill="#32252B" transform="scale(0.368652 0.368164)" d="M1045.82 328.495C1067.91 327.298 1094.14 326.04 1115.62 331.819C1128.12 335.181 1140.57 341.824 1147.09 353.467C1152.4 362.955 1152.67 373.806 1149.74 384.083C1147.76 391.047 1144.53 396.5 1138.11 400.105C1147.02 403.396 1153.77 409.283 1158.63 417.445C1163.95 426.383 1166.06 438.043 1163.31 448.176C1161.58 454.585 1157.2 461.185 1151.39 464.515C1150.64 466.209 1149 467.426 1147.59 468.566C1130.24 482.56 1101.24 480.945 1080.21 481.123C1070.62 481.204 1060.74 481.692 1051.21 480.555C1047.07 480.062 1043.01 479.501 1040.35 476.127C1038.72 463.805 1039.12 451.063 1038.98 438.649Q1038.41 407.318 1039.05 375.989C1039.32 361.801 1038.56 346.725 1040.44 332.689C1041.83 330.15 1043.29 329.541 1045.82 328.495ZM1083.94 418.498C1080.7 418.764 1078.6 418.285 1076.21 420.582C1073.77 428.51 1076.6 438.819 1074.96 447.838C1083.35 448.332 1106.14 449.738 1113.21 446.028C1118.63 444.704 1122.91 443.034 1125.95 438.085C1127.43 435.664 1127.62 434.065 1127.17 431.287C1124.02 425.544 1117.38 423.252 1111.39 421.521C1102.58 418.975 1093.09 418.056 1083.94 418.498ZM1074.34 361.488C1077.16 366.536 1076.57 379.847 1074.8 385.369C1074.53 386.219 1074.19 386.799 1073.72 387.552C1082 387.528 1101.56 389.164 1107.96 383.93C1108.11 383.804 1108.23 383.641 1108.37 383.496C1111.56 382 1115.24 378.815 1116.53 375.461C1117.16 373.839 1116.76 372.095 1115.93 370.604C1113.01 365.347 1104.11 362.667 1098.68 361.587C1091.66 360.188 1081.3 359.704 1074.34 361.488Z"/>
	<path fill="#32252B" transform="scale(0.368652 0.368164)" d="M391.713 520.336C397.211 520.046 402.655 519.907 408.154 520.266C428.927 521.622 448.328 530.625 462.058 546.407C474.493 560.699 480.22 579.748 478.895 598.549C477.779 614.386 472.43 629.073 460.043 639.656C450.319 647.965 435.912 653.501 423.016 652.437C413.89 651.683 407.753 647.717 402.029 640.834C394.522 644.981 386.989 647.987 378.293 648.393Q377.402 648.44 376.509 648.442Q375.617 648.445 374.725 648.402Q373.834 648.36 372.946 648.273Q372.057 648.186 371.175 648.054Q370.292 647.923 369.417 647.747Q368.542 647.572 367.677 647.352Q366.812 647.133 365.959 646.87Q365.105 646.608 364.267 646.303Q363.428 645.998 362.605 645.652Q361.783 645.305 360.979 644.918Q360.175 644.53 359.391 644.103Q358.608 643.676 357.847 643.21Q357.085 642.744 356.349 642.24Q355.612 641.737 354.901 641.197Q354.19 640.657 353.508 640.082Q352.825 639.507 352.172 638.899C345.808 633.031 342.423 625.345 342.198 616.708C341.864 603.867 348.98 592.882 357.582 583.956C369.714 571.365 388.765 557.761 407.156 562.164C411.42 563.185 414.093 567.942 417.381 568.639C421.89 569.593 428.637 567.933 433.396 567.873C436.8 567.83 439.474 568.166 441.973 570.735C451.527 580.558 427.46 611.12 427.227 622.13C427.182 624.228 427.603 624.356 428.979 625.775C430.029 625.977 431.113 626.087 432.177 625.924C438.93 624.894 446.283 620.275 450.346 614.857C456.446 606.721 457.186 594.738 455.748 584.991C453.655 570.796 446.828 560.597 435.579 552.11C428.09 547.483 419.406 544.638 410.748 543.237Q409.844 543.082 408.935 542.95Q408.027 542.818 407.116 542.709Q406.205 542.599 405.292 542.513Q404.378 542.427 403.463 542.363Q402.547 542.3 401.631 542.26Q400.714 542.22 399.796 542.203Q398.879 542.185 397.961 542.191Q397.044 542.197 396.127 542.226Q395.21 542.255 394.293 542.307Q393.377 542.359 392.463 542.435Q391.548 542.51 390.636 542.608Q389.724 542.706 388.814 542.827Q387.904 542.948 386.998 543.092Q386.092 543.235 385.19 543.402Q384.287 543.569 383.389 543.758Q382.491 543.947 381.599 544.159Q380.706 544.371 379.819 544.605Q378.931 544.839 378.05 545.095Q377.169 545.352 376.295 545.63Q375.421 545.909 374.553 546.209Q373.686 546.509 372.827 546.832Q371.968 547.154 371.117 547.497Q370.266 547.841 369.424 548.206Q368.582 548.571 367.75 548.957Q366.917 549.343 366.095 549.749Q365.272 550.156 364.46 550.583Q363.648 551.011 362.847 551.458Q362.046 551.906 361.257 552.374Q360.467 552.841 359.69 553.329Q358.912 553.816 358.147 554.323Q357.382 554.83 356.63 555.355Q355.879 555.881 355.14 556.426Q353.754 557.442 352.419 558.525Q351.084 559.608 349.803 560.755Q348.523 561.902 347.3 563.11Q346.077 564.318 344.915 565.584Q343.752 566.851 342.653 568.172Q341.555 569.494 340.522 570.868Q339.489 572.242 338.524 573.665Q337.56 575.088 336.666 576.556Q335.772 578.025 334.951 579.535Q334.13 581.045 333.385 582.594Q332.639 584.143 331.969 585.726Q331.3 587.309 330.709 588.923Q330.118 590.538 329.606 592.179Q329.095 593.82 328.664 595.484Q328.234 597.148 327.885 598.832Q327.537 600.515 327.271 602.213Q327.056 603.645 326.912 605.085Q326.768 606.526 326.695 607.972Q326.622 609.418 326.621 610.865Q326.619 612.313 326.688 613.759Q326.758 615.205 326.898 616.646Q327.039 618.087 327.25 619.519Q327.461 620.951 327.743 622.371Q328.024 623.791 328.375 625.196Q328.726 626.6 329.146 627.986Q329.565 629.372 330.053 630.735Q330.54 632.098 331.094 633.436Q331.647 634.773 332.266 636.082Q332.885 637.391 333.567 638.668Q334.25 639.944 334.994 641.186Q335.739 642.428 336.544 643.631Q337.348 644.835 338.211 645.997C352.175 664.598 377.883 673.135 400.524 670.68C411.168 669.525 422.069 666.098 432.802 667.688C434.752 669.361 436.409 671.147 437.02 673.743C437.584 676.143 436.722 678.457 435.283 680.353C430.774 686.293 422.245 688.775 415.218 689.828C387.609 693.967 358.967 690.624 336.095 673.561Q334.539 672.395 333.042 671.155Q331.545 669.915 330.11 668.604Q328.675 667.292 327.306 665.912Q325.936 664.532 324.636 663.087Q323.335 661.642 322.107 660.135Q320.879 658.629 319.725 657.064Q318.572 655.499 317.496 653.88Q316.42 652.261 315.424 650.591Q314.428 648.921 313.515 647.205Q312.602 645.489 311.773 643.73Q310.945 641.971 310.203 640.174Q309.462 638.377 308.808 636.546Q308.155 634.715 307.592 632.855Q307.029 630.994 306.557 629.108Q306.085 627.222 305.705 625.316Q305.326 623.409 305.04 621.486C301.907 599.81 309.193 575.353 322.258 557.992C339.312 535.331 364.219 524.214 391.713 520.336ZM398.988 588.959C386.945 593.483 373.645 601.455 368.022 613.697C367.094 615.718 366.844 617.263 367.481 619.397C369.646 621.953 373.828 622.429 376.999 622.803C378.009 622.922 379.015 622.836 380.014 622.674C393.727 615.51 402.391 607.836 411.433 595.269C408.246 593.115 402.938 588.657 398.988 588.959Z"/>
	<path fill="#32252B" transform="scale(0.368652 0.368164)" d="M1775.03 592.009C1775.61 592.001 1776.17 591.979 1776.74 591.894C1784.43 590.75 1784.18 581.187 1788.11 576.28C1790.15 573.718 1792.18 573.278 1795.41 573.642C1803.95 574.604 1812.38 578.554 1820.99 579.963C1832.83 581.9 1846.75 582.127 1858.5 579.462C1863.67 578.288 1868.51 576.118 1873.82 575.523L1874.61 577.162C1882.12 582.341 1934.2 664.687 1935.96 674.242C1936.08 674.867 1935.96 675.353 1935.82 675.958C1937.66 680.947 1939.52 685.852 1940.74 691.041C1939.31 695.724 1934.13 698.858 1930.26 701.48C1923.32 706.175 1905.22 716.243 1896.74 714.071C1895.04 713.636 1894.85 713.123 1893.95 711.682C1895.28 711.056 1896.14 710.988 1896.74 709.61C1892.9 709.1 1890.36 708.204 1887.01 706.256C1880.47 692.966 1846.73 643.009 1836.24 633.091C1833.9 635.027 1832.98 638.374 1831.83 641.126C1832.76 645.866 1825.25 655.076 1822.54 659.111C1816.32 668.353 1789.28 714.978 1782.79 717.11C1779.21 716.666 1776.92 725.68 1771.72 728.127C1759.6 733.84 1742.89 712.063 1732.11 708.388L1729.66 709.999C1729.62 706.604 1729.39 702.725 1730.14 699.408C1734.2 681.596 1776.74 598.9 1775.03 592.009Z"/>
	<path fill="#32252B" transform="scale(0.368652 0.368164)" d="M683.209 328.269C698.283 328.005 713.474 327.732 728.541 328.177C755.648 328.978 784.925 335.392 804.152 355.946C817.972 370.721 822.681 390.28 821.868 410.144C820.999 431.369 810.267 448.424 794.994 462.509C784.774 469.914 773.111 475.53 760.683 478.024C745.4 481.091 691.714 486.387 678.963 477.849C676.239 470.448 676.385 350.422 677.933 336.365C678.382 332.28 680.204 330.719 683.209 328.269ZM715.624 362.945Q716.027 404.959 715.232 446.967C735.275 447.315 755.129 448.167 771.723 434.862C780.081 426.664 784.211 417.224 784.356 405.444C784.484 395.125 781.684 384.939 774.366 377.388C762.067 364.699 741.931 362.86 725.253 362.833Q720.438 362.833 715.624 362.945Z"/>
	<path fill="#22141C" transform="scale(0.368652 0.368164)" d="M1759.37 344.837L1763.72 345.857C1763.76 346.036 1763.8 346.214 1763.83 346.394C1765.73 356.803 1758.36 376.657 1768.65 384.42C1773.76 388.282 1781.77 387.368 1787.44 391.069C1790.01 392.755 1790.65 397.87 1793.02 398.72L1793.91 399.038C1799.5 396.828 1809.57 391.557 1813.05 386.792L1812.78 385.016L1818.95 385.837C1820.54 389.827 1829.01 392.922 1832.41 396.093C1839.7 402.898 1846.37 411.248 1852.05 419.42C1865.36 438.557 1900.05 545.695 1897.75 567.809C1891.92 573.934 1881.57 573.117 1874.61 577.162L1873.82 575.523C1868.51 576.118 1863.67 578.288 1858.5 579.462C1846.75 582.127 1832.83 581.9 1820.99 579.963C1812.38 578.554 1803.95 574.604 1795.41 573.642C1792.18 573.278 1790.15 573.718 1788.11 576.28C1784.18 581.187 1784.43 590.75 1776.74 591.894C1776.17 591.979 1775.61 592.001 1775.03 592.009C1777.5 588.174 1780.19 583.127 1780.6 578.56C1777.99 576.571 1773.18 575.915 1769.96 575.073C1770.32 574.57 1770.65 574.125 1770.84 573.531C1774.76 561.696 1783.54 525.524 1777.64 513.96C1774.35 507.529 1717.56 473.99 1708.88 471.636L1705 474.016C1705.31 477.334 1702.41 480.971 1700.36 483.404C1699.06 484.945 1697.83 486.234 1696.01 487.151L1695.28 489.597C1689.32 491.827 1676.72 482.186 1669.99 480.082L1669.56 479.95C1669.95 479.718 1670.09 479.64 1670.5 479.35C1672.93 477.6 1674.82 474.725 1676.53 472.3C1686.29 458.449 1679.56 447.827 1682.57 433.391C1683.55 428.698 1687.12 428.003 1690.71 425.54C1692.73 424.154 1693.48 422.502 1693.97 420.162C1704.73 423.296 1726.83 428.761 1737.51 429.155C1740.16 427.369 1742.64 422.962 1745.06 422.06C1745.24 422.891 1745.33 423.735 1745.25 424.586C1744.92 428.123 1742.3 430.506 1739.77 432.647C1734.69 432.096 1728.86 430.98 1723.91 432.55L1723.52 434.061C1724.58 435.747 1725.87 437.133 1727.37 438.426C1733.55 443.753 1768.62 467.341 1774.48 466.929C1782 459.956 1774.82 437.382 1776.92 427.317C1778.68 418.881 1785.52 411.673 1786.85 403.509C1787.22 401.301 1786.85 399.133 1785.45 397.345C1781.66 392.502 1774.08 392.293 1768.47 391.51C1768.21 390.794 1768.36 391.003 1767.89 390.473C1765.09 387.305 1761.92 384.417 1759.97 380.605C1754.04 369.041 1763.4 352.525 1759.37 344.837ZM1822.51 397.499C1820.82 402.122 1813.28 406.736 1809.01 408.81C1799.45 413.457 1786.47 410.407 1782.55 421.215C1778.51 432.373 1785.99 445.966 1781.39 456.043C1781.59 455.905 1781.79 455.77 1781.99 455.628C1793.97 447.079 1806.69 415.725 1825.65 418.738C1830.37 419.49 1834.4 423.044 1836.98 426.908C1840.33 431.91 1840.91 437.559 1839.62 443.358C1834.59 466.014 1801.01 495.095 1800.55 497.657C1800.26 499.263 1801.69 503.598 1801.79 505.587C1802.24 514.527 1802.38 544.365 1796.93 550.507C1798.23 555.352 1795.12 562.055 1792.78 566.257C1792.44 566.857 1792.09 567.382 1791.7 567.942C1822.5 579.302 1860.14 581.357 1890.3 566.323C1891.09 565.932 1891.62 565.491 1892.29 564.935C1895.12 559.295 1870.26 476.475 1865.94 463.515C1859.97 445.598 1844.19 407.064 1825.91 398.313C1824.85 397.806 1823.67 397.609 1822.51 397.499ZM1817.62 424.499C1810.05 430.667 1801.68 438.256 1795.45 445.798C1788.43 454.296 1782.68 470.995 1773.29 476.428C1769.36 475.441 1767.21 470.689 1763.97 468.207C1753.86 460.462 1738.09 448.974 1725.9 445.822C1723.4 449.619 1711.44 462.927 1707.85 464.8C1713.58 467.267 1721.99 470.458 1726.21 475.065C1732.67 477.461 1774.31 502.505 1777.45 507.317C1795.24 500.9 1822.52 468.095 1830.58 450.988C1833.01 445.826 1836.34 437.111 1834.31 431.357C1833.45 428.924 1832.21 427.468 1829.88 426.383C1825.78 424.472 1822.09 423.628 1817.62 424.499ZM1793.34 503.499C1790.38 507.915 1785.43 509.524 1780.63 511.281C1785.34 517.712 1784.46 529.438 1783.31 536.972C1782.15 544.629 1776.85 563.89 1778.3 570.824C1781.53 570.395 1783.84 570.538 1786.07 567.762C1793.85 558.089 1798.51 517.701 1796 505.87C1795.82 505.057 1795.54 504.574 1795.11 503.87L1793.34 503.499ZM1700.13 433.499C1695.21 437.339 1690.79 440.139 1689.91 446.841C1689.49 450.018 1690.17 453.07 1692.22 455.604C1695.09 459.164 1700.2 461.332 1704.58 462.261L1705.95 461.408L1706.35 459.679C1709.42 457.062 1720.29 445.622 1720.9 441.865C1719.12 438.165 1714.18 435.444 1710.44 434.119C1706.79 432.822 1703.9 432.702 1700.13 433.499Z"/>
	<path fill="#32252B" transform="scale(0.368652 0.368164)" d="M1674.28 478.182C1680.67 474.648 1682.18 467.269 1685.84 461.558C1686.58 460.412 1686.99 459.238 1688.49 459.075C1694.03 458.473 1701.27 463.073 1705.36 466.404C1706.75 469.634 1705.92 470.698 1705 474.016C1705.31 477.334 1702.41 480.971 1700.36 483.404C1699.06 484.945 1697.83 486.234 1696.01 487.151C1688.48 487.289 1681.79 480.47 1674.28 478.182Z"/>
	<path fill="#22141C" transform="scale(0.368652 0.368164)" d="M1866.34 558.499C1869.18 558.002 1872.21 557.116 1874.96 558.302L1874.67 559.924C1863.03 569.418 1841.19 566.928 1826.99 566.73C1824.1 566.408 1822.15 566.233 1819.84 564.258L1820.05 562.873C1830.17 557.282 1853.45 563.188 1866.34 558.499Z"/>
</svg>