<svg xmlns="http://www.w3.org/2000/svg" xmlns:xlink="http://www.w3.org/1999/xlink" viewBox="45.9 86.01 930.38 339.59">
	<path fill="#111322" transform="matrix(0.498535 0 0 0.499023 0 -3.05176e-05)" d="M1338.13 800.108L1338.44 800.661C1339.45 802.47 1340.14 804.147 1340.71 806.133C1344.1 809.356 1347.73 811.814 1352.6 811.728C1357.48 811.641 1362.14 810.269 1366.78 808.889L1370.57 809.276L1371.2 810.221C1368.05 811.913 1361.31 813.842 1359.29 816.545L1360 818.825C1352.01 821.253 1341.51 815.249 1334.41 812.149Q1335.32 811.117 1336.19 810.056C1339.11 806.474 1338.55 804.437 1338.13 800.108Z"/>
	<path fill="#1D1C2E" transform="matrix(0.498535 0 0 0.499023 0 -3.05176e-05)" d="M1284.5 782.012C1295.09 791.99 1280.43 805.566 1302.73 819.62C1304.09 820.476 1304.47 822.392 1304.51 823.99C1304.54 825.046 1304.44 826.117 1304.34 827.169C1306.32 830.095 1307.35 834.453 1308.53 837.797C1309.75 838.761 1310.83 839.198 1312.36 839.469C1326.75 842.03 1359.29 831.799 1371.41 823.197C1373.67 821.6 1375.17 820.359 1375.62 817.605C1371.03 814.379 1365.02 818.051 1360 818.825L1359.29 816.545C1361.31 813.842 1368.05 811.913 1371.2 810.221L1370.57 809.276L1366.78 808.889C1370.37 807.95 1375.08 807.462 1378.61 808.89C1381.35 809.998 1383.15 812.186 1384.31 814.844C1385.41 817.382 1385.39 820.11 1384.29 822.648C1381.51 829.068 1372.91 832.798 1366.8 835.271C1353.35 840.714 1318.62 851.401 1304.88 844.957C1298.37 841.901 1298.6 827.745 1295.97 821.365L1295.64 820.576L1295.58 819.927C1283.35 808.7 1288.5 796.642 1284.69 782.671C1284.63 782.451 1284.57 782.232 1284.5 782.012Z"/>
	<path fill="#1D1C2E" transform="matrix(0.498535 0 0 0.499023 0 -3.05176e-05)" d="M1174.72 799.921C1178.33 802.011 1179.94 803.571 1181.04 807.735C1181.85 810.771 1182.35 817.289 1181.13 820.175C1184.59 822.104 1188.18 824.219 1191.9 825.58C1200.09 828.575 1214.53 829.707 1217.4 839.202C1218.1 841.512 1218.1 843.819 1216.79 845.893C1214.5 849.556 1208.65 851.002 1204.69 851.675C1190.25 854.132 1146.63 853.274 1135.29 844.967C1133.86 843.923 1132.8 841.5 1132.55 839.767C1130.84 827.834 1139.53 818.798 1132.47 807.042C1133.34 805.112 1133.48 803.972 1135.46 802.947C1138.89 805.949 1137.22 811.263 1139.27 814.725C1141.02 817.685 1144.83 817.251 1145.83 821.074C1149.13 821.757 1152.54 822.68 1155.88 823.083C1157.99 822.457 1160.31 822.45 1162.5 822.193C1167.24 821.636 1173.29 820.906 1176.43 816.942C1178.85 810.245 1176.8 806.251 1174.72 799.921ZM1136.02 838.393C1149.13 842.81 1195.67 850.032 1206.99 842.888C1207.78 842.386 1208.3 841.776 1208.78 840.994C1207.55 838.737 1206.2 838.122 1203.76 837.377C1185.26 831.745 1190.28 837.969 1173.15 823.466C1167.35 824.05 1161.6 824.431 1155.88 823.083C1152.54 822.68 1149.13 821.757 1145.83 821.074L1143.1 820.512C1139.26 825.366 1140.75 833.261 1136.02 838.393Z"/>
	<path fill="#2E2E3E" transform="matrix(0.498535 0 0 0.499023 0 -3.05176e-05)" d="M1152.79 689.176C1162.64 689.048 1186.41 706.329 1194.22 713.085C1195.27 715.703 1194.68 718.38 1194.37 721.114C1195.54 723.68 1194.86 726.084 1194.32 728.725C1192.15 739.235 1187.78 749.346 1185.08 759.745C1181.9 772.021 1180.64 784.861 1176.11 796.788Q1175.5 798.39 1174.72 799.921C1176.8 806.251 1178.85 810.245 1176.43 816.942C1173.29 820.906 1167.24 821.636 1162.5 822.193C1160.31 822.45 1157.99 822.457 1155.88 823.083C1152.54 822.68 1149.13 821.757 1145.83 821.074C1144.83 817.251 1141.02 817.685 1139.27 814.725C1137.22 811.263 1138.89 805.949 1135.46 802.947C1133.48 803.972 1133.34 805.112 1132.47 807.042C1133.51 803.769 1132.7 799.679 1133.62 796.173C1135.69 788.344 1139.2 780.839 1141.12 772.978C1143.33 763.912 1143.45 753.15 1144.12 743.819C1144.89 733.131 1143.89 720.422 1146.47 710.126C1148.04 703.846 1153.65 695.59 1152.79 689.176Z"/>
	<path fill="#1D1C2E" transform="matrix(0.498535 0 0 0.499023 0 -3.05176e-05)" d="M1134.68 189.098C1143.06 185.333 1149.93 179.242 1158.79 175.843C1169.19 171.856 1182.99 170.738 1193.35 175.483C1199.04 178.088 1207.41 184.85 1209.55 190.939C1210.35 193.231 1210.36 193.864 1209.36 196.015L1208.2 197.356C1206.33 196.256 1204.49 195.267 1202.51 194.396C1200.86 195.196 1200.87 195.202 1200.1 196.872L1198.02 195.187L1196.23 195.454C1195.77 205.214 1192.58 218.641 1185.56 225.847C1184.67 228.809 1183.96 231.352 1180.9 232.767C1174.08 235.916 1167.47 231.109 1161.85 238.134C1158.1 248.632 1175.68 267.612 1160.91 274.357C1157.82 275.773 1153.78 276.86 1150.43 277.499C1148.76 274.579 1146.13 272.418 1142.88 271.475C1141.21 270.989 1140.46 271.429 1138.83 271.909C1135.59 268.934 1131.14 265.85 1128.67 262.274C1124.05 255.577 1124.37 245.98 1118.64 239.822C1114.34 235.776 1107.75 234.799 1103.89 229.857C1100.23 225.167 1098.9 218.679 1099.75 212.858C1100.85 205.327 1105.25 198.175 1111.39 193.7C1118.79 188.316 1125.87 187.693 1134.68 189.098Z"/>
	<path fill="#111322" transform="matrix(0.498535 0 0 0.499023 0 -3.05176e-05)" d="M1200.1 196.872C1200.87 195.202 1200.86 195.196 1202.51 194.396C1204.49 195.267 1206.33 196.256 1208.2 197.356L1209.36 196.015C1210.4 197.333 1211.41 198.673 1212.57 199.882C1217.73 205.218 1221.8 218.166 1222.14 225.529C1222.16 226.126 1222.07 226.337 1221.92 226.85C1225.68 229.392 1232.57 233.318 1233.3 238.174C1233.68 240.695 1232.48 243.306 1230.92 245.283C1230.37 245.979 1229.77 246.636 1229.17 247.285C1231.51 253.519 1234.48 266.403 1231.66 272.622C1230.45 275.293 1227.9 277.054 1225.14 277.851C1219.29 279.543 1206.19 278.129 1202.03 281.741L1200.95 284.157C1202.78 287.106 1201.5 288.569 1202.49 290.941C1203.7 293.845 1210.47 297.262 1212.89 299.978C1226.6 315.408 1250.91 351.258 1248.07 373.107C1250.37 376.058 1252.03 384.912 1251.58 388.627C1251.5 389.295 1251.38 389.938 1251.2 390.586C1258.94 385.788 1297.02 335.798 1298.85 327.282C1299.01 326.518 1299.1 325.816 1299.14 325.04C1313.41 324.711 1346.81 321.464 1357.71 331.373C1358.44 332.043 1358.69 333.399 1359.02 334.336C1358.08 344.052 1331.82 370.286 1325.99 382.527C1322.94 388.946 1326.96 394.65 1325.23 400.62C1325.03 404.25 1323.5 406.776 1320.82 409.148C1319.79 410.066 1318.78 410.913 1317.59 411.62C1312.74 412.833 1307.98 413.652 1303.03 414.336C1302.14 420.206 1289.49 438.22 1284.55 441.892C1279.97 445.293 1268.38 443.969 1262.71 443.921C1261.52 449.548 1258.76 452.064 1254.01 455.167C1253.91 455.236 1253.8 455.297 1253.7 455.362C1255.98 457.89 1257.75 460.376 1259.17 463.479C1265.66 477.591 1269.93 493.708 1274.87 508.479C1290.29 554.589 1303.4 600.621 1314.21 648.034C1316 655.886 1319.91 666.715 1319.43 674.591C1319.36 675.613 1319.18 676.586 1318.93 677.576C1315.6 674.502 1311.56 671.999 1307.1 671.063C1314.28 693.586 1322.1 749.684 1322.8 774.059C1325.97 776.102 1335.1 781.071 1336.04 784.722C1338.26 788.73 1338.93 795.614 1338.13 800.108C1338.55 804.437 1339.11 806.474 1336.19 810.056Q1335.32 811.117 1334.41 812.149C1324.94 814.858 1316.34 818.643 1306.45 820.607C1305.8 822.815 1305.13 825.004 1304.34 827.169C1304.44 826.117 1304.54 825.046 1304.51 823.99C1304.47 822.392 1304.09 820.476 1302.73 819.62C1280.43 805.566 1295.09 791.99 1284.5 782.012C1285.19 774.305 1269.01 746.105 1265.66 736.022C1259.59 717.804 1261.93 705.926 1259.95 688.122C1259.2 681.36 1256.52 670.482 1250.88 665.978C1250.44 662.403 1248.1 658.62 1245.39 656.263C1238.83 657.241 1232.42 658.089 1225.79 658.279C1227.62 669.193 1223.61 714.556 1217.64 722.788C1217.53 722.937 1217.41 723.078 1217.29 723.224C1210.92 720.13 1204.8 716.683 1197.61 716.178C1195.35 717.493 1195.27 718.801 1194.37 721.114C1194.68 718.38 1195.27 715.703 1194.22 713.085C1186.41 706.329 1162.64 689.048 1152.79 689.176C1150.63 682.252 1135.22 673.761 1129.41 668.633C1115.58 656.451 1105.51 639.136 1090.79 628.364C1094.33 625.588 1096.64 617.306 1098.12 613.11C1103.64 597.528 1107.63 581.521 1112.47 565.735C1120.19 540.561 1132.68 503.756 1135.81 478.399C1137.23 466.903 1137.25 448.178 1132.01 437.683C1129.34 432.348 1117.24 429.519 1111.85 427.683C1124.5 398.285 1113.07 361.798 1124.52 332.114C1130.2 317.406 1142.11 305.202 1150.03 291.62C1153.36 285.904 1159.13 285.255 1162.07 278.578C1159.31 277.777 1155.78 279.473 1152.99 280.32C1148.21 279.457 1143.06 274.484 1138.83 271.909C1140.46 271.429 1141.21 270.989 1142.88 271.475C1146.13 272.418 1148.76 274.579 1150.43 277.499C1153.78 276.86 1157.82 275.773 1160.91 274.357C1175.68 267.612 1158.1 248.632 1161.85 238.134C1167.47 231.109 1174.08 235.916 1180.9 232.767C1183.96 231.352 1184.67 228.809 1185.56 225.847C1192.58 218.641 1195.77 205.214 1196.23 195.454L1198.02 195.187L1200.1 196.872ZM1214.25 452.496C1198.65 458.774 1170.97 474.291 1154.89 467.134C1148.32 464.209 1147.44 457.077 1142.04 453.286C1149.43 465.877 1140.54 499.197 1136.99 512.843C1133.03 528.034 1107.31 618.798 1100.28 627.216C1102.93 628.96 1138.81 665.917 1139.3 667.367C1139.35 667.506 1139.35 667.655 1139.38 667.8C1147.96 673.166 1155.18 680.483 1163.63 686.028C1174.89 693.413 1186.91 700.555 1198.68 707.118C1202.61 709.31 1206.78 710.908 1210.64 713.251C1218.44 703.786 1225.35 574.775 1225.82 553.195C1226.31 530.695 1226.49 507.966 1224.33 485.546C1223.5 476.862 1223.13 459.612 1217.43 452.894C1216.32 452.671 1215.39 452.477 1214.25 452.496ZM1119.46 423.487C1137.47 426.236 1163.04 436.599 1179.91 424.602C1180.07 424.485 1180.22 424.346 1180.38 424.218C1180.46 424.089 1180.56 423.965 1180.64 423.832C1185.82 415.187 1178.63 380.595 1175.85 370.91C1173.52 362.766 1170.24 352.701 1164.66 346.22C1161.23 342.242 1149.69 336.991 1148.05 333.06C1151.54 332.422 1157.28 335.753 1160.18 337.728C1177.34 349.425 1182.85 374.827 1186.21 394.131C1187.5 401.571 1190.79 418.966 1186.32 425.518C1196.01 424.522 1209.89 423.79 1217.72 417.531L1218.63 415.592C1218.11 414.258 1217.68 412.977 1216.78 411.841C1216.73 395.707 1181.05 350.904 1183.6 335.415C1183.99 335.703 1184.01 335.701 1184.42 336.068C1187.62 338.868 1199.64 360.677 1199.91 364.683C1199.92 364.905 1199.92 365.127 1199.93 365.349C1200.15 364.991 1200.35 364.622 1200.54 364.249C1202.66 360.122 1203.01 356.273 1201.61 351.85C1202.68 348.362 1201.43 344.349 1199.73 341.222C1197.21 336.601 1191.93 334.273 1187.08 332.955C1181.25 331.372 1175.48 330.498 1169.71 328.533C1169.78 321.936 1158.84 306.471 1154.26 301.729C1153.44 300.876 1152.56 300.112 1151.61 299.407C1151.74 307.043 1135.32 324.13 1132.17 333.92C1124.31 358.35 1131.7 405.216 1119.46 423.487ZM1337.23 334.5L1308.72 334.978C1307.27 341.793 1278.14 378.261 1271.46 388.454C1276.13 388.82 1279.73 388.792 1282.91 392.662C1286.3 396.786 1287.12 402.5 1286.5 407.659C1285.53 415.599 1281.23 426.013 1274.89 431.183C1271.01 434.344 1264.58 434.401 1261.77 438.501C1267.55 440.635 1273.37 440.277 1279.42 439.741C1283.08 437.604 1285.64 434.448 1288.16 431.116C1297.47 418.8 1305.3 404.932 1314.06 392.152C1321.03 381.988 1348.77 347.568 1351.46 338.998C1351.87 337.666 1351.82 336.157 1351.77 334.776C1346.88 334.321 1342.13 334.349 1337.23 334.5ZM1273.35 393.498C1267.81 396.128 1259.74 395.393 1253.6 395.436C1252.99 401.757 1245.7 411.289 1240.84 415.241C1220.04 432.147 1170.07 435.555 1143.38 435.161C1147.43 439.706 1148.22 447.573 1150.73 453.142C1151.98 455.918 1154.36 457.969 1155.58 460.504C1174.18 465.926 1200.63 453.668 1217.28 445.662C1223.9 442.477 1230.82 438.309 1237.79 436.047C1247.44 432.913 1259.37 435.015 1268.21 430.024C1274.07 426.724 1277.36 418.183 1278.93 412.029C1279.89 408.307 1280.65 404.063 1278.66 400.56C1278.54 400.355 1278.41 400.16 1278.29 399.96L1280.28 398.037C1279.87 395.497 1278.91 395.147 1277.08 393.566L1273.35 393.498ZM1211.69 229.496C1203.44 232.825 1194.44 234.45 1185.71 236.022C1188.86 241.366 1191.1 250.121 1189.64 256.258C1189.49 256.858 1189.43 257.023 1189.24 257.553C1187.94 260.563 1185.44 261.789 1182.76 263.431C1187.18 266.471 1191.55 269.707 1196.18 272.415C1202.8 273.915 1213.59 275.951 1219.6 271.989C1222.2 270.276 1223.64 267.54 1224.2 264.549C1225.74 256.424 1222.68 250.045 1225.14 241.743Q1225.29 241.239 1225.46 240.739L1225.18 239.713C1222.55 235.753 1219.44 231.9 1215.3 229.451L1211.69 229.496ZM1181.53 268.423C1177.49 272.494 1164.39 285.248 1164.48 290.636C1164.58 296.595 1199.63 328.055 1199.77 334.997L1203.28 336.171C1203.33 335.997 1203.36 335.82 1203.41 335.647C1206.16 325.921 1195.93 309.208 1194.4 298.87C1193.56 293.157 1196.67 288.141 1196.15 282.643C1196.13 282.475 1196.11 282.308 1196.09 282.141L1197.39 279.453C1195.51 276.536 1185.17 269.268 1181.53 268.423ZM1185.56 225.847C1186.16 226.078 1186.1 226.075 1186.66 226.232C1193.96 228.292 1206.26 225.318 1212.77 221.721C1213.55 220.014 1213.3 218.514 1212.97 216.723C1211.46 208.389 1207.06 201.689 1200.1 196.872L1198.02 195.187L1196.23 195.454C1195.77 205.214 1192.58 218.641 1185.56 225.847ZM1156.8 294.141C1160.86 301.44 1171.39 325.704 1178.49 327.974C1180.54 328.629 1182.44 328.514 1184.49 327.981C1184.61 322.597 1163.97 300.397 1159.3 295.064L1156.8 294.141ZM1166.51 238.478C1165.06 241.799 1164.58 243.39 1165.98 246.955C1168.28 252.775 1171.72 260.137 1176.27 264.424L1177.86 264.623C1177.98 263.184 1177.82 260.292 1178.33 259.056C1179.67 255.779 1185.04 255.089 1182.26 250.506C1181.11 247.414 1179.48 245.033 1176.35 243.696C1175.22 243.214 1174.01 242.981 1172.8 242.779L1171.58 243.968C1171.9 247.55 1173.17 250.842 1174.33 254.22L1173.31 255.208C1171.44 254.449 1171.22 253.664 1170.48 251.869C1168.43 246.92 1172.41 239.441 1170 238.151L1166.51 238.478ZM1238.66 443.156C1242.32 445.618 1244.83 450.857 1248.93 451.945C1249.37 451.722 1249.82 451.498 1250.25 451.253C1253.27 449.521 1256.95 446.647 1257.94 443.181C1257.62 441.629 1257.72 440.818 1256.45 439.774C1254.45 438.14 1251.86 437.73 1249.35 437.989C1245.06 438.431 1241.37 439.859 1238.66 443.156ZM1229.73 628.495C1229.49 634.414 1226.54 645.627 1230.37 650.182C1232.88 650.623 1234.89 649.886 1237.26 649.162L1240 647.919C1240.92 642.803 1236.25 635.077 1233.38 630.903C1232.35 629.397 1231.46 628.872 1229.73 628.495Z"/>
	<path fill="#1D1C2E" transform="matrix(0.498535 0 0 0.499023 0 -3.05176e-05)" d="M1307.23 329.5C1316.84 328.458 1327.56 328.906 1337.22 329.367C1333.91 331.023 1320.53 329.859 1315.17 330.861C1306.42 330.917 1303.14 335.842 1297.18 341.565L1296.39 341.271C1296.49 340.582 1296.58 340.006 1296.88 339.366C1298.89 335.002 1302.72 331.116 1307.23 329.5Z"/>
	<path fill="#2E2E3E" transform="matrix(0.498535 0 0 0.499023 0 -3.05176e-05)" d="M1196.09 282.141L1199.9 282.46L1200.95 284.157C1202.78 287.106 1201.5 288.569 1202.49 290.941C1203.7 293.845 1210.47 297.262 1212.89 299.978C1226.6 315.408 1250.91 351.258 1248.07 373.107C1249.44 380.085 1247.66 388.791 1247.84 396.055L1247.25 394.365L1245.94 393.782C1245.97 393.175 1245.98 392.578 1245.97 391.97C1245.95 391.304 1245.95 390.632 1245.93 389.966C1245.75 383.884 1243.77 376.918 1239.35 372.837C1241.23 383.996 1244.15 403.898 1237.04 413.525C1235.37 415.789 1233 417.461 1230.17 417.844C1227.6 418.19 1224.67 417.646 1222.12 417.311C1220.15 413.841 1220.86 413.076 1216.78 411.841C1216.73 395.707 1181.05 350.904 1183.6 335.415C1183.99 335.703 1184.01 335.701 1184.42 336.068C1187.62 338.868 1199.64 360.677 1199.91 364.683C1199.92 364.905 1199.92 365.127 1199.93 365.349C1200.15 364.991 1200.35 364.622 1200.54 364.249C1202.66 360.122 1203.01 356.273 1201.61 351.85C1204.31 356.216 1203.27 361.642 1202.89 366.526L1203.89 367.028C1204.61 365.176 1205.04 363.394 1205.29 361.426C1206.69 350.262 1206.82 344.099 1199.77 334.997L1203.28 336.171C1203.33 335.997 1203.36 335.82 1203.41 335.647C1206.16 325.921 1195.93 309.208 1194.4 298.87C1193.56 293.157 1196.67 288.141 1196.15 282.643C1196.13 282.475 1196.11 282.308 1196.09 282.141Z"/>
	<path fill="#1D1C2E" transform="matrix(0.498535 0 0 0.499023 0 -3.05176e-05)" d="M1196.09 282.141L1199.9 282.46L1200.95 284.157C1202.78 287.106 1201.5 288.569 1202.49 290.941C1203.7 293.845 1210.47 297.262 1212.89 299.978C1226.6 315.408 1250.91 351.258 1248.07 373.107C1249.44 380.085 1247.66 388.791 1247.84 396.055L1247.25 394.365L1245.94 393.782C1245.97 393.175 1245.98 392.578 1245.97 391.97C1245.95 391.304 1245.95 390.632 1245.93 389.966C1245.75 383.884 1243.77 376.918 1239.35 372.837C1240.09 371.348 1240.49 369.899 1240.58 368.233C1241.26 355.709 1231.7 339.597 1223.55 330.571C1222.86 331.373 1222.17 332.036 1221.36 332.711C1221.04 332.583 1220.73 332.468 1220.42 332.325C1218.24 331.311 1215.44 327.392 1214.67 325.154C1214.32 324.151 1214.2 323.861 1213.34 323.217C1209.42 320.278 1205.17 309.739 1202.73 308.365C1200.98 312.828 1210.25 327.12 1206.57 335.352L1203.28 336.171C1203.33 335.997 1203.36 335.82 1203.41 335.647C1206.16 325.921 1195.93 309.208 1194.4 298.87C1193.56 293.157 1196.67 288.141 1196.15 282.643C1196.13 282.475 1196.11 282.308 1196.09 282.141Z"/>
	<path fill="#2E2E3E" transform="matrix(0.498535 0 0 0.499023 0 -3.05176e-05)" d="M1250.88 665.978C1251.34 665.414 1252.4 664.437 1252.65 663.811C1254.05 660.38 1240.95 638.622 1238.68 634.629C1235.68 629.365 1231.63 623.538 1230.53 617.556C1228.4 606.076 1230.62 590.9 1230.98 579.064C1231.88 550.233 1233.21 520.339 1229.4 491.664C1228.09 481.843 1221.41 460.429 1223.09 452.762C1223.65 450.201 1224.58 447.48 1227.01 446.122C1230.45 444.207 1234.9 442.197 1238.66 443.156C1242.32 445.618 1244.83 450.857 1248.93 451.945C1247.06 457.429 1252.81 469.933 1254.31 475.864C1257.1 486.904 1258.56 498.224 1261.53 509.245C1266.41 527.346 1273.21 545.003 1279.26 562.745C1285.62 581.429 1291.37 600.695 1295.68 619.957C1298.13 630.899 1302.38 661.28 1306.13 669.304C1306.42 669.916 1306.74 670.493 1307.1 671.063C1314.28 693.586 1322.1 749.684 1322.8 774.059C1325.97 776.102 1335.1 781.071 1336.04 784.722C1338.26 788.73 1338.93 795.614 1338.13 800.108C1338.55 804.437 1339.11 806.474 1336.19 810.056Q1335.32 811.117 1334.41 812.149C1324.94 814.858 1316.34 818.643 1306.45 820.607C1305.8 822.815 1305.13 825.004 1304.34 827.169C1304.44 826.117 1304.54 825.046 1304.51 823.99C1304.47 822.392 1304.09 820.476 1302.73 819.62C1280.43 805.566 1295.09 791.99 1284.5 782.012C1285.19 774.305 1269.01 746.105 1265.66 736.022C1259.59 717.804 1261.93 705.926 1259.95 688.122C1259.2 681.36 1256.52 670.482 1250.88 665.978Z"/>
	<path fill="#2E2E3E" transform="matrix(0.498535 0 0 0.499023 0 -3.05176e-05)" d="M1896.3 374.5C1912.6 373.801 1937.03 371.552 1949.81 383.473C1954.36 387.719 1955.95 396.36 1956.66 402.349C1959.94 429.688 1957.37 469.688 1956.57 497.894C1955.86 522.442 1956.44 546.846 1956.98 571.382C1957.38 589.669 1961.39 626.851 1947.8 640.603C1941.7 646.776 1932.11 648.399 1923.8 649.027C1903.4 650.57 1882.64 648.746 1862.18 648.691L1731.76 648.685L1325.75 648.828C1325.41 648.808 1325.07 648.824 1324.74 648.77C1320.88 648.139 1320.28 635.064 1319.64 631.457C1310.92 582.722 1290.59 529.896 1274.52 482.859C1271.69 474.595 1269.26 461.138 1264.25 454.335C1271.76 453.302 1279.84 453.194 1287.12 451.126C1297.06 445.013 1300.99 431.077 1309.34 423.001C1315.24 417.305 1324.55 415.6 1329.66 409.144C1334.65 402.826 1333.72 393.013 1332.76 385.521L1332.83 386.038C1336.39 382.197 1340.23 379.287 1344.02 375.777C1473.14 372.953 1602.64 374.917 1731.8 375.059C1786.44 375.119 1841.74 377.019 1896.3 374.5ZM1819.47 391.5C1817.38 402.49 1818.77 416.283 1818.64 427.55C1818.32 456.574 1822.49 616.835 1816.35 630.716C1830.82 631.376 1923.66 634.164 1931.17 629.171C1934.41 628.062 1936.93 627.106 1938.5 623.763C1940.89 618.686 1940.8 428.373 1939.98 409.102C1939.88 406.628 1939.58 404.273 1938.61 401.975C1937 398.18 1933.71 395.432 1929.93 393.945C1916.1 388.509 1838.3 390.142 1819.47 391.5ZM1709.41 460.499C1692.69 465.271 1681.47 471.31 1672.68 486.965Q1671.74 488.687 1670.88 490.453Q1670.02 492.219 1669.24 494.025Q1668.47 495.831 1667.79 497.672Q1667.1 499.513 1666.51 501.386Q1665.92 503.258 1665.42 505.158Q1664.92 507.057 1664.51 508.978Q1664.11 510.9 1663.79 512.839Q1663.48 514.778 1663.26 516.73Q1663.04 518.682 1662.92 520.642Q1662.8 522.602 1662.77 524.566Q1662.75 526.53 1662.82 528.493Q1662.89 530.456 1663.05 532.413Q1663.22 534.37 1663.48 536.316Q1663.74 538.263 1664.09 540.195Q1664.45 542.126 1664.9 544.038Q1665.35 545.95 1665.89 547.838C1669.64 561.05 1677.23 573.809 1689.53 580.626C1704.79 589.085 1727.83 588.406 1744.19 583.48C1749 582.031 1755.05 579.506 1757.46 574.729C1758.59 572.48 1758.53 569.941 1757.67 567.611C1756.64 564.858 1754.48 560.929 1752.22 559.026C1740.77 553.171 1720.14 571.003 1703.36 557.689C1695.34 551.324 1694 538.217 1687.96 532.886C1701.72 532.921 1749.26 537.493 1758.58 529.34C1762.03 526.323 1762.6 520.59 1762.6 516.325C1762.59 500.917 1757.36 483.11 1746.15 472.215C1737.56 463.858 1726.41 459.822 1714.5 460.1Q1711.95 460.177 1709.41 460.499ZM1510.76 460.499C1501.88 462.414 1488.34 464.04 1482.96 472.373C1480.97 475.454 1480.93 480.936 1481.8 484.417C1482.34 486.614 1483.39 488.438 1485.36 489.635C1489.48 492.133 1495.57 490.6 1499.83 489.281C1508.75 486.515 1517.94 481.848 1527.18 486.462Q1527.6 486.674 1528.01 486.907Q1528.42 487.14 1528.82 487.393Q1529.21 487.646 1529.6 487.918Q1529.98 488.19 1530.35 488.482Q1530.72 488.773 1531.07 489.082Q1531.43 489.392 1531.77 489.718Q1532.11 490.045 1532.43 490.388Q1532.75 490.732 1533.06 491.09Q1533.36 491.449 1533.65 491.823Q1533.93 492.197 1534.2 492.584Q1534.47 492.971 1534.72 493.372Q1534.96 493.772 1535.19 494.184Q1535.42 494.596 1535.63 495.019Q1535.83 495.442 1536.02 495.875Q1536.2 496.308 1536.37 496.749Q1536.53 497.191 1536.67 497.64C1537.65 500.79 1538.68 504.666 1537.91 507.946C1529.49 513.796 1483.21 501.346 1476.36 538.491C1474.69 547.549 1477.87 567.669 1483.58 575.444C1484.05 576.087 1484.62 576.635 1485.1 577.257C1485.16 577.333 1485.19 577.429 1485.24 577.515C1497.99 585.114 1510.22 588.57 1525.04 584.898C1530.18 583.624 1536.53 580.109 1539.2 575.335C1539.8 574.259 1540.27 573.177 1540.43 571.949L1541.13 572.532C1545.68 576.417 1549.06 585.195 1555.9 585.085C1558.31 585.046 1559.96 584.107 1561.91 582.81C1566.53 574.001 1565.03 512.539 1563.89 499.818Q1563.53 495.904 1562.76 492.048Q1562 488.192 1560.84 484.435C1557.97 475.184 1554.41 470.302 1545.57 465.76C1534.89 460.279 1522.52 459.202 1510.76 460.499ZM1411.31 420.499C1391.68 424.175 1373.39 432.694 1361.83 449.655C1347.46 470.758 1345.04 501.95 1349.74 526.425C1353.57 546.33 1362.85 564.135 1379.95 575.744C1397.45 587.63 1421.12 589.241 1441.38 585.272C1448.12 583.951 1457.99 581.247 1462.18 575.522C1463.29 574.01 1463.89 571.888 1463.51 570.053C1462.82 566.682 1460.15 562.928 1457.29 561.052L1457.82 557.399C1456.57 555.735 1456.43 555.285 1454.26 554.886C1447.79 553.694 1438.49 557.931 1432.06 559.191C1415.29 562.475 1395.71 555.119 1385.55 541.42C1375.1 527.34 1373.77 507.678 1376.47 490.862C1378.56 477.828 1384.27 463.702 1395.18 455.689C1403.85 449.324 1414.89 447.371 1425.39 449.116C1433.59 450.479 1448.7 456.323 1455.92 450.984C1458.55 449.039 1459.42 446.147 1459.72 443.035C1460.12 438.742 1459.25 432.959 1456.42 429.534C1450.02 421.802 1433.59 420.633 1424.16 420.217C1419.92 420.03 1415.54 420.129 1411.31 420.499ZM1615.07 484.599C1616.74 479.932 1617.3 474.39 1615.12 469.789C1613.2 465.738 1609.4 462.731 1605.19 461.305C1602.64 460.44 1599.62 460.257 1596.95 460.499C1593.64 462.446 1590.85 464.07 1589.74 468.021C1587.27 476.734 1591.68 488.267 1592.23 497.274C1593.32 515.141 1592.4 534.443 1591.67 552.363C1591.45 557.786 1587.62 575.713 1589.81 579.557C1591.47 582.461 1595.51 583.968 1598.61 584.676C1604.11 585.935 1609.8 585.868 1614.97 583.502C1618.47 580.285 1618.93 575.297 1619.14 570.785C1619.53 562.104 1619.49 544.221 1615.44 536.488C1620.14 523.49 1612.72 504.84 1629.22 497.048C1637.76 493.009 1651.25 495.15 1654.98 485.016C1657.11 479.235 1658.09 471.612 1655.36 465.852C1654.09 463.173 1651.93 461.156 1649.07 460.26C1644.95 458.966 1639.94 459.852 1636.23 461.963C1627.09 467.172 1623.27 478.211 1615.07 484.599Z"/>
	<path fill="#2E2E3E" transform="matrix(0.498535 0 0 0.499023 0 -3.05176e-05)" d="M1514.69 530.499C1521.89 529.307 1529.39 530.065 1536.55 531.13C1537.13 532.184 1537.61 533.29 1537.84 534.475C1539.21 541.525 1538.65 548.737 1534.6 554.841C1531.74 559.162 1528.24 561.591 1523.18 562.569C1522.98 562.627 1522.79 562.698 1522.59 562.744C1518.66 563.659 1511.9 563.563 1508.53 561.062C1499.75 554.562 1505.05 544.692 1503.72 538.166C1503.69 538.028 1503.66 537.893 1503.62 537.756C1507.49 535.615 1511.07 533.014 1514.69 530.499Z"/>
	<path fill="#2E2E3E" transform="matrix(0.498535 0 0 0.499023 0 -3.05176e-05)" d="M1708.46 483.499C1711.89 483.06 1715.23 482.642 1718.57 483.797C1724.53 485.852 1730.33 490.668 1733.06 496.381C1734.73 499.865 1736.04 505.763 1734.79 509.494C1728.41 510.407 1721.22 509.824 1714.75 509.843L1687.43 509.811C1696.93 501.281 1692.61 492.365 1708.46 483.499Z"/>
	<path fill="#2E2E3E" transform="matrix(0.498535 0 0 0.499023 0 -3.05176e-05)" d="M920.498 366.419C943.793 364.562 965.795 374.386 988.994 375.03C1004.08 375.45 1099.64 373.102 1107.47 375.921C1115.91 384.699 1102.97 413.576 1105.43 426.346C1107.21 435.599 1116.63 438.076 1123.49 442.654C1124.53 444.399 1125.15 446.158 1125.73 448.091C1128.49 457.211 1128.78 466.301 1127.55 475.683C1124.44 499.421 1092.52 611.224 1081.67 631.713C1083.85 632.581 1086.2 634.218 1087.96 635.762C1091.37 638.759 1095.11 643.799 1095.34 648.473C1084.32 649.188 1072.89 648.376 1061.82 648.241C1035.81 647.925 1009.67 647.217 983.677 648.412C962.715 649.376 942.27 656.747 921.408 656.337C899.325 655.903 878.359 648.646 855.958 648.665L325.75 648.639L188.502 648.52C165.454 648.558 141.428 651.078 118.557 648.137C112.501 647.358 106.98 645.595 102.248 641.58C95.9674 636.25 93.7142 627.94 93.0414 620.031C92.171 609.8 92.9467 599.15 92.9744 588.874Q92.9268 563.933 92.5788 538.994L92.1829 456.437C92.1688 439.136 91.5704 421.221 93.2082 404.013C93.813 397.659 94.8513 389.621 99.1319 384.669C104.773 378.143 110.446 376.45 118.736 375.588C142.064 373.164 166.396 374.9 189.862 374.94L322.591 374.977L695.678 374.965L804.063 375.019C821.097 375.106 838.18 375.988 855.207 375.603C877.724 375.095 898.257 368.196 920.498 366.419ZM915.797 383.389C878.935 387.825 845.714 403.269 822.4 432.878C801.537 459.374 792.821 492.558 796.824 525.956Q797 527.482 797.213 529.003Q797.427 530.524 797.677 532.039Q797.928 533.555 798.215 535.063Q798.503 536.572 798.827 538.073Q799.151 539.574 799.512 541.067Q799.873 542.56 800.271 544.044Q800.668 545.527 801.102 547.001Q801.536 548.474 802.005 549.937Q802.475 551.399 802.98 552.849Q803.486 554.3 804.026 555.737Q804.567 557.175 805.143 558.599Q805.718 560.023 806.329 561.432Q806.939 562.841 807.584 564.236Q808.229 565.63 808.907 567.007Q809.586 568.385 810.298 569.746Q811.01 571.107 811.755 572.45Q812.501 573.793 813.279 575.117Q814.057 576.441 814.867 577.746Q815.677 579.051 816.519 580.336Q817.361 581.62 818.234 582.884Q819.107 584.148 820.01 585.39Q820.914 586.631 821.848 587.851Q822.782 589.07 823.745 590.266Q824.709 591.463 825.701 592.635Q826.694 593.807 827.714 594.955Q828.735 596.102 829.784 597.224Q830.833 598.346 831.908 599.443Q832.984 600.539 834.086 601.608Q835.189 602.678 836.317 603.72Q837.445 604.762 838.598 605.777Q839.752 606.791 840.93 607.777Q842.107 608.762 843.309 609.719C868.238 629.22 902.462 640.707 934.242 637.8C971.175 631.793 1005.99 616.868 1028.5 585.644C1048.41 558.02 1057.47 524.453 1051.89 490.689Q1051.62 489.142 1051.31 487.602Q1051.01 486.062 1050.66 484.53Q1050.32 482.998 1049.93 481.475Q1049.55 479.952 1049.13 478.439Q1048.71 476.925 1048.25 475.423Q1047.8 473.92 1047.3 472.43Q1046.81 470.939 1046.28 469.461Q1045.75 467.983 1045.18 466.518Q1044.62 465.053 1044.01 463.603Q1043.41 462.153 1042.77 460.717Q1042.14 459.282 1041.46 457.863Q1040.79 456.444 1040.08 455.042Q1039.38 453.64 1038.63 452.256Q1037.89 450.871 1037.12 449.506Q1036.34 448.14 1035.53 446.794Q1034.73 445.448 1033.88 444.122Q1033.04 442.796 1032.17 441.491Q1031.29 440.186 1030.39 438.903Q1029.48 437.62 1028.55 436.36Q1027.61 435.099 1026.64 433.862Q1025.68 432.625 1024.68 431.412Q1023.68 430.199 1022.65 429.011Q1021.63 427.823 1020.57 426.661Q1019.51 425.498 1018.43 424.362Q1017.35 423.226 1016.23 422.117Q1015.12 421.008 1013.98 419.926Q1012.85 418.845 1011.68 417.791Q1010.52 416.738 1009.33 415.714Q1008.14 414.689 1006.92 413.695Q1005.71 412.7 1004.47 411.735Q1003.23 410.77 1001.96 409.837Q1000.7 408.903 999.417 408C976.022 391.424 944.713 380.686 915.797 383.389ZM363.036 477.903C355.707 469.323 348.313 461.755 336.298 460.824C328.243 460.2 320.369 463.37 314.357 468.645Q312.362 470.361 310.582 472.299Q308.803 474.238 307.263 476.372C305.42 471.294 303.885 465.641 298.643 463.059C295.816 461.667 292.319 461.425 289.219 461.247C286.148 461.77 282.781 462.042 280.815 464.749C278.519 467.912 278.042 472.281 277.916 476.078C277.544 487.348 279.872 498.839 280.171 510.144C280.684 529.517 277.542 556.411 281.017 574.758C281.501 577.319 282.219 582.083 284.424 583.69C287.57 585.984 293.591 586.614 297.365 585.94C300.503 585.38 303.117 583.787 304.92 581.144C316.889 563.596 293.282 494.353 322.402 487.952C326.004 487.161 331.57 486.999 334.78 489.06C339.507 492.096 341.225 498.415 342.064 503.621C345.731 526.368 338.733 557.175 342.386 575.082C343.087 578.52 344.71 581.653 347.574 583.759C350.65 586.021 354.869 586.689 358.584 586.054C362.5 585.385 366.267 583.326 368.585 580.048C370.121 577.877 371.054 575.045 371.224 572.396C371.567 567.067 370.47 561.367 370.251 555.988C369.616 540.367 369.147 523.681 371.893 508.254C372.793 502.1 374.234 494.372 379.642 490.49C382.934 488.126 387.993 486.218 392.086 486.993C395.418 487.625 397.841 490.012 399.536 492.808C411.091 511.871 397.948 562.725 404.271 579.422C405.266 582.047 407.638 583.61 410.258 584.327C414.139 585.389 422.639 586.378 426.295 584.414C429.875 582.49 432.087 579.266 432.97 575.351C434.539 568.401 433.081 559.284 433.092 552.052C433.127 528.827 437.457 494.993 424.061 474.744C419.384 467.674 412.584 462.903 404.213 461.34C393.687 459.375 382.244 461.201 373.475 467.491C369.406 470.41 366.311 474.169 363.036 477.903ZM192.116 420.282C187.551 422.828 184.982 429.533 182.961 434.235C174.186 454.65 168.828 477.042 162.209 498.248C156.107 517.794 148.943 537.009 143.317 556.736C141.254 563.966 137.436 575.408 140.937 582.495C144.901 585.31 153.723 587.391 158.539 586.429C162.386 585.661 165.261 582.951 167.179 579.656C172.74 570.104 173.95 547.257 180.864 541.959C190.651 540.201 202.279 541.756 212.25 541.908L225.735 541.962C230.349 555.724 230.651 576.909 244.883 584.17C248.763 586.15 254.011 587.532 258.293 586.1C260.575 585.337 262.196 583.517 263.07 581.311C264.633 577.368 262.969 571.984 262.056 567.983C257.534 548.166 250.278 528.901 244.388 509.465C237.427 486.49 227.628 446.624 217.384 426.745C215.809 423.688 214.23 422.326 210.908 421.323C205.379 419.654 197.865 419.964 192.116 420.282ZM696.595 461.37C682.211 463.02 670.649 467.715 661.436 479.45C649.691 494.413 644.098 516.097 646.575 534.895C648.569 550.03 655.323 566.921 667.733 576.388C681.683 587.03 701.935 588.385 718.725 585.931C724.646 585.066 730.434 583.536 736.144 581.764C739.18 578.836 742.254 576.183 742.15 571.587C742.074 568.175 739.884 564.455 738.187 561.58C726.649 553.722 681.993 578.337 674.936 541.582C674.576 539.707 674.478 538.519 675.057 536.671C677.463 533.668 681.306 532.842 684.974 532.462C698.117 531.097 734.813 538.071 743.51 527.964C747.537 523.285 746.176 513.831 745.364 508.158C743.59 495.753 739.07 479.248 728.685 471.357C718.485 463.607 708.974 461.923 696.595 461.37ZM488.915 461.351C479.691 462.562 466.905 464.103 460.734 471.849C458.055 475.211 458.216 479.061 458.728 483.085C459.158 486.467 460.023 488.663 462.672 490.975C478.305 497.666 501.149 468.383 512.074 495.929C513.866 500.449 514.524 505.37 515.263 510.152C498.097 509.591 477.778 508.38 464.114 520.877C456.341 527.986 453.516 537.85 453.146 548.092C452.758 558.802 455.394 569.038 462.832 577.01C462.976 577.164 463.123 577.313 463.268 577.464C472.545 583.94 482.881 587.99 494.379 586.088C504.024 584.493 511.199 579.109 517.732 572.168C520.414 577.773 522.986 582.126 529.051 584.451C531.036 585.211 533.324 585.24 535.25 584.286C537.939 582.953 539.783 580.487 540.61 577.648C544.638 563.809 542.417 511.455 539.749 495.68C538.683 489.377 536.709 482.365 533.54 476.794C529.309 469.358 520.82 464.867 512.809 462.756C505.376 460.799 496.564 460.215 488.915 461.351ZM595.711 462.467C586.616 462.679 567.133 460.359 560.427 467.491C558.195 469.864 557.274 473.171 557.441 476.381C557.572 478.903 558.689 481.101 560.562 482.781C569.644 490.927 594.136 487.548 605.638 487.192C595.902 502.418 555.378 559.718 558.542 576.022C559.037 578.576 559.94 580.101 562.132 581.589C571.253 587.783 592.168 585.416 603.082 585.279C612.556 585.15 630.405 586.985 637.388 580.086C639.481 578.017 640.376 575.284 640.296 572.381C640.205 569.107 639.073 566.294 636.601 564.083C626.959 555.462 603.091 558.739 590.727 559.492C598.16 548.799 604.451 537.335 611.341 526.291C619.118 513.827 628.169 501.377 634.315 488.055C636.535 483.242 639.679 475.694 638.673 470.292C638.216 467.836 636.935 466.637 634.865 465.436C625.625 460.075 606.255 462.172 595.711 462.467Z"/>
	<path fill="#2E2E3E" transform="matrix(0.498535 0 0 0.499023 0 -3.05176e-05)" d="M496.361 530.299C502.479 529.744 508.738 530.011 514.88 530.023C514.575 536.863 514.51 543.678 514.519 550.524C510.37 555.872 506.695 560.062 500.547 563.104C496.214 563.37 491.947 563.636 488.086 561.307C484.59 559.199 482.084 555.581 481.146 551.625C480.088 547.165 481.118 542.152 483.624 538.344C486.918 533.34 490.686 531.589 496.361 530.299Z"/>
	<path fill="#2E2E3E" transform="matrix(0.498535 0 0 0.499023 0 -3.05176e-05)" d="M691.863 484.153L693.242 484.054C702.54 483.441 707.712 485.218 714.719 491.363C716.993 497.71 719.019 504 720.706 510.528L702.612 510.659C698.055 510.915 693.475 511.224 688.912 511.293C684.282 511.364 678.905 510.558 675.446 507.258C674.549 505.066 674.176 504.494 674.744 502.112C676.157 496.184 686.672 487.238 691.863 484.153Z"/>
	<path fill="#2E2E3E" transform="matrix(0.498535 0 0 0.499023 0 -3.05176e-05)" d="M200.883 465.274L203 466.168C208.71 474.977 215.171 504.143 217.41 515.384C215.157 516.559 208.685 515.667 205.929 515.622L187.259 515.461C191.234 498.787 194.771 481.321 200.883 465.274Z"/>
	<path fill="#2E2E3E" transform="matrix(0.498535 0 0 0.499023 0 -3.05176e-05)" d="M898.939 433.341C912.128 433.07 925.663 432.195 938.827 432.758C944.156 432.986 949.866 433.944 953.566 438.169C961.515 447.246 957.812 467.657 956.867 479.043C968.219 478.84 989.583 475.861 999.213 481.466C1004.95 489.262 1003.95 509.546 1003.46 518.959C1003.14 525.124 1002.63 537.161 997.757 541.316C992.111 546.126 965.017 543.395 956.728 542.967C957.37 553.488 958.905 564.919 957.511 575.381C956.765 580.982 955.557 584.081 951.016 587.518C939.889 588.679 922.421 588.525 910.915 588.626C906.184 588.668 901.264 587.894 897.8 584.384C889.502 575.977 892.211 554.295 892.435 543.128C878.305 543.758 864.767 544.513 850.725 542.239C847.526 531.276 847.368 520.751 847.288 509.422C847.23 501.24 845.811 488.326 852.162 482.187C859.221 475.363 883.788 478.837 893.658 478.834C893.021 468.285 891.451 456.916 892.811 446.429C893.52 440.963 894.414 436.802 898.939 433.341Z"/>
</svg>