<?xml version="1.0" encoding="utf-8" ?>
<svg xmlns="http://www.w3.org/2000/svg" xmlns:xlink="http://www.w3.org/1999/xlink" width="1677" height="838">
	<path fill="#27272F" transform="matrix(0.818848 0 0 0.818359 0.000488281 0)" d="M1443.87 474.499C1446.41 474.176 1448.61 474.127 1451.16 474.3C1453.37 476.143 1454.56 477.889 1454.71 480.893C1454.91 484.859 1451.74 492.224 1449.07 495.063C1446.12 495.188 1442.9 495.171 1440.03 495.966C1421.51 501.109 1436.64 538.434 1428.54 552.5C1422.94 553.228 1416.96 552.701 1411.31 552.59C1406.56 548.048 1415.12 485.24 1407.93 474.787C1413.05 474.671 1420.76 473.555 1425.54 475.329C1429.45 476.778 1429.67 479.525 1431.12 482.935C1435.34 481.967 1439.55 476.751 1443.87 474.499Z"/>
	<path fill="#27272F" transform="matrix(0.818848 0 0 0.818359 0.000488281 0)" d="M668.742 129.358C673.438 131.245 672.917 148.107 681.585 153.762C686.436 156.926 693.177 155.591 698.466 154.531C704.931 153.235 710.493 149.932 716.252 146.85C721.153 156.059 725.496 164.986 728.735 174.936C726.223 178.756 723.889 181.85 720.394 184.815C716.617 187.679 711.614 190.101 707.119 191.607C698.383 194.532 689.503 194.244 681.239 190.034Q680.36 189.576 679.505 189.075Q678.65 188.573 677.821 188.029Q676.992 187.486 676.191 186.901Q675.391 186.316 674.62 185.692Q673.85 185.069 673.112 184.407Q672.374 183.745 671.67 183.047Q670.966 182.349 670.298 181.617Q669.63 180.884 668.999 180.119Q668.369 179.354 667.777 178.559Q667.186 177.763 666.635 176.939Q666.084 176.115 665.576 175.264Q665.067 174.413 664.601 173.538Q664.136 172.663 663.715 171.765Q663.294 170.868 662.918 169.95Q662.543 169.033 662.214 168.098Q661.885 167.162 661.603 166.212C657.466 152.539 662.271 141.165 668.742 129.358Z"/>
	<path fill="#27272F" transform="matrix(0.818848 0 0 0.818359 0.000488281 0)" d="M1132.99 474.499C1143.88 473.691 1155.16 474.222 1166.08 474.384C1172.03 474.473 1181.52 473.271 1185.74 477.63C1186.31 479.68 1186.48 481.351 1186.07 483.429C1183.86 494.433 1158.57 528.641 1149.36 534.957Q1167.78 534.696 1186.19 535.109C1186.34 535.314 1186.49 535.513 1186.63 535.723C1188.21 538.079 1188.38 543.846 1187.73 546.583C1186.94 549.878 1186.06 550.623 1183.23 552.456C1176.58 555.135 1134.73 552.72 1124.85 552.616C1126.73 548.116 1124.66 542.779 1126.63 538.723C1130.63 530.501 1146.51 515.633 1152.67 506.03C1155 502.394 1158.77 496.203 1157.78 491.781L1129.01 491.968C1131.88 487.712 1129.12 480.711 1130.56 475.593L1132.99 474.499Z"/>
	<path fill="#27272F" transform="matrix(0.818848 0 0 0.818359 0.000488281 0)" d="M1486.12 473.5C1493.59 473.466 1499.6 474.019 1506.14 478.026Q1506.81 478.438 1507.45 478.882Q1508.1 479.327 1508.72 479.804Q1509.34 480.281 1509.94 480.788Q1510.53 481.296 1511.1 481.833Q1511.68 482.37 1512.22 482.936Q1512.76 483.501 1513.27 484.093Q1513.79 484.685 1514.27 485.303Q1514.75 485.92 1515.2 486.561Q1515.65 487.202 1516.07 487.865Q1516.49 488.528 1516.87 489.211Q1517.26 489.894 1517.6 490.596Q1517.95 491.298 1518.27 492.016Q1518.58 492.735 1518.85 493.468Q1519.13 494.201 1519.37 494.948Q1519.61 495.694 1519.81 496.452Q1520.01 497.209 1520.17 497.976C1521.35 503.423 1521.1 514.16 1518.06 518.983C1508.12 518.742 1487.62 516.019 1479.4 521.235C1477.22 522.616 1477.17 523.649 1476.75 525.985C1478.97 532.526 1483.99 534.6 1489.19 538.447C1496.72 538.146 1503.93 536.672 1511.06 534.316C1513.92 536.079 1516.54 539.229 1517.34 542.501C1517.9 542.824 1518.59 543.169 1519.02 543.673C1520.34 545.233 1520.34 546.096 1520.01 548.009C1516.82 551.616 1511.2 552.686 1506.66 553.657C1494.88 556.171 1482.22 555.449 1471.93 548.636C1463.51 543.057 1458.28 534.221 1456.43 524.38C1454.16 512.324 1456.35 497.331 1463.56 487.176C1469 479.494 1476.9 474.966 1486.12 473.5ZM1484.56 489.498C1480.94 495.203 1477.38 502.018 1472.49 506.677Q1480.68 506.734 1488.86 506.622C1491.89 506.642 1495.69 507.106 1498.02 504.803C1499.49 503.348 1500.35 501.558 1500.3 499.46C1500.23 496.468 1498.28 493.697 1496.07 491.829C1493.59 489.743 1490.55 488.753 1487.32 489.091C1486.4 489.188 1485.48 489.338 1484.56 489.498Z"/>
	<path fill="#27272F" transform="matrix(0.818848 0 0 0.818359 0.000488281 0)" d="M1216.92 473.498C1225.19 472.542 1231.76 472.894 1239.11 477.175C1247.3 481.936 1253.07 490.308 1255.3 499.454C1256.57 504.643 1256.96 515.209 1254.03 519.899Q1232.81 519.544 1211.59 519.857C1214.3 524.681 1215.56 530.547 1219.43 534.635C1224.83 540.345 1238.78 534.549 1246.13 534.682C1248.36 535.948 1248.26 536.014 1249.03 538.486C1250.41 539.35 1251.9 540.19 1252.84 541.564C1254.18 543.526 1253.94 544.083 1253.64 546.313C1252.07 548.399 1250.46 549.614 1248.13 550.772C1238.34 555.637 1224.46 556.116 1214.27 552.52C1205.85 549.548 1199.14 543.585 1195.32 535.503C1189.9 524.018 1189.91 508.652 1194.36 496.863C1198.62 485.565 1206.15 478.4 1216.92 473.498ZM1221.02 490.496C1215.66 494.963 1214.61 502.384 1209.55 506.949L1220.75 506.335C1224.52 506.463 1229.19 507.215 1232.35 504.833C1234.09 502.279 1234.34 501.876 1234.41 498.808C1232.98 495.559 1230.42 492.209 1227.06 490.757C1225.28 489.991 1222.91 490.331 1221.02 490.496Z"/>
	<path fill="#27272F" transform="matrix(0.818848 0 0 0.818359 0.000488281 0)" d="M1295.63 445.499C1296.15 445.438 1296.68 445.372 1297.21 445.329C1307.57 444.474 1321.24 444.654 1329.52 451.816C1331.54 453.564 1333.03 455.96 1333.1 458.697C1333.19 462.715 1329.39 469.944 1326.76 472.843C1321.83 468.346 1317.03 464.885 1310.15 464.357C1304 463.886 1298.42 466.21 1293.83 470.226C1285.55 477.472 1282.61 488.96 1282.06 499.565C1281.54 509.509 1282.97 521.016 1290.03 528.602C1303.48 543.051 1313.82 530.559 1326.68 531.483C1326.87 531.497 1327.06 531.524 1327.24 531.544C1328.12 532.159 1329.06 532.852 1329.68 533.741C1332.26 537.445 1332.05 543.658 1331.06 547.828C1329.74 549.523 1327.46 550.305 1325.51 551.068C1312.84 556.033 1298.35 557.033 1285.75 551.326C1275.99 546.906 1269.26 539.005 1265.6 529.03C1259.26 511.751 1259.01 486.507 1266.93 469.711C1272.83 457.183 1282.96 450.055 1295.63 445.499Z"/>
	<path fill="#27272F" transform="matrix(0.818848 0 0 0.818359 0.000488281 0)" d="M1083.35 473.497Q1088.7 473.2 1094.06 473.433C1100.23 473.668 1107.2 474.528 1111.62 479.282C1115.55 483.625 1116.89 487.063 1118.03 492.753C1120.24 503.856 1124.3 543.931 1118.58 552.492C1101.96 554.515 1108.58 550.572 1100.64 546.419C1098.16 545.123 1090.22 550.154 1087.33 551.206C1077.86 554.653 1070.13 552.829 1061.4 548.703C1059.51 545.434 1058.35 542.23 1057.41 538.599C1055.69 531.994 1054.18 522.582 1058.08 516.5C1063.94 507.368 1082.46 509.249 1091.91 506.699C1094.5 505.999 1096.82 505.156 1098.14 502.798C1098.05 499.483 1096.79 495.066 1094.34 492.699C1087.92 486.507 1076.86 492.481 1069.45 492.63C1063.09 492.759 1061.93 482.597 1057.12 477.738Q1070.2 475.41 1083.35 473.497ZM1084.82 518.493C1080.15 521.845 1077.55 523.867 1076.65 529.831C1076.41 531.412 1076.64 533.453 1077.71 534.718C1079.44 536.78 1082.71 537.5 1085.31 537.731C1086.01 537.794 1086.52 537.694 1087.21 537.555C1090.92 537.157 1093.36 535.576 1095.72 532.689C1097.66 530.315 1099.13 526.963 1098.71 523.846C1098.46 521.977 1097.33 520.575 1096.18 519.153C1092.45 516.747 1088.9 517.692 1084.82 518.493Z"/>
	<path fill="#27272F" transform="matrix(0.818848 0 0 0.818359 0.000488281 0)" d="M1357.97 472.499C1367.53 471.701 1378.61 471.228 1387.09 476.38C1393.01 479.973 1396.23 485.764 1397.69 492.401C1399.8 501.949 1401.23 544.926 1396.43 552.6C1387.26 553.207 1383.94 553.497 1376.04 548.24C1370.09 548.609 1366.34 550.995 1361 553.271C1354.5 556.047 1347.45 552.738 1341.34 550.315C1337.71 544.935 1334.78 536.225 1334.61 529.668C1333.99 504.77 1366.73 513.136 1375 503.809C1376.35 502.291 1376.74 500.419 1376.56 498.399C1376.34 496.045 1375.27 493.834 1373.27 492.512C1364.91 486.997 1348.83 494.052 1340.04 495.99C1340.07 495.829 1340.1 495.67 1340.13 495.509C1341.26 489.325 1340.59 482.643 1336.9 477.452C1343.98 476.173 1350.99 474.227 1357.97 472.499ZM1368.39 519.498C1364.37 520.705 1361.16 521.275 1359.08 525.241C1357.56 528.13 1356.48 531.145 1357.54 534.389C1358.04 535.948 1359.05 536.444 1360.28 537.456C1361.95 537.798 1363.5 538.237 1365.2 537.904C1369.36 537.142 1372.94 536.197 1375.5 532.555C1376.99 530.435 1378.25 527.282 1377.68 524.688C1377.24 522.702 1375.84 520.881 1374.08 519.904C1372.48 519.022 1370.2 519.45 1368.39 519.498Z"/>
	<path fill="#27272F" transform="matrix(0.818848 0 0 0.818359 0.000488281 0)" d="M877.436 443.867L897.364 444.056C901.549 456.823 907.072 469.294 911.527 482.014C919.758 505.517 927.184 529.649 936.892 552.58C930.861 553 923.579 553.888 918.068 550.919C911.666 547.472 910.16 540.934 908.278 534.475C905.945 532.211 905.331 532.216 902.25 531.801L870.814 531.764C869.305 536.293 867.942 541.562 865.328 545.57C862.782 549.472 859.19 552.048 854.585 552.876C851.146 553.495 845.498 553.979 842.546 551.938C853.459 515.701 866.246 480.04 877.436 443.867ZM887.754 471.592C882.024 484.026 879.53 501.395 874.258 515.068L888.5 514.96L902.481 514.823C899.981 506.495 893.313 476.435 887.754 471.592Z"/>
	<path fill="#27272F" transform="matrix(0.818848 0 0 0.818359 0.000488281 0)" d="M1023.36 472.221C1027.61 472.071 1032.37 472.393 1035.84 475.132C1044.3 481.808 1046.65 493.866 1047.66 504.022C1048.65 514.09 1050.69 544.545 1044.63 551.899C1037.91 552.515 1030.77 552.055 1024 552.059C1025.16 550.03 1025.7 547.72 1025.95 545.409C1027.13 534.655 1029.42 502.88 1022.19 495.143C1020.8 493.655 1019.32 492.915 1017.33 492.766C1014.18 492.531 1008.18 495.628 1006.02 497.843C1002.31 501.655 1004.29 543.521 1004.34 552.122C997.393 552.364 990.417 552.329 983.469 552.427C984.622 540.225 984.196 527.745 984.153 515.5C984.194 510.726 984.782 504.742 983.216 500.205C982.254 497.417 980.975 495.724 978.285 494.366C971.768 493.331 967.079 496.801 961.62 499.831C962.493 517.353 962.462 534.844 962.43 552.381L941.369 552.451C943.984 530.805 941.373 507.871 940.897 486.089C940.819 482.513 940.328 477.538 942.871 474.889C947.924 473.871 952.751 473.854 957.391 476.334C959.46 478.431 959.866 479.949 960.326 482.778L960.471 483.705C967.428 483.538 972.803 471.413 985.877 472.78C993.991 473.628 998.56 477.881 1003.41 483.924C1009.74 478.708 1015.36 474.684 1023.36 472.221Z"/>
	<path fill="#27272F" transform="matrix(0.818848 0 0 0.818359 0.000488281 0)" d="M730.359 163.825C726.385 156.03 722.29 148.631 721.698 139.689C720.656 123.975 729.938 107.14 740.197 95.8036C751.392 83.4324 766.602 74.665 783.531 73.9414C811.504 72.7456 828.352 94.9868 847.871 111.134C853.302 115.627 860.56 118.723 865.452 123.636C867.315 125.506 867.655 126.669 867.73 129.226C866.287 132.198 863.465 132.985 860.593 134.186C857.139 134.04 854.276 133.719 851.174 135.509C850.066 136.922 848.905 138.173 848.449 139.95C827.14 152.741 811.051 154.603 786.483 153.234C786.352 153.081 786.217 152.932 786.09 152.775C781.003 146.491 781.494 135.016 771.821 133.911C767.289 133.394 762.404 133.678 758.812 136.775C750.945 143.557 748.206 167.576 737.273 167.347C735.541 165.782 733.832 164.298 731.926 162.94L730.359 163.825Z"/>
	<path fill="#27272F" transform="matrix(0.818848 0 0 0.818359 0.000488281 0)" d="M1388.42 213.499C1399.35 212.489 1420.17 210.908 1430.03 216.847C1432.78 219.968 1434.39 224.08 1435.33 228.086C1436.79 234.288 1438.19 246.772 1434.63 252.415C1444.51 249.483 1462.44 241.184 1469 232.942C1471.91 233.887 1474.4 235.224 1476.93 236.934C1495.55 249.499 1508.05 270.681 1512.32 292.524C1513.98 300.959 1516.49 318.747 1511.6 326.025C1504.07 331.586 1476.24 325.021 1466.37 324.338C1468.64 325.51 1470.51 326.941 1472.19 328.868C1477.14 334.545 1491.85 352.813 1491.22 360.408C1491.18 361.629 1490.89 362.531 1490.26 363.593C1481.52 378.296 1452.91 389.77 1437.17 393.66C1419.8 403.131 1392.92 397.874 1374.53 394.642Q1375.64 392.798 1376.28 390.745C1378.21 384.504 1379.22 368.117 1376.23 362.53C1371.02 369.588 1348.64 380.579 1339.95 383.775C1337.11 379.515 1331.73 375.404 1328.11 371.687C1314.87 358.093 1305.32 343.414 1301.01 324.739C1295.87 302.415 1300.17 280.339 1312.31 261.049C1329.71 233.399 1357.55 220.598 1388.42 213.499ZM1399.5 251.495C1397.97 255.963 1390.61 260.114 1386.53 262.108C1380.06 265.268 1373.75 267.11 1366.54 267.596C1372.44 274.386 1378.15 284.554 1379.12 293.622C1372.32 299.929 1356.22 303.078 1347.2 305.305C1354.64 312.558 1362.39 328.397 1362.54 338.916C1362.55 339.581 1362.47 340.153 1362.35 340.806L1362.8 340.753C1369.09 339.969 1390.4 331.297 1394.56 333.873C1398.67 340.348 1399.49 355.213 1406.2 358.839C1417.64 354.528 1430.27 351.382 1441.32 346.401C1442.67 339.139 1436.84 326.031 1432.71 320.294C1432.12 319.48 1431.43 318.766 1430.67 318.109C1439.07 314.734 1453.44 310.784 1459.95 304.853C1461.75 298.531 1451.5 281.276 1448.32 275.579C1447.29 273.739 1446.44 272.359 1444.76 271.018C1439.7 274.362 1426.92 280.468 1421.05 279.157C1417.97 278.469 1416.22 276.453 1414.74 273.836C1410.8 266.872 1409.66 256.555 1403.11 251.467C1401.91 251.452 1400.7 251.386 1399.5 251.495ZM1396.79 222.5C1369.45 225.86 1344.04 237.013 1326.72 259.142C1313.57 275.939 1308.46 295.708 1311.08 316.814C1313.41 335.513 1321.39 347.391 1333.12 361.477C1335.82 364.727 1339.64 368.325 1341.43 372.097C1345.7 370.39 1350.31 369.086 1352.71 365.049C1351.81 362.808 1350.25 362.061 1348.29 360.842C1348.24 360.706 1348.19 360.567 1348.13 360.432C1346 355.476 1339.84 350.6 1336.48 346.167Q1335.86 345.367 1335.27 344.548Q1334.68 343.729 1334.11 342.892Q1333.55 342.055 1333.01 341.2Q1332.47 340.345 1331.96 339.473Q1331.45 338.602 1330.97 337.715Q1330.48 336.828 1330.03 335.926Q1329.57 335.024 1329.15 334.108Q1328.72 333.192 1328.32 332.263Q1327.93 331.334 1327.56 330.393Q1327.19 329.451 1326.85 328.499Q1326.52 327.547 1326.21 326.584Q1325.9 325.622 1325.62 324.65Q1325.35 323.678 1325.1 322.698Q1324.86 321.719 1324.64 320.731Q1324.43 319.744 1324.25 318.75Q1324.06 317.757 1323.91 316.758Q1323.76 315.759 1323.64 314.756Q1323.52 313.753 1323.43 312.746Q1323.34 311.74 1323.29 310.731Q1323.23 309.722 1323.21 308.712Q1323.18 307.702 1323.19 306.692Q1323.2 305.682 1323.24 304.672Q1323.28 303.663 1323.35 302.655Q1323.42 301.647 1323.52 300.642Q1323.63 299.637 1323.76 298.636Q1323.9 297.635 1324.07 296.638Q1324.23 295.642 1324.43 294.651Q1324.63 293.661 1324.86 292.677Q1325.09 291.693 1325.35 290.717Q1325.61 289.741 1325.9 288.774Q1326.19 287.806 1326.52 286.849Q1326.84 285.891 1327.19 284.944C1334.95 264.477 1352.88 248.955 1372.54 240.259C1382.09 236.034 1395.72 231.599 1406.25 232.111C1410.92 232.338 1415.5 233.609 1420.15 234.026C1422.47 234.234 1423.18 234.26 1424.27 232.208C1423.79 229.396 1423.88 227.158 1421.34 225.31C1416.05 221.454 1403.17 222.181 1396.79 222.5ZM1468.51 350.496C1466.08 356.968 1455.06 363.009 1449.03 365.75C1428.29 375.168 1408.37 376.521 1385.94 375.576C1390.48 382.112 1383.76 384.998 1393.95 387.96C1421.17 388.765 1453.86 383.127 1474.56 363.872C1476.06 362.473 1477.37 361.041 1477.7 358.953C1477.36 356.219 1476.75 353.471 1474.35 351.782C1472.21 350.266 1471.06 350.503 1468.51 350.496ZM1467.5 246.497C1464.88 249.468 1460.05 251.729 1456.32 253.008C1468.96 257.944 1477.89 268.976 1483.25 281.141C1488.31 292.646 1488.39 301.861 1487.17 314.231L1492.23 315.695C1495.52 315.982 1499.95 316.863 1503.03 315.593C1507.04 304.357 1501.17 287.979 1496.28 277.613C1492.09 268.752 1481.62 249.527 1471.86 246.095C1470.87 245.748 1468.6 246.341 1467.5 246.497Z"/>
	<path fill="#27272F" transform="matrix(0.818848 0 0 0.818359 0.000488281 0)" d="M730.359 163.825L731.926 162.94C733.832 164.298 735.541 165.782 737.273 167.347C748.206 167.576 750.945 143.557 758.812 136.775C762.404 133.678 767.289 133.394 771.821 133.911C781.494 135.016 781.003 146.491 786.09 152.775C786.217 152.932 786.352 153.081 786.483 153.234C811.051 154.603 827.14 152.741 848.449 139.95C848.905 138.173 850.066 136.922 851.174 135.509C854.276 133.719 857.139 134.04 860.593 134.186L873.549 143.439C869.84 147.763 866.145 152.273 861.736 155.904C850.624 165.054 831.4 173.666 832.443 190.64C832.633 193.729 833.366 196.792 834.173 199.771C823.869 210.492 807.843 225.839 792.103 226.345C782.318 226.66 771.472 222.926 762.874 218.437C759.808 222.957 756.674 227.425 754.057 232.226C773.526 244.729 778.327 272.976 786.903 293.166L848.381 231.425C858.136 221.784 868.018 210.526 879.023 202.399C882.06 200.156 884.573 198.757 888.412 198.68C901.247 198.421 987.679 225.431 994.974 232.528C996.01 233.537 996.242 233.957 996.227 235.436C996.187 239.312 992.597 243.866 990.228 246.699C982.878 255.492 973.602 263.279 965.292 271.171L919.678 314.393C921.703 317.175 923.976 319.785 923.566 323.445C922.647 331.664 910.033 340.364 904.311 345.855C905.518 348.916 907.52 352.595 906.696 355.908C904.797 358.56 902.349 361.266 901.889 364.585C903.156 368.196 903.381 369.312 901.695 372.897C896.503 383.938 886.756 391.12 876.85 397.559C875.56 398.397 871.916 400.173 871.133 401.211C869.862 402.893 870.154 405.894 870.184 407.892C864.914 416.124 827.328 432.028 817.205 434.271Q813.695 435.056 810.125 435.499Q806.555 435.941 802.96 436.036Q799.364 436.131 795.776 435.878Q792.188 435.625 788.641 435.026C785.812 434.573 782.348 433.169 779.591 433.301C777.347 433.408 776.901 434.457 775.668 436.083C773.847 444.533 777.539 456.775 779.075 465.377C788.324 517.149 801.302 569.042 822.511 617.332C826.862 627.24 831.247 637.182 836.016 646.896C840.24 655.501 850.94 671.147 852.429 680.001C853.579 686.84 846.413 701.531 840.743 705.332C838.909 705.647 838.022 706.146 836.439 704.927C831.481 701.112 827.643 691.105 823.621 685.861L802.95 685.993C807.792 694.977 811.028 704.641 813.786 714.442C820.776 739.283 824.842 764.885 830.031 790.135C834.399 811.392 842.742 835.309 841.699 857.023C850.127 859.486 857.818 860.52 866.597 860.484C882.353 860.42 918.463 852.311 927.161 868.382Q928.283 870.491 929.264 872.669C922.266 880.409 915.029 886.525 906.027 891.853C881.034 906.646 831.943 921.437 802.889 925.814C793.083 909.403 787.597 893.365 785.467 874.309C781.425 873.884 777.285 873.617 773.302 872.814C752.439 844.788 714.601 779.477 704.639 747.5Q683.033 743.338 661.581 738.439C648.04 766.779 633.136 793.808 621.451 823.111C614.361 840.891 610.508 859.887 603.014 877.435C599.964 878.458 596.478 879.102 594.74 882.042C594.485 885.587 595.11 887.542 597.511 890.231C604.607 898.177 616.206 905.589 625.424 910.897C636.195 917.099 663.914 926.043 663.426 941.005C663.342 943.599 662.262 946.266 660.341 948.034C653.483 954.346 634.279 953.267 625.368 952.444C611.658 951.177 536.979 932.85 530.508 924.401C527.144 920.009 527.862 913.034 528.797 907.97C530.968 896.206 535.778 886.251 542.61 876.546C539.344 873.861 535.956 871.249 532.839 868.393C530.816 828.313 547.189 731.857 567.75 698.438C555.348 686.458 538.862 678.245 526.061 666.226C537.561 641.081 546.216 614.713 555.121 588.575Q569.557 546.651 582.058 504.11Q594.558 461.569 605.096 418.5C619.268 362.357 622.123 289.928 654.485 241.169C667.671 221.302 690.857 213.77 709.179 199.968C719.165 192.446 726.7 183.327 734.337 173.533L730.359 163.825ZM690.119 219.907C662.896 235.284 649.25 261.502 641.046 291C629.943 330.922 624.034 371.379 614.775 411.599Q603.905 457.362 590.739 502.518Q577.573 547.675 562.145 592.109C553.859 616.287 545.753 641.262 535.733 664.767C592.674 710.03 645.652 729.87 716.88 740.99C718.948 689.735 721.529 639.339 729.43 588.536C733.925 559.629 738.075 530.357 743.367 501.607C745.686 489.005 754.926 452.3 754.484 442.213C752.446 442.64 750.666 443.189 748.759 444.025C737.369 447.571 713.166 457.31 702.023 451.719C689.388 445.379 678.881 412.716 675.057 400.16C670.799 386.175 651.084 313.515 656.663 302.318C659.187 303.647 661.28 310.297 662.167 313.146C670.788 340.834 683.269 431.809 706.559 444.323C713.671 448.144 726.818 443.482 734.012 441.078C764.394 430.924 793.445 416.164 821.252 400.372C834.318 392.952 846.809 384.263 860.53 378.086C850.24 368.189 843.51 357.085 830.617 349.96C799.306 359.882 767.622 369.591 735.931 378.237C729.197 386.757 722.647 390.843 712.788 395.084C717.851 390.634 724.698 385.232 727.059 378.74L726.286 377.537C719.826 377.946 704.567 390.586 701.694 388.714C702.161 385.849 703.197 384.212 705.575 382.462C712.56 377.321 722.697 374.929 730.861 372.384C723.915 356.733 707.778 314.426 713.699 298.973C715.65 293.881 719.444 289.011 722.33 284.388C717.432 272.035 706.055 224.549 694.881 220.41C693.388 219.857 691.687 219.883 690.119 219.907ZM740.283 571.267C734.482 605.19 730.093 640.656 728.179 674.996C726.85 698.829 728.241 724.334 724.133 747.769L714.288 749.857C724.881 780.475 759.95 839.699 779.571 865.394C788.668 865.661 797.622 865.921 806.667 864.635C816.581 861.602 825.355 857.088 834.094 851.54C830.258 828.338 824.728 805.526 820.045 782.494C813.299 749.315 807.407 716.258 795.91 684.249C786.683 658.558 773.964 634.001 762.428 609.297C758.522 600.933 749.446 577.417 742.361 572.42C741.683 571.942 741.041 571.589 740.283 571.267ZM570.72 708.849Q564.303 724.902 559.814 741.597C554.218 762.273 535.122 846.574 542.945 864.395C544.626 868.225 549.758 870.784 553.517 872.077C567.039 876.732 583.576 874.137 597.202 871.163C598.278 866.742 599.301 862.408 601.044 858.188C613.895 819.162 629.13 782.13 648.367 745.883Q639.204 742.742 630.298 738.931Q621.392 735.12 612.793 730.661C601.654 724.921 582.125 711.062 570.72 708.849ZM880.119 213.875C858.721 231.269 839.505 251.12 820.113 270.675C806.949 283.95 792.613 297.228 781.512 312.313C799.362 321.712 818.191 327.377 837.477 333.013C840.183 332.095 840.773 331.927 842.592 329.769C841.772 327.505 840.904 327.236 838.818 326.227C828.51 321.246 795.066 317.937 790.602 307.522C791.027 306.856 791.539 305.594 792.308 305.414C800.341 303.534 818.346 312.007 826.251 314.714L851.536 323.859Q865.532 313.708 878.571 302.354C884.872 296.861 891.008 290.269 897.977 285.67C900.513 283.996 904.042 281.958 907.186 282.341C907.911 282.429 908.14 283.095 908.566 283.645C908.569 292.068 902.07 299.144 897.312 305.55C919.991 287.921 947.373 262.043 966.806 240.857L880.119 213.875ZM764.276 436.359C761.385 450.362 762.646 464.676 763.419 478.842C767.049 545.318 783.055 580.295 811.048 639.667C817.909 654.218 823.904 670.551 832.72 683.981C834.476 686.655 836.525 690.742 839.423 692.005L840.876 690.714L844.173 682.056C834.672 661.262 823.498 641.345 814.328 620.348C790.611 566.047 774.816 505.729 768.137 446.884C767.639 442.498 768.226 439.123 764.276 436.359ZM839.72 865.717C834.741 872.696 828.246 878.722 822.256 884.838C813.223 884.973 804.172 885.226 795.141 884.988C797.475 892.759 799.842 900.407 802.919 907.921Q816.237 905.709 829.342 902.467Q842.448 899.225 855.261 894.973C876.133 888.12 896.102 880.053 914.115 867.181C889.066 866.464 864.804 868.131 839.72 865.717ZM544.793 889.375C540.801 896.413 538.851 904.698 536.87 912.497C545.818 914.208 554.586 916.257 563.284 918.98C586.167 926.141 628.255 944.585 651.294 933.28C643.049 927.287 633.071 924.624 623.951 920.288C610.883 914.076 599.455 902.457 589.251 892.413C582.969 896.571 572.987 903.541 565.11 902.093C555.986 900.415 552.159 892.496 544.793 889.375ZM899.776 292.94C892.163 298.588 885.527 305.388 878.18 311.364C863.971 322.922 849.399 333.816 835.422 345.702C843.795 350.345 850.751 355.521 857.911 361.833L866.254 358.611C885.484 350.486 905.571 336.427 919.378 320.705C911.591 322.95 898.818 328.012 890.952 324.095C888.839 323.043 887.114 321.186 886.511 318.888C886.11 317.36 887.542 314.876 888.336 313.599C891.359 308.739 900.542 298.29 899.776 292.94ZM733.876 262.786C730.858 267.488 732.59 277.39 732.025 283.179C741.278 287.332 746.186 292.236 749.856 301.987C755.918 318.098 756.037 336.712 759.903 353.489C753.34 355.925 746.236 359.465 739.125 357.783C735.56 355.523 734.69 351.399 733.833 347.524C731.913 338.842 731.774 305.833 730.948 304.115L729.323 303.623C726.559 305.207 724.832 308.201 724.073 311.255C722.929 315.856 724.463 321.284 725.733 325.715C728.998 340.977 733.692 353.836 739.944 368.068C751.47 365.618 763.234 363.042 774.285 358.908C775.012 355.434 775.683 351.989 775.216 348.434C772.97 331.355 753.986 289.686 744.377 274.963C741.902 271.171 738.149 264.64 733.876 262.786ZM786.483 153.234C795.505 171.967 807.216 185.328 824.734 196.548C825.032 192.008 824.994 186.59 826.326 182.228C831.8 164.317 847.712 163.192 848.449 139.95C827.14 152.741 811.051 154.603 786.483 153.234ZM748.115 170.682L714.467 206.287C720.39 212.135 726.647 217.604 733.706 222.059C737.968 224.466 742.208 226.85 746.627 228.964L758.295 206.849C757.227 196.934 757.338 181.455 752.214 172.867C750.866 171.82 749.871 170.915 748.115 170.682ZM767.332 137.814C761.407 141.283 755.347 145.329 753.47 152.377C752.398 156.403 753.317 160.34 755.442 163.848C757.391 167.067 760.53 168.721 763.628 170.662L763.983 170.879C763.206 180.138 763.492 189.224 764.729 198.434C768.495 196.907 772.305 195.445 776.029 193.819C783.093 189.984 788.795 185.2 794.636 179.711C789.708 171.833 777.58 139.974 770.047 138.124C769.152 137.904 768.249 137.839 767.332 137.814ZM851.636 390.936Q827.075 403.844 803.053 417.728C799.386 419.826 791.741 425.478 789.005 426.391L791.439 424.448C790.549 425.054 789.77 425.822 788.966 426.538C791.393 428.186 794.429 428.2 797.265 428.482C819.403 426.837 842.842 418.275 860.832 405.163C859.154 401.011 857.368 394.073 853.985 391.099L851.636 390.936ZM886.868 206.214C888.124 208.968 889.485 209.629 892.329 210.669C908.717 216.661 968.736 228.059 976.529 239.685C976.234 246.352 925.812 292.565 916.248 301.291C912.527 304.687 901.476 312.416 900.384 317.121C902.531 316.46 904.312 315.683 906.244 314.534C917.996 305.554 928.709 294.608 939.519 284.502C955.903 269.185 973.276 253.732 987.791 236.589C965.813 229.007 907.624 207.688 886.868 206.214ZM793.108 324.081C792.992 334.709 791.934 344.564 789.35 354.879L820.451 345.738C823.385 344.747 827.158 344.042 828.766 341.169C828.378 338.614 828.022 337.856 825.803 336.258C818.088 330.702 802.388 326.195 793.108 324.081ZM797.23 185.617C787.251 193.182 778.548 198.445 766.854 202.921C771.563 210.695 776.635 216.683 785.764 219.321L784.935 218.649C785.714 218.904 786.963 219.511 787.751 219.486C787.631 218.142 787.785 216.889 786.961 215.796C786.076 212.895 784.383 209.237 785.529 206.332C787.66 205.017 789.587 204.127 791.947 203.313C792.842 201.665 793.28 200.201 793.701 198.379C800.201 196.509 808.859 203.263 814.842 205.913C811.864 200.477 806.248 187.425 799.506 185.855C798.757 185.68 797.995 185.64 797.23 185.617ZM759.662 255.542C761.899 263.376 761.874 272.831 761.915 280.982C766.599 287.943 772.828 301.775 781.199 303.763C781.134 297.538 766.704 261.356 762.131 257.009C761.401 256.316 760.612 255.873 759.662 255.542ZM738.162 308.558C736.965 317.171 735.702 342.69 740.953 349.706C741.676 350.673 742.641 351.069 743.845 351.224C746.203 351.527 749.163 350.886 751.536 350.597C750.667 342.964 743.737 313.179 738.681 308.897C738.523 308.763 738.335 308.671 738.162 308.558ZM712.256 235.252C715.133 243.77 719.354 252.854 720.992 261.649C724.462 260.302 727.966 258.753 731.642 258.092C732.315 256.307 732.582 255.969 731.844 254.094C729.461 248.041 718.109 237.933 712.256 235.252ZM882.275 359.602C880.65 361.848 879.708 362.482 879.931 365.343C882.957 369.455 889.326 370.719 894.052 371.993C895.15 369.438 895.741 368.859 894.872 366.101C891.793 362.714 886.558 361.01 882.275 359.602ZM870.563 369.062C870.663 372.597 871.191 374.511 873.814 376.994C877.239 380.235 882.24 382.709 886.976 382.829C887.142 382.833 887.307 382.842 887.472 382.849L887.954 379.559C884.767 375.517 875.759 369.876 870.563 369.062ZM865.722 381.661C864.723 384.428 864.439 384.933 865.339 387.875C867.948 390.634 870.734 391.202 874.382 391.306Q877.03 391.366 879.678 391.305C879.742 390.352 880.088 389.291 879.452 388.545C876.218 384.754 870.431 382.825 865.722 381.661Z"/>
	<path fill="#27272F" transform="matrix(0.818848 0 0 0.818359 0.000488281 0)" d="M767.22 144.611C768.771 144.712 770.363 144.742 771.772 145.458C773.794 146.485 773.744 146.919 774.344 148.963C773.318 152.642 770.5 154.902 767.841 157.467L764.662 157.371C763.482 156.489 762.523 156.207 762.315 154.67C761.807 150.907 765.008 147.304 767.22 144.611Z"/>
	<path fill="#27272F" transform="matrix(0.818848 0 0 0.818359 0.000488281 0)" d="M632.698 475.822C647.49 475.888 707.077 500.881 724.093 507.567C719.133 530.548 711.644 574.038 695.297 590.649C693.099 592.283 690.507 593.833 687.961 594.855C672.258 601.156 647.542 591.004 633.157 584.528C624.192 580.492 614.673 574.615 611.168 564.914C604.669 546.922 624.233 494.134 632.698 475.822ZM630.573 500.626C624.746 513.716 612.096 548.528 617.205 561.58C621.248 571.909 634.118 578.188 643.804 582.214C654.535 586.673 673.479 594.402 684.912 589.467C687.342 588.417 689.854 586.531 691.532 584.489C702.7 568.406 706.894 548.276 711.721 529.572L658.139 509.989C649.213 506.795 639.776 502.841 630.573 500.626ZM636.667 481.948C634.897 486.662 633.249 491.473 631.224 496.083C658.298 505.455 685.291 516.336 712.679 524.596C715.235 520.833 716.12 514.459 717.062 509.99C689.918 501.603 662.946 492.786 636.667 481.948Z"/>
</svg>
