<svg xmlns="http://www.w3.org/2000/svg" xmlns:xlink="http://www.w3.org/1999/xlink" viewBox="16.55 125.92 987.61 262.06">
	<path fill="#FDFDFC" transform="matrix(0.498535 0 0 0.499023 0 -3.05176e-05)" d="M1050.22 499.476C1055.53 499.204 1063.18 501.22 1067.71 503.991L1067.9 505.425Q1064.91 506.127 1061.95 506.973C1062.65 512.028 1068.63 513.11 1070.01 517.507C1070.5 519.087 1069.37 520.151 1068.59 521.506C1067.56 522.55 1067.26 523.1 1065.75 523.354C1058.43 524.588 1049.41 512.431 1043.71 508.382L1042.93 507.833C1045.93 506.182 1048.21 502.225 1050.22 499.476Z"/>
	<path fill="#FDFDFC" transform="matrix(0.498535 0 0 0.499023 0 -3.05176e-05)" d="M849.986 716.415C851.044 716.987 851.576 717.704 852.331 718.614C851.898 721.088 850.792 724.154 850.774 726.615C850.754 729.329 852.33 731.747 854.105 733.683C862.115 742.417 887.643 746.234 899.079 746.293C901.509 746.305 902.63 746.15 904.35 744.445C904.045 738.371 892.069 730.336 887.862 725.759L888.045 724.364C891.627 724.464 892.612 725.29 895.629 727.091C899.161 729.834 903.117 732.578 906.188 735.825C908.846 738.634 910.446 741.523 910.272 745.49C908.824 747.776 908.096 748.723 905.569 749.848C894.654 754.708 872.284 747.348 861.609 743.4C856.44 741.489 848.462 738.243 846.264 732.724C844.281 727.744 847.932 720.937 849.986 716.415Z"/>
	<path fill="#FDFDFC" transform="matrix(0.498535 0 0 0.499023 0 -3.05176e-05)" d="M1026.94 743.122C1028.1 743.027 1029.26 743.008 1030.42 743.13C1040.73 744.213 1061.73 753.803 1067.93 762.026C1069.55 764.163 1069.89 765.954 1069.53 768.57C1068.44 770.759 1067.21 772.145 1065.08 773.322C1051.93 780.604 1022.03 776.987 1008.11 772.717C1000.84 770.488 997.294 768.544 993.767 761.774C993.186 757.864 993.047 754.943 994.421 751.179L995.521 751.067C997.891 755.481 998.682 760.83 999.8 765.682C1015.1 770.79 1047.68 775.138 1063.07 770.437C1065.17 769.794 1065.84 769.473 1066.87 767.478C1063.57 757.914 1035.1 752.112 1027.48 743.733C1027.29 743.532 1027.12 743.326 1026.94 743.122Z"/>
	<path fill="#FDFDFC" transform="matrix(0.498535 0 0 0.499023 0 -3.05176e-05)" d="M942.789 331.86L944.561 328.448C948.952 328.093 951.71 330.766 954.907 333.491C962.381 339.862 968.58 346.718 976.986 351.974C972.752 355.542 968.655 359.066 968.27 364.981C968.151 366.808 968.363 368.924 968.838 370.681C968.344 371.037 967.479 371.193 966.892 371.376C957.957 369.165 941.075 360.794 934.643 354.041C937.062 346.495 939.767 339.184 942.789 331.86Z"/>
	<path fill="#FDFDFC" transform="matrix(0.498535 0 0 0.499023 0 -3.05176e-05)" d="M996.329 477.97C995.777 477.115 995.284 476.24 994.923 475.286C991.693 466.75 986.598 415.906 990.329 407.934C998.532 426.46 1008.2 453.82 1021.57 468.821C1026.79 474.678 1048.46 489.623 1046.03 495.915C1044.08 500.968 1038.11 507.273 1033.21 509.451C1029.15 500.974 1004.68 486.318 996.329 477.97Z"/>
	<path fill="#FDFDFC" transform="matrix(0.498535 0 0 0.499023 0 -3.05176e-05)" d="M990.893 281.478C993.45 282.798 995.328 283.597 996.285 286.528C996.487 287.144 996.487 287.238 996.648 287.95C1000.8 298.419 997.157 301.582 998.944 309.021C1000.18 314.184 1009.26 316.656 1006.95 322.896C1005.04 323.95 1002.1 324.824 1001.6 327.064C1000.09 333.751 1004.47 345.82 998.739 350.68C992.999 353.486 987.079 350.893 981.381 349.236L976.986 351.974C968.58 346.718 962.381 339.862 954.907 333.491C951.71 330.766 948.952 328.093 944.561 328.448L942.789 331.86C941.227 331.088 939.306 331.181 937.586 331.095C938.753 329.965 939.651 328.658 940.6 327.348C941.558 322.897 940.023 318.001 939.285 313.575C938.71 310.122 938.714 308.605 940.765 305.744C946.153 302.84 952.586 304.056 958.297 305.185C960.43 299.669 962.368 293.117 966.322 288.631C972.491 281.629 982.329 282.037 990.893 281.478Z"/>
	<path transform="matrix(0.498535 0 0 0.499023 0 -3.05176e-05)" d="M990.893 281.478C993.45 282.798 995.328 283.597 996.285 286.528C996.487 287.144 996.487 287.238 996.648 287.95C989.975 285.564 981.186 283.867 974.392 286.919C970.453 288.688 967.905 292.088 966.46 296.08C964.47 301.575 966.666 312.372 963.174 316.255C956.293 315.969 954.137 306.499 946.205 308.337C944.529 310.287 943.497 311.25 943.613 314.018C943.944 321.909 965.201 339.246 971.6 344.053C974.534 346.257 978.004 347.833 981.381 349.236L976.986 351.974C968.58 346.718 962.381 339.862 954.907 333.491C951.71 330.766 948.952 328.093 944.561 328.448L942.789 331.86C941.227 331.088 939.306 331.181 937.586 331.095C938.753 329.965 939.651 328.658 940.6 327.348C941.558 322.897 940.023 318.001 939.285 313.575C938.71 310.122 938.714 308.605 940.765 305.744C946.153 302.84 952.586 304.056 958.297 305.185C960.43 299.669 962.368 293.117 966.322 288.631C972.491 281.629 982.329 282.037 990.893 281.478Z"/>
	<path fill="#FDFDFC" transform="matrix(0.498535 0 0 0.499023 0 -3.05176e-05)" d="M911.969 297.71C913.501 295.975 914.854 294.221 916.153 292.305L914.934 292.157L915.229 293.455L914.75 294.076L913.477 292.789C910.813 293.769 909.221 294.256 906.335 293.557C904.315 291.644 903.993 291.122 903.159 288.467C903.9 284.716 906.439 282.736 909.325 280.524C921.054 271.537 958.256 249.989 973.229 252.546C979.798 253.669 986.409 274.87 990.366 280.715L990.893 281.478C982.329 282.037 972.491 281.629 966.322 288.631C962.368 293.117 960.43 299.669 958.297 305.185C952.586 304.056 946.153 302.84 940.765 305.744C938.714 308.605 938.71 310.122 939.285 313.575C940.023 318.001 941.558 322.897 940.6 327.348C939.651 328.658 938.753 329.965 937.586 331.095C936.132 331.242 934.289 331.506 932.914 330.881C922.979 326.361 916.315 307.377 911.969 297.71Z"/>
	<path fill="#FDFDFC" transform="matrix(0.498535 0 0 0.499023 0 -3.05176e-05)" d="M1645.49 462.499Q1646.13 462.409 1646.78 462.347C1649.72 462.072 1653.37 461.786 1655.73 463.766C1656.58 471.036 1657.61 491.046 1653.51 496.986C1649.55 497.672 1645.43 497.494 1641.49 498.364C1606.76 506.036 1635.24 563.309 1621.73 583.73C1611.23 584.594 1600.36 584.014 1589.83 583.996C1590.43 582.559 1590.72 580.957 1590.98 579.424C1591.57 575.952 1590.97 573.355 1588.92 570.499C1590.41 568.866 1590.95 567.172 1591.29 565.027C1593.06 553.747 1591.54 541.043 1591.56 529.615C1591.58 510.553 1593.12 490.717 1591.3 471.767C1591.04 469.145 1590.75 467.053 1589.14 464.891L1617.92 464.884C1619.16 466.381 1619.87 467.999 1620.36 469.866C1622.04 476.243 1622.22 483.679 1618.9 489.521C1630.17 481.443 1630.92 470.636 1645.49 462.499Z"/>
	<path fill="#FDFDFC" transform="matrix(0.498535 0 0 0.499023 0 -3.05176e-05)" d="M899.085 609.166C903.185 608.536 907.758 609.142 911.996 608.64C918.628 607.853 925.29 605.657 931.924 605.499C933.033 612.964 940.78 635.446 940.54 638.882C924.013 655.729 902.359 694.773 890.272 716.24C888.416 719.535 886.968 720.647 883.308 721.6C873.902 724.048 863.265 721.694 855.125 716.699C852.111 714.85 848.822 712.011 848.228 708.299C846.033 694.587 890.716 622.739 899.085 609.166Z"/>
	<path fill="#FDFDFC" transform="matrix(0.498535 0 0 0.499023 0 -3.05176e-05)" d="M564.451 464.828L642.946 464.918C642.738 491.091 612.454 534.109 599.255 557.307L642.281 557.301L642.504 583.918L590.739 583.997C581.657 584.012 571.139 585.184 562.312 583.281L560.876 580.939C559.523 561.464 594.514 509.206 605.294 491.252L564.388 491.224L564.451 464.828Z"/>
	<path fill="#FDFDFC" transform="matrix(0.498535 0 0 0.499023 0 -3.05176e-05)" d="M838.917 497.862C838.989 498.772 838.875 501.176 839.506 501.735C843.554 505.32 856.121 506.226 861.456 506.057C861.706 510.188 860.298 513.948 859.619 517.958C859.945 519.775 860.076 522.06 860.914 523.692C864.429 523.668 867.124 523.694 870.361 525.185C873.735 529.645 867.898 533.992 876.934 535.139C881.812 535.757 886.533 534.82 891.308 536.438C893.423 556.989 866.524 589.696 879.016 599.881C881.843 602.185 885.764 603.875 887.111 607.442L886.938 610.356C885.77 610.743 884.603 611.081 883.399 611.335C871.421 613.864 811.205 613.952 802.788 608.337C798.278 600.219 801.251 548.602 801.446 536.024C807.861 536.033 814.007 536.707 820.107 534.386C822.41 531.44 821.355 529.986 821.466 526.386C823.226 524.748 824.71 524.523 827.042 524.196C828.378 524.156 829.728 523.942 831.057 523.793L832.62 520.36C834.145 516.611 835.264 512.787 836.385 508.901C836.333 505.164 837.717 501.348 838.917 497.862Z"/>
	<path fill="#21202D" transform="matrix(0.498535 0 0 0.499023 0 -3.05176e-05)" d="M859.316 517.886L859.619 517.958C859.945 519.775 860.076 522.06 860.914 523.692Q860.921 526.55 861.083 529.404C861.668 538.337 867.611 533.653 871.534 537.078L870.193 537.968C862.984 538.035 856.416 533.443 849.382 533.158C841.098 532.821 834.072 538.721 825.373 536.612C827.523 536.14 829.928 535.365 831.487 533.713C833.405 531.679 833.262 530.569 832.976 528.037C831.025 525.656 829.827 525.302 827.042 524.196C828.378 524.156 829.728 523.942 831.057 523.793L832.62 520.36C833.853 522.488 836.324 525.4 838.576 526.44C842.812 528.395 847.742 522.54 851.988 521.505C854.157 520.976 856.555 522.923 858.877 522.073L859.316 517.886Z"/>
	<path fill="#FDFDFC" transform="matrix(0.498535 0 0 0.499023 0 -3.05176e-05)" d="M838.917 497.862C838.989 498.772 838.875 501.176 839.506 501.735C843.554 505.32 856.121 506.226 861.456 506.057C861.706 510.188 860.298 513.948 859.619 517.958L859.316 517.886L858.877 522.073C856.555 522.923 854.157 520.976 851.988 521.505C847.742 522.54 842.812 528.395 838.576 526.44C836.324 525.4 833.853 522.488 832.62 520.36C834.145 516.611 835.264 512.787 836.385 508.901C836.333 505.164 837.717 501.348 838.917 497.862Z"/>
	<path transform="matrix(0.498535 0 0 0.499023 0 -3.05176e-05)" d="M838.917 497.862C838.989 498.772 838.875 501.176 839.506 501.735C843.554 505.32 856.121 506.226 861.456 506.057C861.706 510.188 860.298 513.948 859.619 517.958L859.316 517.886C859.24 516.098 859.554 513.879 858.208 512.534C854.901 509.232 845.825 507.766 841.358 507.477C838.807 507.311 838.305 507.186 836.385 508.901C836.333 505.164 837.717 501.348 838.917 497.862Z"/>
	<path fill="#FDFDFC" transform="matrix(0.498535 0 0 0.499023 0 -3.05176e-05)" d="M695.43 464.152Q698.214 463.878 701.011 463.816C712.12 463.649 722.722 466.76 730.694 474.782C746.669 490.856 745.971 514.901 745.733 535.834L678.314 535.838C679.687 541.086 681.244 546.319 684.564 550.703C699.684 570.666 721.865 555.651 736.035 558.448C738.19 558.873 738.221 559.461 739.353 561.231C740.017 567.304 741.372 573.417 742.462 579.434Q737.757 581.128 732.901 582.321C714.263 587.066 691.792 587.936 674.811 577.583C662.395 570.013 654.705 557.532 651.466 543.58C647.249 525.42 649.742 503.546 659.865 487.662C668.501 474.11 680.194 467.629 695.43 464.152ZM695.325 486.168C685.919 491.647 682.181 496.566 679.347 507.263Q678.688 509.767 678.135 512.296L700.75 512.875L718.673 512.919C717.742 504.82 716.89 495.121 710.055 489.614C705.659 486.071 700.717 485.769 695.325 486.168Z"/>
	<path fill="#FDFDFC" transform="matrix(0.498535 0 0 0.499023 0 -3.05176e-05)" d="M1708.32 462.499C1718.5 461.337 1728.05 462.905 1736.78 468.49C1749.14 476.399 1756.36 490.174 1759.46 504.175C1761.45 513.154 1762.82 526.754 1757.72 534.764C1746.95 536.387 1733.81 534.139 1722.76 534.107C1715.57 534.086 1697.42 533.053 1692.13 538.307C1692.49 540.738 1692.99 543.01 1693.92 545.293C1704.81 571.963 1743.1 554.746 1750.39 557.789L1750 561.496C1751.68 562.757 1752.3 564.088 1753.13 565.987C1754.49 569.106 1756.26 572.598 1754.68 575.984C1752.92 579.738 1748.19 581.641 1744.49 582.796C1728.26 587.865 1706.15 587.766 1690.92 579.677C1678.46 573.059 1670.01 561.399 1665.88 548.08C1660.2 529.79 1661.93 507.975 1670.95 491.04C1679.33 475.32 1691.77 467.505 1708.32 462.499ZM1706.77 486.499C1696.55 495.397 1694.22 507.371 1688.79 512.018L1712.75 512.089C1718.38 512.189 1725.86 513.146 1731.16 511.415C1732.84 509.583 1733.51 508.928 1733.56 506.288C1733.65 500.914 1728.85 494.513 1725.04 491.152C1721.19 487.749 1717.05 485.628 1711.82 485.961Q1709.29 486.146 1706.77 486.499Z"/>
	<path fill="#FDFDFC" transform="matrix(0.498535 0 0 0.499023 0 -3.05176e-05)" d="M496.902 463.383C507.93 462.112 521.037 464.19 530.01 470.947C553.729 488.809 547.637 528.269 548.112 554.436C548.292 564.374 549.632 574.157 551.054 583.977L521.891 583.995L519.595 573.543C513.169 578.549 506.764 583.033 498.726 585.002C487.497 587.752 476.854 584.488 467.263 578.621C465.2 576.549 463.181 574.239 461.502 571.847C455.243 562.929 453.343 551.57 455.4 540.968C456.908 533.192 460.792 526.487 466.737 521.256C484.123 505.959 505.6 512.085 515.074 505.115C516.857 503.803 516.734 503.158 517.052 501.105C514.429 494.898 510.141 489.519 503.725 486.902C493.266 482.635 478.388 489.798 468.735 493.782C466.647 487.008 464.981 480.057 463.155 473.205C473.926 467.704 484.946 464.829 496.902 463.383ZM502.466 528.13C495.175 530.928 489.763 533.779 486.414 541.299C484.645 545.272 484.004 549.861 485.695 553.981C487.256 557.786 490.56 560.668 494.318 562.209C496.326 563.033 498.469 563.347 500.607 563.633C506.953 561.725 512.066 559.976 515.349 553.775C519.221 546.46 518.011 535.802 517.819 527.739L502.466 528.13Z"/>
	<path fill="#FDFDFC" transform="matrix(0.498535 0 0 0.499023 0 -3.05176e-05)" d="M1508.62 463.499C1520.03 462.128 1532.39 461.56 1543.14 466.294C1553.49 470.855 1560.21 479.604 1564.12 490.012C1571.81 510.452 1567.14 531.805 1568.29 552.883C1568.79 561.879 1574.35 575.781 1570.63 583.967L1541.66 583.938C1541.8 582.712 1541.93 581.466 1541.93 580.23C1541.93 577.491 1541.58 574.651 1539.62 572.761C1533.89 575.061 1531.01 580.163 1525.79 583.03C1515.69 588.57 1501.61 584.915 1491.29 581.702C1483.32 573.007 1476.34 565.15 1475.14 552.785C1474.19 542.948 1477.07 533.15 1483.5 525.614C1497.09 509.7 1517.52 508.169 1536.84 506.559C1537.32 504.849 1537.11 503.83 1536.71 502.116C1535.54 497.203 1534.49 493.018 1529.84 490.242C1516.95 482.543 1499.76 490.379 1486.77 493.801C1487.05 492.928 1487.27 492.034 1487.31 491.115C1487.59 485.599 1485.32 477.558 1481.54 473.414C1490.63 470.122 1499.34 466.386 1508.62 463.499ZM1527.28 527.499C1518.63 529.818 1508.99 533.064 1504.24 541.375C1502.67 544.128 1502.14 547.084 1503.08 550.159C1504.58 555.063 1508.34 558.648 1512.42 561.501C1519.03 562.198 1523.94 561.981 1529.3 557.691C1534.93 553.187 1539.16 546.009 1539.74 538.75C1540 535.553 1539.38 531.523 1537.09 529.094C1535.3 527.196 1533.32 526.972 1530.83 527.132C1529.64 527.208 1528.46 527.357 1527.28 527.499Z"/>
	<path fill="#FDFDFC" transform="matrix(0.498535 0 0 0.499023 0 -3.05176e-05)" d="M965.215 568.796Q976.198 585.569 987.42 602.183C993.354 611.062 997.405 621.129 1001.09 631.113C1007.52 648.538 1030.43 723.583 1027.88 737.678C1027.25 741.165 1024.55 743.654 1021.69 745.485C1014.49 750.105 1007.35 750.985 999.102 749.1C992.322 747.55 986.399 744.881 980.929 740.596C969.677 708.533 959.367 675.934 947.612 644.08C945.417 642.684 945.809 639.975 943.466 638.152L940.54 638.882C940.78 635.446 933.033 612.964 931.924 605.499C932.495 605.514 933.967 605.729 934.418 605.493C935.51 602.827 938.195 600.922 940.323 599.109C950.891 590.1 958.237 580.721 965.215 568.796Z"/>
	<path fill="#21202D" transform="matrix(0.498535 0 0 0.499023 0 -3.05176e-05)" d="M931.924 605.499C932.495 605.514 933.967 605.729 934.418 605.493C938.924 613.054 947.231 635.214 947.612 644.08C945.417 642.684 945.809 639.975 943.466 638.152L940.54 638.882C940.78 635.446 933.033 612.964 931.924 605.499Z"/>
	<path fill="#FDFDFC" transform="matrix(0.498535 0 0 0.499023 0 -3.05176e-05)" d="M1420.49 420.499Q1421.9 420.344 1423.32 420.248C1432.94 419.63 1453.89 418.595 1461.23 425.764Q1461.61 426.132 1461.94 426.536Q1462.28 426.941 1462.58 427.378Q1462.87 427.815 1463.12 428.281Q1463.36 428.746 1463.56 429.234Q1463.76 429.722 1463.9 430.228Q1464.05 430.734 1464.14 431.253Q1464.24 431.771 1464.28 432.296Q1464.32 432.821 1464.3 433.348C1464.16 438.623 1460.79 450.206 1457.09 453.68C1456.97 453.631 1456.85 453.578 1456.73 453.532C1442.87 448.229 1424.72 447.634 1411.01 453.536C1399.67 458.416 1391.23 467.775 1386.71 479.172C1380.57 494.65 1381.06 514.356 1387.75 529.581C1392.7 540.868 1401.47 549.635 1413.06 553.987C1425.24 558.56 1444.17 559.166 1456.27 553.754C1461.19 558.058 1464.13 566.998 1464.56 573.342L1467.22 576.134L1466.99 578.61C1464.32 581.765 1458.86 582.624 1454.96 583.37C1430.21 588.107 1402.11 588.06 1380.54 573.393C1363.35 561.703 1353 543.51 1349.25 523.292C1344.86 499.647 1348.2 472.763 1362.12 452.678C1375.85 432.862 1397.62 424.663 1420.49 420.499Z"/>
	<path fill="#FDFDFC" transform="matrix(0.498535 0 0 0.499023 0 -3.05176e-05)" d="M183.964 422.458Q204.659 422.438 225.353 422.669C238.135 461.531 247.107 501.946 258.093 541.369C262.058 555.6 265.507 570.123 270.739 583.953L236.206 583.912C231.41 569.025 228.172 553.262 224.263 538.087C210.581 537.803 196.848 538.024 183.16 538.003C179.928 553.41 176.019 568.764 172.024 583.991L138.771 583.912C150.02 547.821 159.136 510.938 168.892 474.419C173.39 457.582 176.885 438.337 183.964 422.458ZM202.785 450.454C197.147 459.244 191.779 500.116 188.128 513.904L206.25 513.905L219.704 513.892C215.951 499.691 209.639 460.46 202.785 450.454Z"/>
	<path fill="#FDFDFC" transform="matrix(0.498535 0 0 0.499023 0 -3.05176e-05)" d="M338.587 463.057C342.294 462.909 345.836 462.98 349.495 463.662C361.123 465.827 367.348 473.243 373.688 482.467C376.053 479.332 378.61 476.156 381.426 473.418C387.86 467.16 396.458 462.674 405.584 462.813Q406.362 462.826 407.138 462.876Q407.914 462.927 408.687 463.016Q409.46 463.104 410.228 463.23Q410.995 463.357 411.756 463.52Q412.516 463.684 413.268 463.885Q414.02 464.086 414.76 464.323Q415.501 464.56 416.23 464.833Q416.958 465.107 417.672 465.415Q418.386 465.724 419.084 466.067Q419.783 466.41 420.463 466.787Q421.144 467.164 421.805 467.573Q422.466 467.983 423.107 468.425Q423.747 468.866 424.365 469.339Q424.983 469.811 425.578 470.313Q426.172 470.815 426.741 471.346Q427.31 471.876 427.852 472.434C446.887 492.098 441.04 557.253 440.77 583.958L409.073 583.967C409.086 578.578 409.384 573.164 409.533 567.775C409.994 551.046 413.84 506.092 401.861 493.906C399.589 491.595 396.627 490.526 393.42 490.614C390.188 490.703 387.395 491.836 385.165 494.205C373.311 506.802 377.535 553.659 377.886 571.583L377.925 583.862L346.198 583.852Q346.876 568.306 347.211 552.748C347.498 538.193 349.356 503.781 338.985 493.453C336.949 491.426 334.29 490.413 331.433 490.449C327.982 490.492 324.943 492.014 322.636 494.553C310.635 507.761 314.913 565.847 315.917 583.965L284.053 583.954L284.158 465.344L315.146 465.923L315.027 480.196C322.021 472.027 328.135 466.493 338.587 463.057Z"/>
	<path fill="#FDFDFC" transform="matrix(0.498535 0 0 0.499023 0 -3.05176e-05)" d="M52.4577 335.153L562.644 335.079L739.615 335.091C772.761 335.102 806 334.584 839.133 335.418C846.104 335.594 857.44 334.707 863.607 337.874C866.11 339.16 866.561 340.644 867.384 343.099L866.055 345.366C860.967 348.419 855.109 348.92 849.291 349.171C830.799 349.968 811.933 348.639 793.376 348.697L640.701 348.763L208.087 348.652L117.04 348.341C96.7792 348.172 75.3786 346.666 55.275 349.442C52.5947 367.711 53.8375 670.834 54.5116 672.467C55.3337 674.459 56.4017 674.605 58.2497 675.476L838.859 675.307L825.686 688.811C774.524 689.794 723.241 688.381 672.066 688.307L398.237 688.558L186.104 688.216C145.381 688.288 104.452 689.655 63.754 688.451C56.3851 688.233 47.6514 688.08 40.7193 685.317C38.3481 684.373 37.4695 683.422 36.4749 681.088C34.1407 675.611 33.6373 668.581 33.4285 662.657C32.9538 649.195 33.7059 635.553 33.7671 622.068L33.912 535.258C33.894 476.597 32.3477 417.574 33.8584 358.949C33.9599 355.01 33.8229 349.505 35.552 345.931C38.6301 339.567 46.2535 337.229 52.4577 335.153Z"/>
	<path fill="#FDFDFC" transform="matrix(0.498535 0 0 0.499023 0 -3.05176e-05)" d="M927.516 357.88L930.625 359.118C933.08 358.203 933.449 356.29 934.643 354.041C941.075 360.794 957.957 369.165 966.892 371.376C967.479 371.193 968.344 371.037 968.838 370.681C972.934 371.281 975.28 373.804 977.642 376.98C982.338 383.298 987.594 393.571 988.139 401.499C988.342 404.446 988.623 405.471 990.329 407.934C986.598 415.906 991.693 466.75 994.923 475.286C995.284 476.24 995.777 477.115 996.329 477.97C993.451 483.184 996.094 487.749 995.66 493.268C1001.48 527.692 1006.22 568.023 990.677 600.695L987.42 602.183Q976.198 585.569 965.215 568.796C958.237 580.721 950.891 590.1 940.323 599.109C938.195 600.922 935.51 602.827 934.418 605.493C933.967 605.729 932.495 605.514 931.924 605.499C925.29 605.657 918.628 607.853 911.996 608.64C907.758 609.142 903.185 608.536 899.085 609.166C898.947 609.124 898.809 609.08 898.67 609.04C896.517 608.409 893.606 607.184 891.387 607.285C889.066 607.39 888.335 608.755 886.938 610.356L887.111 607.442C885.764 603.875 881.843 602.185 879.016 599.881C866.524 589.696 893.423 556.989 891.308 536.438C886.533 534.82 881.812 535.757 876.934 535.139C867.898 533.992 873.735 529.645 870.361 525.185C867.124 523.694 864.429 523.668 860.914 523.692C860.076 522.06 859.945 519.775 859.619 517.958C860.298 513.948 861.706 510.188 861.456 506.057C856.121 506.226 843.554 505.32 839.506 501.735C838.875 501.176 838.989 498.772 838.917 497.862C842.063 487.776 842.813 476.242 845.635 465.812C856.793 424.574 878.5 390.954 910.196 362.693L911.411 359.84C914.758 356.683 918.446 356.509 922.792 356.25L927.516 357.88ZM861.456 506.057C861.706 510.188 860.298 513.948 859.619 517.958C859.945 519.775 860.076 522.06 860.914 523.692C864.429 523.668 867.124 523.694 870.361 525.185C873.735 529.645 867.898 533.992 876.934 535.139C881.812 535.757 886.533 534.82 891.308 536.438L893.304 535.451C896.27 529.953 894.444 522.109 893.701 516.182C895.671 503.918 894.07 491.552 895.259 479.274C897.234 458.88 903.862 437.784 909.398 418.076C889.101 439.946 870.735 477.495 861.456 506.057Z"/>
	<path transform="matrix(0.498535 0 0 0.499023 0 -3.05176e-05)" d="M960.834 479.547C962.355 480.371 962.321 480.782 962.992 482.322C959.828 494.501 933.947 515.273 923.726 524.035L921.342 520.84C921.404 520.242 921.325 519.612 921.526 519.045C922.212 517.118 930.077 511.17 931.946 509.472Q947.462 495.544 960.834 479.547Z"/>
	<path transform="matrix(0.498535 0 0 0.499023 0 -3.05176e-05)" d="M910.196 362.693L911.411 359.84C914.758 356.683 918.446 356.509 922.792 356.25C920.419 357.503 920.268 357.462 919.3 359.937C919.562 363.875 921.018 367.357 922.405 371.005C927.02 371.753 931.912 371.973 934.905 376.049C939.453 382.242 955.609 420.825 954.274 427.243C953.923 428.93 953.705 429.755 952.417 430.911L953.84 429.239L950.97 430.788C939.65 423.092 934.216 395.391 926.946 382.938C922.937 384.363 914.217 386.377 912.513 390.625C907.647 402.758 929.741 432.181 922.712 437.56C920.057 437.133 918.112 436.084 916.476 433.941C910.011 425.474 900.641 395.748 902.3 385.793C903.283 379.896 908.436 376.615 913.011 373.473L913.408 373.204C912.373 369.731 911.494 366.069 910.196 362.693Z"/>
	<path transform="matrix(0.498535 0 0 0.499023 0 -3.05176e-05)" d="M927.516 357.88L930.625 359.118C933.08 358.203 933.449 356.29 934.643 354.041C941.075 360.794 957.957 369.165 966.892 371.376C967.479 371.193 968.344 371.037 968.838 370.681C972.934 371.281 975.28 373.804 977.642 376.98C982.338 383.298 987.594 393.571 988.139 401.499C988.342 404.446 988.623 405.471 990.329 407.934C986.598 415.906 991.693 466.75 994.923 475.286C995.284 476.24 995.777 477.115 996.329 477.97C993.451 483.184 996.094 487.749 995.66 493.268C1001.48 527.692 1006.22 568.023 990.677 600.695L987.42 602.183Q976.198 585.569 965.215 568.796C958.237 580.721 950.891 590.1 940.323 599.109C938.195 600.922 935.51 602.827 934.418 605.493C933.967 605.729 932.495 605.514 931.924 605.499C925.29 605.657 918.628 607.853 911.996 608.64C907.758 609.142 903.185 608.536 899.085 609.166C898.947 609.124 898.809 609.08 898.67 609.04C896.517 608.409 893.606 607.184 891.387 607.285C889.066 607.39 888.335 608.755 886.938 610.356L887.111 607.442C885.764 603.875 881.843 602.185 879.016 599.881C866.524 589.696 893.423 556.989 891.308 536.438L893.304 535.451C896.27 529.953 894.444 522.109 893.701 516.182C910.066 542.2 877.793 579.948 881.371 594.573C883.135 596.799 885.012 598.32 887.492 599.708C897.478 605.296 911.254 605.123 921.959 601.925C942.308 595.847 953.199 580.575 962.651 562.763C973.141 542.992 989.314 512.661 991.017 490.623C991.864 479.667 989.747 467.989 988.294 457.137C986.642 444.796 985.03 432.282 981.354 420.354C976.451 415.603 970.852 411.887 966.252 406.732C959.871 399.58 954.839 391.275 948.18 384.359C942.541 378.502 934.131 372.782 929.779 366.025C928.266 363.676 927.919 360.593 927.516 357.88Z"/>
	<path fill="#FDFDFC" transform="matrix(0.498535 0 0 0.499023 0 -3.05176e-05)" d="M930.756 359.667C942.241 360.062 956.305 370.225 966.141 375.821C970.404 385.68 979.481 391.574 987.769 397.778C986.423 403.337 985.615 409.077 984.627 414.711C983.99 415.404 983.274 415.374 982.378 415.597C969.692 409.49 965.191 392.942 956.091 383.23C948.196 374.804 936.105 370.301 930.756 359.667Z"/>
	<path fill="#FDFDFC" transform="matrix(0.498535 0 0 0.499023 0 -3.05176e-05)" d="M966.79 564.612C978.433 539.84 987.125 520.569 994.114 493.996L995.66 493.268C1001.48 527.692 1006.22 568.023 990.677 600.695C983.045 588.472 974.812 576.584 966.79 564.612Z"/>
	<path fill="#FDFDFC" transform="matrix(0.498535 0 0 0.499023 0 -3.05176e-05)" d="M1208.32 335.5L1751.31 335.236Q1822.12 335.7 1892.92 335.187C1925.69 334.949 1959.27 333.364 1991.92 335.8C1998.06 336.259 2005.02 337.556 2009.56 342.21C2012.57 345.29 2012.91 354.067 2013.12 358.345C2014.01 377.168 2013.55 396.261 2013.69 415.124Q2014.14 479.162 2013.84 543.2L2014.08 623.586C2014.1 638.26 2014.58 653.205 2013.57 667.837C2013.25 672.407 2012.87 680.799 2009.4 684.046C2006.25 687.001 2001.48 687.782 1997.36 688.035C1949.28 690.994 1896.15 688.53 1847.47 688.542L1555.17 688.536L1210.82 688.528L1098.27 688.524C1081.94 688.54 1065.38 689.483 1049.07 688.843C1034.31 688.264 1042.4 683.839 1034.49 675.691C1034.33 675.525 1034.16 675.368 1034 675.206L1178.75 675.304L1990.61 675.206C1991.02 674.632 1991.34 674.082 1991.62 673.432C1993.7 668.723 1992.67 658.158 1992.75 652.774C1993.11 627.069 1995.2 359.642 1991.63 350.352C1986.41 347.687 1976.08 348.343 1970.21 348.237C1943.04 347.749 1915.77 348.406 1888.58 348.452L1724.26 348.556L1216.48 348.661L1091.05 348.782C1076.03 348.789 1049.72 351.207 1036.25 347.749C1032.73 346.846 1031.03 345.562 1029.18 342.492C1029.38 340.987 1029.24 339.849 1030.35 338.735C1032.72 336.374 1036.83 335.791 1040.02 335.513C1056.47 334.076 1074.4 335.618 1090.99 335.604L1208.32 335.5Z"/>
	<path fill="#FDFDFC" transform="matrix(0.498535 0 0 0.499023 0 -3.05176e-05)" d="M1190.31 417.496L1191.31 417.368Q1192.61 417.213 1193.91 417.09Q1195.21 416.967 1196.51 416.876Q1197.82 416.785 1199.12 416.726Q1200.43 416.667 1201.74 416.64Q1203.04 416.613 1204.35 416.618Q1205.66 416.623 1206.96 416.66Q1208.27 416.697 1209.57 416.767Q1210.88 416.836 1212.18 416.937Q1213.49 417.038 1214.79 417.172Q1216.09 417.305 1217.38 417.47Q1218.68 417.635 1219.97 417.832Q1221.26 418.028 1222.55 418.257Q1223.84 418.485 1225.12 418.745Q1226.4 419.005 1227.67 419.297Q1228.95 419.588 1230.21 419.91Q1231.48 420.233 1232.74 420.586Q1234 420.94 1235.24 421.324Q1236.49 421.708 1237.73 422.123Q1238.97 422.538 1240.2 422.983Q1241.43 423.428 1242.65 423.903Q1243.87 424.378 1245.07 424.883Q1246.28 425.388 1247.47 425.922Q1248.66 426.456 1249.84 427.02Q1251.02 427.583 1252.19 428.175Q1253.35 428.767 1254.5 429.388Q1255.65 430.008 1256.79 430.657Q1257.92 431.305 1259.04 431.982Q1260.16 432.658 1261.26 433.361Q1262.36 434.065 1263.44 434.795Q1264.53 435.525 1265.59 436.282Q1266.66 437.039 1267.71 437.821Q1268.75 438.604 1269.78 439.412Q1270.83 440.237 1271.85 441.087Q1272.88 441.938 1273.89 442.813Q1274.89 443.688 1275.88 444.589Q1276.86 445.489 1277.82 446.413Q1278.78 447.337 1279.72 448.284Q1280.66 449.232 1281.57 450.202Q1282.49 451.173 1283.38 452.165Q1284.27 453.158 1285.13 454.172Q1286 455.187 1286.84 456.222Q1287.68 457.258 1288.49 458.314Q1289.3 459.37 1290.09 460.445Q1290.88 461.521 1291.64 462.616Q1292.4 463.71 1293.13 464.824Q1293.87 465.937 1294.57 467.068Q1295.28 468.199 1295.96 469.347Q1296.64 470.495 1297.28 471.66Q1297.93 472.824 1298.55 474.005Q1299.17 475.185 1299.76 476.38Q1300.36 477.575 1300.92 478.785Q1301.48 479.994 1302.01 481.217Q1302.54 482.44 1303.04 483.675Q1303.54 484.911 1304.01 486.159Q1304.48 487.406 1304.92 488.665Q1305.36 489.924 1305.77 491.193Q1306.18 492.463 1306.55 493.742Q1306.93 495.021 1307.27 496.309Q1307.62 497.596 1307.93 498.892Q1308.24 500.188 1308.52 501.492Q1308.8 502.795 1309.05 504.105Q1309.3 505.415 1309.52 506.731Q1309.73 508.046 1309.92 509.367Q1310.1 510.687 1310.25 512.012C1313.5 540.037 1306.08 569.336 1288.33 591.484C1270.15 614.153 1243.52 626.788 1214.98 629.951C1190.94 632.296 1169.17 626.198 1148.73 613.44Q1147.61 612.74 1146.51 612.012Q1145.41 611.285 1144.33 610.531Q1143.24 609.777 1142.18 608.997Q1141.11 608.217 1140.07 607.412Q1139.02 606.606 1138 605.776Q1136.97 604.945 1135.97 604.089Q1134.96 603.234 1133.98 602.355Q1133 601.475 1132.04 600.572Q1131.07 599.669 1130.13 598.743Q1129.19 597.816 1128.28 596.868Q1127.36 595.919 1126.47 594.948Q1125.57 593.977 1124.7 592.985Q1123.83 591.993 1122.99 590.98Q1122.14 589.967 1121.32 588.934Q1120.5 587.901 1119.7 586.848Q1118.91 585.795 1118.14 584.723Q1117.37 583.651 1116.63 582.561Q1115.88 581.471 1115.17 580.363Q1114.45 579.255 1113.76 578.13Q1113.07 577.005 1112.41 575.863Q1111.75 574.722 1111.11 573.565Q1110.48 572.407 1109.87 571.235Q1109.27 570.063 1108.69 568.876Q1108.11 567.69 1107.57 566.489Q1107.02 565.289 1106.5 564.076Q1105.98 562.863 1105.49 561.637Q1105 560.412 1104.54 559.175Q1104.08 557.938 1103.65 556.69Q1103.22 555.442 1102.83 554.184Q1102.43 552.926 1102.06 551.659Q1101.69 550.392 1101.35 549.116Q1101.02 547.841 1100.71 546.557Q1100.41 545.276 1100.15 543.988Q1099.88 542.7 1099.65 541.406Q1099.42 540.112 1099.22 538.812Q1099.02 537.513 1098.85 536.209Q1098.68 534.905 1098.54 533.597Q1098.4 532.289 1098.3 530.978Q1098.2 529.667 1098.12 528.354Q1098.05 527.041 1098.01 525.727Q1097.97 524.412 1097.97 523.097Q1097.96 521.782 1097.99 520.468Q1098.01 519.153 1098.07 517.839Q1098.13 516.526 1098.22 515.214Q1098.31 513.902 1098.43 512.593Q1098.55 511.284 1098.71 509.978Q1098.86 508.672 1099.05 507.371Q1099.24 506.069 1099.46 504.772Q1099.68 503.476 1099.93 502.185Q1100.18 500.894 1100.46 499.61Q1100.75 498.326 1101.06 497.05Q1101.38 495.773 1101.72 494.504Q1102.07 493.236 1102.45 491.976Q1102.82 490.716 1103.23 489.467Q1103.64 488.217 1104.08 486.977Q1104.52 485.738 1104.99 484.51Q1105.46 483.281 1105.96 482.065Q1106.46 480.849 1106.99 479.645Q1107.52 478.442 1108.08 477.252Q1108.64 476.062 1109.23 474.886Q1109.81 473.71 1110.43 472.549Q1111.05 471.388 1111.69 470.243Q1112.34 469.097 1113.01 467.968Q1113.69 466.839 1114.39 465.727C1132.38 437.189 1158.34 424.661 1190.31 417.496ZM1195.38 456.495C1190.54 457.112 1184.16 456.627 1181.04 461.015C1174.06 470.826 1183.99 487.887 1177.23 496.783C1168.04 498.106 1146.96 493.196 1141.24 501.951C1135.92 510.092 1137.39 531.915 1139.78 540.924C1140.83 544.876 1142.53 548.967 1146.24 551.095C1155.82 556.583 1175.21 544.083 1179.69 557.594C1182.82 567.05 1171.34 580.131 1182.29 586.624C1190.97 591.773 1204.95 591.069 1214.75 590.897C1220.61 590.613 1227.19 590.463 1231.49 585.828C1234.97 582.079 1234.57 575.867 1234.15 571.145C1233.61 565.135 1232.33 559.044 1233.4 553.043C1241.45 546.441 1269.85 563.172 1272.63 536.669C1273.46 528.733 1274.48 508.777 1269.34 502.467C1266.01 498.368 1260.58 497.139 1255.55 496.78C1247.26 496.188 1238.48 496.918 1230.13 497.036C1234.91 491.347 1234.56 480.54 1234.04 473.442C1233.69 468.629 1232.04 463.519 1228.28 460.292C1220.72 453.81 1204.83 455.627 1195.38 456.495Z"/>
</svg>