<?xml version="1.0" encoding="utf-8" ?>
<svg xmlns="http://www.w3.org/2000/svg" xmlns:xlink="http://www.w3.org/1999/xlink" width="1013" height="507">
	<path fill="#242734" fill-opacity="0.98431373" transform="scale(0.494629 0.495117)" d="M370.626 595.912C372.838 596.269 374.257 596.652 376.067 598.002C382.373 632.708 385.335 667.284 390.182 702.117Q383.884 705.873 377.218 708.93Q370.553 711.987 363.597 714.31C363.011 718.34 362.272 722.406 361.917 726.461C359.662 729.273 360.144 731.599 358.246 734.103L357.509 733.707C358.757 724.083 359.065 713.268 357.97 703.626C357.839 699.748 358.558 695.867 359.108 692.037L361.192 693.691C361.366 695.359 361.172 700.157 362.243 701.039L363.013 708.818C369.617 706.082 375.961 702.478 382.307 699.185C382.305 679.913 380.428 659.972 376.971 641.017C374.648 628.277 370.63 614.354 370.042 601.5L370.626 595.912Z"/>
	<path fill="#242734" fill-opacity="0.94117647" transform="scale(0.494629 0.495117)" d="M358.469 871.134C353.017 831.704 350.112 741.796 357.97 703.626C359.065 713.268 358.757 724.083 357.509 733.707L358.246 734.103C360.144 731.599 359.662 729.273 361.917 726.461Q360.078 755.088 360.116 783.775Q360.155 812.461 362.071 841.083C362.788 851.057 363.149 861.768 364.941 871.599L358.469 871.134Z"/>
	<path fill="#373C48" transform="scale(0.494629 0.495117)" d="M1630.32 440.499C1633.47 440.272 1638.02 439.499 1640.89 440.915C1641.63 441.28 1641.99 442.486 1642.2 443.246C1644.2 450.23 1644.94 470.957 1641.35 477.159C1635.43 478.408 1629.32 478.671 1623.53 480.475C1588.96 491.243 1598.41 545.419 1599.13 572.809C1599.32 580.204 1600.07 590.042 1596.64 596.724C1586.35 598.024 1571.29 598.227 1561.02 596.65C1555.42 595.79 1557.94 591.678 1555.11 587.873C1555.02 587.744 1554.91 587.622 1554.81 587.496C1555.48 586.643 1556.17 585.741 1556.61 584.74C1557.96 581.643 1557.05 458.184 1556.06 448.526C1555.92 447.073 1555.39 445.685 1554.81 444.358Q1573.7 444.053 1592.58 444.529C1592.87 445.029 1593.14 445.552 1593.32 446.101C1595.13 451.578 1594.08 461.176 1591.84 466.39C1595.27 464.625 1597.6 461.844 1600.34 459.203C1609.65 450.226 1617.56 443.808 1630.32 440.499Z"/>
	<path fill="#373C48" transform="scale(0.494629 0.495117)" d="M883.753 444.269C907.344 442.955 931.585 443.95 955.236 443.942C977.33 443.935 1000.7 442.567 1022.63 445.07C1009.3 459.854 998.725 475.959 987.417 492.262L939.809 561.108L1011.68 561.149C1011.46 573.09 1011.89 585.037 1011.63 596.982L865.648 597.194C884.386 576.662 899.552 552.075 915.254 529.158C926.546 512.677 938.552 496.704 949.444 479.948L884.548 479.849C884.663 468.036 884.852 456.036 883.753 444.269Z"/>
	<path fill="#373C48" transform="scale(0.494629 0.495117)" d="M1290.23 395.499C1310.02 394.313 1334.08 398.765 1351.56 408.34C1355.18 410.325 1361.47 414.112 1362.66 418.3C1362.17 428.136 1350.43 445.836 1343.49 452.607C1342.98 451.674 1342.27 450.872 1341.56 450.085C1332.29 439.813 1315.61 435.151 1302.13 434.511C1285.65 433.728 1268.13 439.44 1255.97 450.697C1243.12 462.594 1235.63 480.385 1235.04 497.813C1234.49 513.82 1240.1 531.5 1251.23 543.191C1270.95 563.888 1301.17 565.587 1326.48 555.669C1331.26 553.794 1338.53 548.493 1343.46 548.646C1345.53 549.714 1346.18 550.729 1347.14 552.833C1347.24 553.054 1347.34 553.277 1347.43 553.499C1347.62 553.592 1347.81 553.667 1347.98 553.776C1352.51 556.625 1360.35 568.145 1361.24 573.367C1361.72 576.141 1361.07 578.515 1359.38 580.764C1352.24 590.258 1322.69 597.228 1310.8 598.826C1281.87 602.714 1252.15 596.545 1228.79 578.535C1208.01 562.518 1195.34 536.065 1192.14 510.348C1188.87 484.033 1198.52 456.504 1214.6 435.846C1233.26 411.876 1260.48 399.129 1290.23 395.499Z"/>
	<path fill="#373C48" transform="scale(0.494629 0.495117)" d="M1718.18 441.5C1738.1 439.924 1756.9 443.359 1773.4 455.171C1791.81 468.34 1801.6 486.966 1805.23 509.022C1806.55 516.981 1807.12 528.026 1802.24 534.873C1765.47 535.907 1728.56 533.853 1691.78 535.164C1696.82 543.191 1698.01 551.613 1706.19 557.886C1717.45 566.529 1734.57 568.33 1748.29 566.48C1757.29 565.269 1768.09 562.252 1773.82 554.791C1777.43 556.171 1779.6 558.062 1781.27 561.505C1781.48 561.599 1781.69 561.69 1781.9 561.788C1785.98 563.74 1795.19 571.531 1796.43 575.943C1797.04 578.146 1796.64 580.054 1795.51 582.002C1790.31 590.934 1770.24 596.702 1760.58 598.793C1733.58 604.638 1706.77 600.986 1683.52 585.877C1668.15 575.884 1656.93 558.145 1653.2 540.373C1648.81 519.521 1651.93 495.214 1663.69 477.228C1677.4 456.263 1694 446.6 1718.18 441.5ZM1722.52 474.499C1710.31 478.426 1703.34 484.516 1697.44 495.976C1695.43 499.883 1693.99 504.263 1691.78 508.022Q1712.76 508.257 1733.75 508.09C1741.01 508.241 1760.72 510.792 1765.96 506.274C1767.1 503.783 1767.12 501.833 1766.21 499.285C1762.95 490.116 1754.15 481.927 1745.41 478.006Q1744.07 477.414 1742.69 476.912Q1741.32 476.41 1739.91 475.999Q1738.51 475.589 1737.08 475.272Q1735.65 474.955 1734.2 474.734Q1732.75 474.512 1731.29 474.386Q1729.83 474.26 1728.37 474.23Q1726.9 474.201 1725.44 474.268Q1723.98 474.335 1722.52 474.499Z"/>
	<path fill="#373C48" transform="scale(0.494629 0.495117)" d="M1092.62 441.494C1112.05 440.048 1132.01 443.339 1148.01 455.084C1164.24 466.998 1174.34 486.813 1177.24 506.504C1178.51 515.101 1180.76 527.403 1175.27 534.861L1063.27 534.782C1068.96 539.727 1072.43 552.648 1081.43 559.425C1086.49 563.229 1092.89 564.708 1099.04 565.584C1104.49 566.359 1110.89 567.38 1116.36 566.675C1125.82 565.457 1143.41 557.09 1147.06 556.882C1147.51 556.856 1148.7 557.417 1149.19 557.576L1150.31 560.056C1155.41 563.256 1163.91 569.489 1165.17 575.721C1165.66 578.1 1164.96 580.289 1163.6 582.24C1156.81 591.967 1135.95 597.712 1124.69 599.797C1101.4 604.112 1075.58 600.071 1055.9 586.461C1039.05 574.814 1028.93 557.805 1025.28 537.8C1021.26 515.775 1025.71 490.393 1038.65 471.915C1051.76 453.184 1070.82 445.391 1092.62 441.494ZM1100.73 475.499C1090.78 476.806 1082.85 480.322 1076.63 488.449C1072.42 493.955 1068.3 504.551 1063.9 508.511L1101.75 508.479L1136.7 508.6C1138.11 505.003 1136.88 500.334 1135.43 496.893C1131.71 488.085 1122.71 481.316 1114.05 477.838C1109.69 476.087 1105.39 475.597 1100.73 475.499Z"/>
	<path fill="#373C48" transform="scale(0.494629 0.495117)" d="M515.609 440.369C520.55 440.052 525.741 440.14 530.632 440.922C546.139 443.401 555.874 452.84 564.613 465.08C566.573 462.595 568.55 460.08 570.714 457.768C581.321 446.436 595.877 440.673 611.25 440.291C625.973 439.925 641.48 444.213 652.218 454.668C659.816 462.066 664.128 471.751 666.269 481.998C669.635 498.111 667.393 515.325 667.257 531.675Q667.185 564.273 667.683 596.868C653.921 597.176 640.096 596.91 626.327 596.911C626.226 576.932 625.933 556.922 626.192 536.946C626.353 524.463 627.912 511.137 626.241 498.771C625.468 493.053 624.189 486.611 620.059 482.296C615.641 477.68 609.347 475.914 603.118 475.766C596.233 475.603 590.009 476.79 584.979 481.761C569.507 497.053 574.274 556.221 574.323 578.681L574.378 597.179L532.053 597.521C532.052 571.672 532.689 545.927 533.048 520.098C533.194 509.602 533.373 489.547 525.427 481.689C520.461 476.778 512.832 475.104 506.07 475.102C499.133 475.099 492.53 477.445 487.657 482.491C483.081 487.229 480.746 493.653 479.475 500.002C476.631 514.203 477.737 529.566 477.862 543.987L478.344 597.531Q456.12 597.814 433.896 597.579Q435.672 519.953 435.17 442.308C448.927 442.013 462.72 442.258 476.481 442.318L476.102 459.776C488.888 448.494 498.342 442.342 515.609 440.369Z"/>
	<path fill="#373C48" transform="scale(0.494629 0.495117)" d="M1423.17 441.499Q1425.6 441.172 1428.05 440.997Q1430.5 440.822 1432.95 440.8Q1435.41 440.779 1437.86 440.91Q1440.31 441.042 1442.75 441.327Q1445.19 441.611 1447.6 442.048Q1450.02 442.484 1452.4 443.07Q1454.78 443.656 1457.13 444.39Q1459.47 445.124 1461.76 446.003C1469.51 449 1481.26 455.085 1484.7 462.85C1485.27 461.95 1485.75 460.991 1485.98 459.949C1487.21 454.49 1486.1 449.066 1483.25 444.357Q1504.15 444.274 1525.04 444.528L1525.24 445.096C1525.49 445.743 1525.72 446.39 1525.91 447.057C1528.08 454.872 1526.15 491.348 1526.14 501.746C1526.12 530.587 1527.68 560.184 1526.12 588.954C1525.97 591.797 1525.71 594.228 1524.28 596.75L1483.3 596.757C1484.95 594.707 1485.91 590.603 1485.69 587.984C1485.53 585.97 1485.11 585.449 1483.59 584.263L1480.52 585.496C1480.45 585.621 1480.4 585.752 1480.32 585.87C1475.79 592.991 1461.88 597.671 1453.93 599.512C1435.36 603.808 1414.08 600.81 1397.83 590.757C1380.88 580.276 1368.24 562.148 1363.71 542.794C1358.53 520.698 1360.67 493.664 1372.95 474.169C1384.92 455.162 1401.86 446.415 1423.17 441.499ZM1437.69 476.499C1424.41 480.509 1413 485.763 1406.06 498.582C1400.17 509.462 1399.74 523.27 1403.35 534.945Q1403.67 536.004 1404.04 537.046Q1404.41 538.088 1404.83 539.11Q1405.26 540.132 1405.73 541.132Q1406.2 542.132 1406.73 543.107Q1407.25 544.082 1407.82 545.029Q1408.39 545.977 1409.01 546.895Q1409.62 547.813 1410.29 548.699Q1410.95 549.585 1411.66 550.437Q1412.36 551.288 1413.11 552.104Q1413.86 552.92 1414.64 553.697Q1415.43 554.474 1416.25 555.211Q1417.08 555.948 1417.94 556.643Q1418.8 557.338 1419.69 557.989Q1420.59 558.64 1421.51 559.246Q1422.44 559.852 1423.39 560.411Q1424.35 560.969 1425.33 561.48C1430.46 564.1 1441.51 567.073 1447.24 565.363C1459.05 564.205 1470.39 559.667 1478.03 550.235C1485.9 540.517 1488.2 527.047 1486.84 514.844C1485.57 503.356 1480.39 492.979 1471.22 485.78C1461.74 478.337 1449.58 475.483 1437.69 476.499Z"/>
	<path fill="#373C48" transform="scale(0.494629 0.495117)" d="M752.671 440.258C780.002 437.524 791.328 446.419 811.813 461.505L811.677 444.445C825.271 444.168 838.905 444.417 852.503 444.471C851.033 495.1 852.187 546.25 852.934 596.906L811.318 597.073C811.133 592.909 811.821 586.061 809.409 582.717L807.401 583.974C797.942 591.585 787.589 597.849 775.553 600.286C757.556 603.929 737.339 599.16 722.203 589.008C704.776 577.32 693.179 558.737 689.204 538.247C684.895 516.037 688.379 489.994 701.328 471.097C713.794 452.904 731.466 444.184 752.671 440.258ZM771.66 474.357C758.891 475.672 747.633 479.61 739.175 489.845C730.777 500.008 728.174 513.133 729.543 526.002C730.786 537.682 735.543 549.003 744.873 556.48C753.095 563.069 763.066 565.303 773.369 565.918C786.064 564.457 796.861 561.128 805.091 550.588C813.205 540.197 815.819 526.376 814.048 513.493C812.409 501.569 806.97 490.343 797.22 483.017C789.813 477.453 780.819 474.863 771.66 474.357Z"/>
	<path fill="#242734" transform="scale(0.494629 0.495117)" d="M284.958 202.145L284.572 202.844C282.982 205.675 281.308 207.35 278.042 208.241C274.56 209.19 267.643 208.698 264.52 206.829C258.971 203.507 253.033 195.703 251.545 189.371C250.26 183.905 252.141 177.383 255.104 172.771C258.121 168.074 262.16 165.152 267.664 164.078C271.082 163.412 283.033 165.263 283.582 164.446C285.934 160.94 286.909 152.08 288.071 147.779C293.226 128.694 308.856 114.53 327.652 109.003Q329.018 108.59 330.402 108.245Q331.787 107.9 333.187 107.626Q334.587 107.351 336 107.147Q337.412 106.943 338.832 106.81Q340.253 106.677 341.679 106.615Q343.104 106.553 344.531 106.563Q345.958 106.573 347.382 106.655Q348.807 106.736 350.226 106.889Q351.644 107.041 353.053 107.265Q354.463 107.489 355.859 107.783Q357.255 108.077 358.635 108.441Q360.015 108.804 361.375 109.237Q362.734 109.669 364.071 110.169Q365.407 110.669 366.717 111.235Q368.026 111.802 369.306 112.433Q370.586 113.064 371.832 113.759C382.097 119.472 390.458 127.594 397.557 136.864C404.349 138.966 409.89 141.608 413.254 148.231C415.616 152.884 415.693 158.188 413.982 163.067C411.477 170.211 406.67 174.072 400.382 177.821C397.381 186.612 393.242 194.663 388.841 202.822C389.475 207.346 391.589 215.097 388.675 219.001C386.504 221.909 382.277 222.307 378.959 222.81C373.18 230.449 366.155 241.046 355.888 242.412C346.044 243.721 332.431 232.211 329.759 233.665C329.275 236.328 328.686 238.151 330.246 240.675C332.438 244.221 337.051 246.513 340.042 249.427C345.033 254.29 350.638 259.92 355.119 265.224C370.736 283.708 371.05 318.959 375.976 341.675C395.055 328.825 410.592 311.262 429.461 298.489C447.664 305.593 466.502 317.247 482.679 328.184C475.406 338.737 411.789 395.121 399.314 402.564C394.604 400.868 390.197 399.147 385.825 396.657C375.963 404.942 364.857 412.309 354.164 419.491C354.778 433.589 363.165 450.775 367.839 464.104C375.199 485.092 382.271 506.283 390.182 527.065C399.182 550.707 408.949 574.036 417.492 597.858L376.067 598.002C374.257 596.652 372.838 596.269 370.626 595.912L370.042 601.5L367.857 597.743L366.764 597.595C365.837 601.775 366.032 606.193 365.988 610.457C366.289 642.745 369.471 677.13 363.013 708.818L362.243 701.039C361.172 700.157 361.366 695.359 361.192 693.691L359.108 692.037C358.558 695.867 357.839 699.748 357.97 703.626C350.112 741.796 353.017 831.704 358.469 871.134L364.941 871.599C369.957 876.807 374.718 881.791 381.322 885.02C393.026 890.743 419.075 889.012 426.578 900.064C427.665 901.665 428.15 903.523 427.757 905.435C427.258 907.865 425.553 909.689 423.587 911.069C418.745 914.468 412.438 916.068 406.637 916.724C394.83 918.059 382.638 915.972 370.812 915.395C358.902 914.814 346.247 915.67 334.54 913.397C330.898 912.69 321.887 910.89 319.998 907.467C315.514 899.344 321.285 880.522 323.435 872.05C319.743 864.158 318.221 853.295 315.865 844.805C302.862 797.963 297.476 769.859 295.208 721.123Q289.507 728.864 284.064 736.789Q278.621 744.713 273.441 752.812Q268.261 760.911 263.35 769.175Q258.439 777.44 253.802 785.862Q249.165 794.283 244.807 802.853Q240.45 811.422 236.376 820.13Q232.302 828.838 228.517 837.675Q224.731 846.512 221.238 855.469C219.118 861.016 217.253 867.024 219.811 872.706C230.046 884.46 250.219 881.634 263.674 885.095C268.692 886.386 272.804 889.006 275.335 893.619C276.055 894.933 276.602 896.874 276.125 898.34C274.933 902.007 272.351 903.799 269.052 905.455C263.285 908.35 255.759 910.141 249.306 910.45C235.205 911.125 193.982 903.56 180.133 898.924C174.807 897.141 169.451 894.828 166.86 889.554C165.559 880.244 174.159 871.37 176.319 862.505C179.166 850.822 179.827 838.147 182.162 826.251C188.857 792.147 199.577 760.792 214.701 729.506C191.776 725.459 171.105 716.24 150.86 705.051C157.149 677.636 161.634 649.766 166.747 622.112C171.671 595.475 177.252 568.854 182.712 542.316C188.967 511.915 198.934 481.858 203.495 451.174C206.206 432.933 206.77 414.537 207.995 396.165C209.021 380.776 210.659 365.449 211.556 350.046C212.836 328.08 211.354 295.704 219.207 275.747C228.007 253.383 249.501 239.831 270.676 230.794L272.142 228.011C276.1 219.167 285.269 215.851 293.407 211.819C294.347 209.093 295.718 206.027 295.54 203.107C295.44 201.467 294.851 201.288 293.711 200.22C290.198 199.641 288.075 200.7 284.958 202.145ZM218.614 354.426C212.113 388.631 215.219 424.218 208.969 458.5C204.722 481.799 198.117 504.514 192.841 527.57Q178.599 589.688 166.854 652.325C163.67 668.82 159.774 685.357 157.139 701.938C194.408 723.605 234.701 731.077 276.847 720.024C305.016 712.637 335.606 699.838 359.937 684.009L362.246 685.066C363.585 689.819 362.807 696.153 362.243 701.039L363.013 708.818C369.471 677.13 366.289 642.745 365.988 610.457C366.032 606.193 365.837 601.775 366.764 597.595L367.857 597.743L370.042 601.5L370.626 595.912C372.838 596.269 374.257 596.652 376.067 598.002L417.492 597.858C408.949 574.036 399.182 550.707 390.182 527.065C382.271 506.283 375.199 485.092 367.839 464.104C363.165 450.775 354.778 433.589 354.164 419.491C351.277 411.594 352.685 398.89 350 393.729C349.247 392.282 345.948 391.692 344.251 388.578C342.229 385.127 338.941 383.815 335.197 382.853C323.868 379.94 310.116 382.271 298.512 382.923C297.357 386.482 292.712 403.625 290.838 405.271L287.537 414.219C278.799 417.746 267.819 423.584 258.282 419.499C247.74 414.983 244.914 399.045 241.294 396.874C235.994 393.694 233.708 403.899 227.963 388.865C223.804 377.982 221.314 365.751 218.614 354.426ZM359.108 692.037C339.832 700.999 321.221 710.685 301.46 718.64C303.603 772.565 314.164 821.986 330.775 873.189C340.117 873.237 349.232 872.538 358.469 871.134C353.017 831.704 350.112 741.796 357.97 703.626C357.839 699.748 358.558 695.867 359.108 692.037ZM270.919 237.981C253.467 245.39 232.958 255.99 225.426 274.735C214.39 302.201 219.747 331.944 226.311 359.684C228.266 367.945 229.951 376.784 233.353 384.579C234.338 386.837 235.472 388.684 237.249 390.401C240.005 389.863 241.906 388.484 244.172 386.938C257.854 379.381 271.956 374.595 286.639 369.498C280.976 347.978 265.349 309.322 277.029 289.06C278.776 286.029 281.551 283.318 283.932 280.759C281.949 274.309 274.27 240.642 270.919 237.981ZM280.07 725.231C260.111 729.431 241.559 731.557 221.14 729.836C215.664 740.33 210.495 750.769 206.396 761.903C201.984 773.884 179.15 850.477 182.472 859.783C182.584 860.095 182.72 860.397 182.844 860.704C184.616 861.127 186.446 861.692 188.243 861.959C195.969 863.469 203.572 864.965 211.44 865.477Q214.797 856.205 218.457 847.047Q222.116 837.89 226.074 828.857Q230.031 819.824 234.283 810.926Q238.534 802.028 243.075 793.274Q247.616 784.52 252.441 775.92Q257.266 767.319 262.371 758.882Q267.475 750.444 272.853 742.178Q278.232 733.912 283.878 725.827L282.983 724.673L280.07 725.231ZM302.734 207.148C301.288 209.572 299.756 212 298.558 214.557C297.208 217.439 297.417 217.7 298.519 220.775C303.272 221.937 312.212 232.369 314.686 236.76C315.053 237.412 315.059 237.562 315.226 238.192C317.104 239.985 317.769 241.024 320.404 241.447C325.719 237.763 327.769 224.632 329.462 218.411C333.484 223.235 337.631 228.597 342.754 232.253C346.824 235.159 351.499 237.176 356.582 236.258C365.605 234.627 371.154 225.497 376.098 218.654C378.767 217.418 381.579 216.394 384.308 215.291L381.988 203.157C384.886 197.107 388.787 191.548 391.428 185.356C393.12 181.389 394.962 175.661 393.013 171.466C391.578 168.377 388.976 167.533 385.983 166.631C382.804 167.562 377.147 178.379 374.243 181.547C374.071 181.734 373.896 181.919 373.718 182.101C373.55 182.273 373.379 182.442 373.205 182.609Q372.709 183.088 372.179 183.531C363.738 190.551 351.753 186.201 342.04 189.132C323.673 194.673 329.123 205.772 302.734 207.148ZM379.392 344.146C373.455 354.467 368.477 360.185 356.451 363.491C348.608 365.647 299.51 372.868 294.745 371.109C278.896 380.05 261.87 384.86 245.388 392.223L245.99 392.924C251.968 399.995 254.816 413.345 265.684 414.578C274.016 415.524 283.656 408.981 290.838 405.271C292.712 403.625 297.357 386.482 298.512 382.923C310.116 382.271 323.868 379.94 335.197 382.853C338.941 383.815 342.229 385.127 344.251 388.578C351.389 386.489 358.409 383.927 365.683 382.37C389.277 377.319 405.976 375.875 421.47 355.446C412.284 359.472 398.4 365.311 388.413 361.497C384.965 360.18 381.904 357.487 380.536 354.007C379.416 351.157 379.55 347.187 379.392 344.146ZM297.362 286.008L299.035 289.84C300.524 294.431 303.203 300.926 302.611 305.738C301.095 307.914 300.849 308.366 298.433 309.372C293.018 308.233 290.696 301.044 287.748 296.89C286.613 295.29 286.315 294.373 284.297 294.022C284.029 294.509 283.728 294.999 283.536 295.526C280.055 305.065 283.042 323.539 286.751 332.746C291.338 344.131 300.246 350.923 311.153 355.693C323.12 336.021 324.252 347.583 332.234 339.944C334.074 336.809 334.692 333.978 334.549 330.339C334.061 317.865 325.301 301.711 316.057 293.536C311.126 289.175 304.092 285.535 297.362 286.008ZM334.025 252.825C345.96 289.437 357.019 320.684 346.862 359.261C351.852 358.62 357.024 358.217 361.877 356.86C365.076 354.826 367.058 353.617 367.933 349.682C372.246 330.303 361.418 286.155 350.239 269.12C346.237 263.021 340.551 256.262 334.025 252.825ZM295.545 276.282C309.646 278.031 318.652 282.085 327.856 293.138C327.877 290.431 325.925 287.525 324.742 285.128C313.45 268.104 301.672 239.892 286.916 226.669C284.706 226.741 284.626 227.213 283.065 228.675C278.773 241.662 291.602 263.75 295.545 276.282ZM363.654 388.124C360.911 389.083 357.996 389.351 356.71 392.263C354.192 397.965 355.143 406.375 353.55 412.711L366.175 404.27C370.696 400.897 375.175 397.408 379.788 394.164C375.015 390.377 371.927 387.133 365.379 387.893Q364.515 387.995 363.654 388.124ZM290.273 353.767C290.27 357.693 290.077 361.259 291.772 364.884C293.458 366.185 294.317 367.109 296.614 366.859C299.153 366.583 302.276 365.014 304.664 364.067L306.379 362.514C302.915 358.773 294.944 356.006 290.273 353.767ZM336.837 350.362C332.955 353.133 327.232 356.231 324.684 360.282C325.96 360.968 326.578 361.079 328.021 360.987C332.536 360.644 337.091 361.167 340.471 357.915C341.179 355.175 340.596 353.852 339.49 351.377L336.837 350.362Z"/>
	<path fill="#373C48" transform="scale(0.494629 0.495117)" d="M272.142 228.011C276.547 226.785 280.146 224.578 284.031 222.255C282.155 226.19 280.356 230.188 278.169 233.961C281.007 248.516 285.851 264.106 292.002 277.666C297.095 279.702 303.178 279.435 307.369 282.458L307.529 283.162C304.443 283.01 300.147 282.294 297.492 284.036L297.362 286.008L299.035 289.84C298.623 292.012 298.725 294.127 298.73 296.328C298.735 299.023 299.172 304.012 297.268 305.926C292.119 300.99 294.235 291.595 287.373 287.424C283.547 288.351 282.877 291.543 279.403 292.57C279.864 288.145 285.171 285.324 286.314 280.926C288.607 272.099 275.935 238.859 270.676 230.794L272.142 228.011Z"/>
	<path fill="#373C48" transform="scale(0.494629 0.495117)" d="M324.742 285.128C324.957 284.42 325.144 283.799 325.188 283.058C325.473 278.316 294.834 225.482 290.474 220.663L289.112 219.172L288.493 218.515C292.529 217.802 294.811 219.288 298.519 220.775C303.272 221.937 312.212 232.369 314.686 236.76C315.053 237.412 315.059 237.562 315.226 238.192C316.189 244.84 323.051 251.037 326.306 256.93C329.549 262.802 335.662 287.711 335.406 294.184L334.049 294.736Q332.244 292.682 330.485 290.588L329.35 291.101L329.528 294.81L328.599 294.97L327.856 293.138C327.877 290.431 325.925 287.525 324.742 285.128Z"/>
	<path fill="#373C48" transform="scale(0.494629 0.495117)" d="M181.457 865.441C191.55 867.655 201.336 869.201 211.634 870.217C237.188 893.622 237.822 882.256 263.826 889.807C267.29 890.813 269.327 891.681 271.072 894.881C271.001 896.386 270.763 897.27 269.932 898.558C267.144 902.879 264.313 903.772 259.521 904.89C234.922 905.817 208.188 903.501 184.382 897.019C179.662 895.734 174.126 894.121 171.54 889.637C169.987 880.639 176.719 872.478 181.457 865.441Z"/>
	<path fill="#373C48" transform="scale(0.494629 0.495117)" d="M360.832 875.427C369.575 879.309 375.846 888.333 384.773 891.662C395.604 895.701 412.194 893.336 421.293 899.693C423.482 901.222 423.445 901.916 423.905 904.396C423.418 906.635 422.852 908.09 421.028 909.563C413.097 915.972 395.252 913.635 385.876 912.745C370.694 910.633 346.262 913.178 334.832 910.491C331.074 909.608 327.523 907.747 325.546 904.31C321.035 896.468 325.322 884.755 327.452 876.71C339.255 877.874 349.171 877.534 360.832 875.427Z"/>
	<path fill="#373C48" transform="scale(0.494629 0.495117)" d="M430.078 303.947C443.876 309.094 463.063 321.332 476.644 328.664C452.347 352.193 425.98 376.594 399.108 397.088C393.62 394.871 388.254 392.42 382.876 389.953C381.032 388.468 380.305 388.162 379.533 385.868C382.905 383.337 389.296 382.68 393.386 381.395C403.431 378.24 420.115 370.219 425.105 360.441C426.596 357.517 426.099 355.901 425.107 352.957C418.998 349.787 404.755 356.601 397.752 357.802C393.325 358.561 390.483 358.81 386.735 356.158C386.175 354.889 385.667 353.594 385.751 352.179C386.569 338.379 419.568 313.588 430.078 303.947Z"/>
	<path fill="#373C48" transform="scale(0.494629 0.495117)" d="M292.031 187.684C289.685 164.498 285.518 150.708 301.621 130.978Q302.48 129.926 303.391 128.918Q304.301 127.911 305.26 126.949Q306.22 125.988 307.226 125.076Q308.232 124.163 309.282 123.302Q310.332 122.441 311.424 121.633Q312.516 120.826 313.647 120.073Q314.777 119.321 315.944 118.625Q317.11 117.93 318.31 117.293Q319.51 116.657 320.74 116.081Q321.97 115.505 323.227 114.991Q324.484 114.477 325.765 114.026Q327.046 113.576 328.348 113.189Q329.65 112.802 330.97 112.481Q332.29 112.16 333.623 111.905Q334.957 111.649 336.302 111.461Q337.647 111.272 339 111.151C350.868 110.045 361.954 112.88 372.372 118.468C379.115 124.149 385.395 130.417 392.187 135.998C397.819 140.626 405.553 144.915 410.376 150.276C411.57 151.603 411.823 152.672 411.955 154.421C412.357 159.761 408.894 166.158 405.378 169.981C404.152 171.314 402.914 172.072 401.206 172.699C393.456 171.653 389.351 158.957 381.243 164.869C376.205 168.543 374.399 175.406 369.81 179.481C361.663 186.715 344.212 183.892 333.791 186.444C327.836 193.307 320.908 202.235 311.086 202.934C305.098 203.36 299.566 200.442 295.203 196.563C293.626 195.161 292.129 193.659 290.646 192.158C288.897 194.85 285.363 199.044 284.958 202.145C277.66 204.211 271.167 205.627 264.058 201.789Q263.322 201.395 262.63 200.928Q261.938 200.461 261.297 199.926Q260.656 199.391 260.072 198.794Q259.489 198.197 258.969 197.543Q258.45 196.89 257.999 196.187Q257.548 195.484 257.171 194.739Q256.794 193.994 256.495 193.215Q256.196 192.436 255.977 191.63C254.545 186.485 255.574 180.99 258.314 176.461C260.767 172.407 264.607 168.875 269.324 167.778C272.843 166.96 276.238 167.905 279.211 169.847C285.485 173.947 288.697 181.228 292.031 187.684Z"/>
	<path fill="#373C48" fill-opacity="0.97647059" transform="scale(0.494629 0.495117)" d="M359.331 568.711C361.398 570.662 363.197 571.874 363.357 574.992C363.527 578.31 362.353 582.072 363.771 585.148L366.763 584.824C369.517 587.488 367.502 592.32 370.626 595.912L370.042 601.5L367.857 597.743L366.764 597.595C365.837 601.775 366.032 606.193 365.988 610.457C365.292 614.089 364.055 618.818 363.89 622.429C363.88 622.651 363.876 622.874 363.869 623.097L362.504 623.766L363.524 622.301L361.974 622.179C361.638 616.884 361.64 611.238 360.113 606.129C360.038 605.877 359.957 605.626 359.879 605.375C358.741 593.391 359.55 580.776 359.331 568.711Z"/>
	<path fill="#242734" fill-opacity="0.96078432" transform="scale(0.494629 0.495117)" d="M359.879 605.375C359.957 605.626 360.038 605.877 360.113 606.129C361.64 611.238 361.638 616.884 361.974 622.179L363.524 622.301L362.504 623.766L363.869 623.097C363.876 622.874 363.88 622.651 363.89 622.429C364.055 618.818 365.292 614.089 365.988 610.457C366.289 642.745 369.471 677.13 363.013 708.818L362.243 701.039C362.807 696.153 363.585 689.819 362.246 685.066L359.937 684.009C362.569 677.5 359.395 618.415 359.879 605.375Z"/>
	<path fill="#373C48" transform="scale(0.494629 0.495117)" d="M298.512 382.923C310.116 382.271 323.868 379.94 335.197 382.853C338.941 383.815 342.229 385.127 344.251 388.578C345.948 391.692 349.247 392.282 350 393.729C352.685 398.89 351.277 411.594 354.164 419.491C354.778 433.589 363.165 450.775 367.839 464.104C375.199 485.092 382.271 506.283 390.182 527.065C399.182 550.707 408.949 574.036 417.492 597.858L376.067 598.002C374.257 596.652 372.838 596.269 370.626 595.912C367.502 592.32 369.517 587.488 366.763 584.824L363.771 585.148C362.353 582.072 363.527 578.31 363.357 574.992C363.197 571.874 361.398 570.662 359.331 568.711C359.212 567.572 358.934 566.423 358.723 565.296C349.031 562.792 291.943 564.697 277.259 564.748C273.61 575.866 269.264 586.851 265.245 597.846Q242.116 598.107 218.99 597.687C227.407 581.669 233.019 563.014 239.696 546.12Q258.336 499.2 274.9 451.508C279.21 439.094 284.164 426.94 287.537 414.219L290.838 405.271C292.712 403.625 297.357 386.482 298.512 382.923ZM318.219 448.644C307.551 474.965 300.287 502.622 289.605 528.872Q305.052 529.055 320.5 529.018L348.408 528.958C342.115 515.756 324.977 453.879 318.219 448.644Z"/>
</svg>
